%TF.GenerationSoftware,KiCad,Pcbnew,9.0.0*%
%TF.CreationDate,2025-03-06T18:24:39+01:00*%
%TF.ProjectId,GettingToBlinky,47657474-696e-4675-946f-426c696e6b79,rev?*%
%TF.SameCoordinates,Original*%
%TF.FileFunction,Legend,Top*%
%TF.FilePolarity,Positive*%
%FSLAX46Y46*%
G04 Gerber Fmt 4.6, Leading zero omitted, Abs format (unit mm)*
G04 Created by KiCad (PCBNEW 9.0.0) date 2025-03-06 18:24:39*
%MOMM*%
%LPD*%
G01*
G04 APERTURE LIST*
%ADD10C,0.100000*%
%ADD11C,0.150000*%
%ADD12C,0.120000*%
G04 APERTURE END LIST*
D10*
X141756265Y-138364856D02*
X141899122Y-138412475D01*
X141899122Y-138412475D02*
X142137217Y-138412475D01*
X142137217Y-138412475D02*
X142232455Y-138364856D01*
X142232455Y-138364856D02*
X142280074Y-138317236D01*
X142280074Y-138317236D02*
X142327693Y-138221998D01*
X142327693Y-138221998D02*
X142327693Y-138126760D01*
X142327693Y-138126760D02*
X142280074Y-138031522D01*
X142280074Y-138031522D02*
X142232455Y-137983903D01*
X142232455Y-137983903D02*
X142137217Y-137936284D01*
X142137217Y-137936284D02*
X141946741Y-137888665D01*
X141946741Y-137888665D02*
X141851503Y-137841046D01*
X141851503Y-137841046D02*
X141803884Y-137793427D01*
X141803884Y-137793427D02*
X141756265Y-137698189D01*
X141756265Y-137698189D02*
X141756265Y-137602951D01*
X141756265Y-137602951D02*
X141803884Y-137507713D01*
X141803884Y-137507713D02*
X141851503Y-137460094D01*
X141851503Y-137460094D02*
X141946741Y-137412475D01*
X141946741Y-137412475D02*
X142184836Y-137412475D01*
X142184836Y-137412475D02*
X142327693Y-137460094D01*
X142899122Y-138412475D02*
X142803884Y-138364856D01*
X142803884Y-138364856D02*
X142756265Y-138317236D01*
X142756265Y-138317236D02*
X142708646Y-138221998D01*
X142708646Y-138221998D02*
X142708646Y-137936284D01*
X142708646Y-137936284D02*
X142756265Y-137841046D01*
X142756265Y-137841046D02*
X142803884Y-137793427D01*
X142803884Y-137793427D02*
X142899122Y-137745808D01*
X142899122Y-137745808D02*
X143041979Y-137745808D01*
X143041979Y-137745808D02*
X143137217Y-137793427D01*
X143137217Y-137793427D02*
X143184836Y-137841046D01*
X143184836Y-137841046D02*
X143232455Y-137936284D01*
X143232455Y-137936284D02*
X143232455Y-138221998D01*
X143232455Y-138221998D02*
X143184836Y-138317236D01*
X143184836Y-138317236D02*
X143137217Y-138364856D01*
X143137217Y-138364856D02*
X143041979Y-138412475D01*
X143041979Y-138412475D02*
X142899122Y-138412475D01*
X143803884Y-138412475D02*
X143708646Y-138364856D01*
X143708646Y-138364856D02*
X143661027Y-138269617D01*
X143661027Y-138269617D02*
X143661027Y-137412475D01*
X144613408Y-138412475D02*
X144613408Y-137412475D01*
X144613408Y-138364856D02*
X144518170Y-138412475D01*
X144518170Y-138412475D02*
X144327694Y-138412475D01*
X144327694Y-138412475D02*
X144232456Y-138364856D01*
X144232456Y-138364856D02*
X144184837Y-138317236D01*
X144184837Y-138317236D02*
X144137218Y-138221998D01*
X144137218Y-138221998D02*
X144137218Y-137936284D01*
X144137218Y-137936284D02*
X144184837Y-137841046D01*
X144184837Y-137841046D02*
X144232456Y-137793427D01*
X144232456Y-137793427D02*
X144327694Y-137745808D01*
X144327694Y-137745808D02*
X144518170Y-137745808D01*
X144518170Y-137745808D02*
X144613408Y-137793427D01*
X145470551Y-138364856D02*
X145375313Y-138412475D01*
X145375313Y-138412475D02*
X145184837Y-138412475D01*
X145184837Y-138412475D02*
X145089599Y-138364856D01*
X145089599Y-138364856D02*
X145041980Y-138269617D01*
X145041980Y-138269617D02*
X145041980Y-137888665D01*
X145041980Y-137888665D02*
X145089599Y-137793427D01*
X145089599Y-137793427D02*
X145184837Y-137745808D01*
X145184837Y-137745808D02*
X145375313Y-137745808D01*
X145375313Y-137745808D02*
X145470551Y-137793427D01*
X145470551Y-137793427D02*
X145518170Y-137888665D01*
X145518170Y-137888665D02*
X145518170Y-137983903D01*
X145518170Y-137983903D02*
X145041980Y-138079141D01*
X145946742Y-138412475D02*
X145946742Y-137745808D01*
X145946742Y-137936284D02*
X145994361Y-137841046D01*
X145994361Y-137841046D02*
X146041980Y-137793427D01*
X146041980Y-137793427D02*
X146137218Y-137745808D01*
X146137218Y-137745808D02*
X146232456Y-137745808D01*
X147184838Y-137745808D02*
X147565790Y-137745808D01*
X147327695Y-137412475D02*
X147327695Y-138269617D01*
X147327695Y-138269617D02*
X147375314Y-138364856D01*
X147375314Y-138364856D02*
X147470552Y-138412475D01*
X147470552Y-138412475D02*
X147565790Y-138412475D01*
X148041981Y-138412475D02*
X147946743Y-138364856D01*
X147946743Y-138364856D02*
X147899124Y-138317236D01*
X147899124Y-138317236D02*
X147851505Y-138221998D01*
X147851505Y-138221998D02*
X147851505Y-137936284D01*
X147851505Y-137936284D02*
X147899124Y-137841046D01*
X147899124Y-137841046D02*
X147946743Y-137793427D01*
X147946743Y-137793427D02*
X148041981Y-137745808D01*
X148041981Y-137745808D02*
X148184838Y-137745808D01*
X148184838Y-137745808D02*
X148280076Y-137793427D01*
X148280076Y-137793427D02*
X148327695Y-137841046D01*
X148327695Y-137841046D02*
X148375314Y-137936284D01*
X148375314Y-137936284D02*
X148375314Y-138221998D01*
X148375314Y-138221998D02*
X148327695Y-138317236D01*
X148327695Y-138317236D02*
X148280076Y-138364856D01*
X148280076Y-138364856D02*
X148184838Y-138412475D01*
X148184838Y-138412475D02*
X148041981Y-138412475D01*
X142184836Y-139974800D02*
X142089598Y-140022419D01*
X142089598Y-140022419D02*
X141899122Y-140022419D01*
X141899122Y-140022419D02*
X141803884Y-139974800D01*
X141803884Y-139974800D02*
X141756265Y-139879561D01*
X141756265Y-139879561D02*
X141756265Y-139498609D01*
X141756265Y-139498609D02*
X141803884Y-139403371D01*
X141803884Y-139403371D02*
X141899122Y-139355752D01*
X141899122Y-139355752D02*
X142089598Y-139355752D01*
X142089598Y-139355752D02*
X142184836Y-139403371D01*
X142184836Y-139403371D02*
X142232455Y-139498609D01*
X142232455Y-139498609D02*
X142232455Y-139593847D01*
X142232455Y-139593847D02*
X141756265Y-139689085D01*
X142661027Y-139355752D02*
X142661027Y-140022419D01*
X142661027Y-139450990D02*
X142708646Y-139403371D01*
X142708646Y-139403371D02*
X142803884Y-139355752D01*
X142803884Y-139355752D02*
X142946741Y-139355752D01*
X142946741Y-139355752D02*
X143041979Y-139403371D01*
X143041979Y-139403371D02*
X143089598Y-139498609D01*
X143089598Y-139498609D02*
X143089598Y-140022419D01*
X143994360Y-140022419D02*
X143994360Y-139498609D01*
X143994360Y-139498609D02*
X143946741Y-139403371D01*
X143946741Y-139403371D02*
X143851503Y-139355752D01*
X143851503Y-139355752D02*
X143661027Y-139355752D01*
X143661027Y-139355752D02*
X143565789Y-139403371D01*
X143994360Y-139974800D02*
X143899122Y-140022419D01*
X143899122Y-140022419D02*
X143661027Y-140022419D01*
X143661027Y-140022419D02*
X143565789Y-139974800D01*
X143565789Y-139974800D02*
X143518170Y-139879561D01*
X143518170Y-139879561D02*
X143518170Y-139784323D01*
X143518170Y-139784323D02*
X143565789Y-139689085D01*
X143565789Y-139689085D02*
X143661027Y-139641466D01*
X143661027Y-139641466D02*
X143899122Y-139641466D01*
X143899122Y-139641466D02*
X143994360Y-139593847D01*
X144470551Y-140022419D02*
X144470551Y-139022419D01*
X144470551Y-139403371D02*
X144565789Y-139355752D01*
X144565789Y-139355752D02*
X144756265Y-139355752D01*
X144756265Y-139355752D02*
X144851503Y-139403371D01*
X144851503Y-139403371D02*
X144899122Y-139450990D01*
X144899122Y-139450990D02*
X144946741Y-139546228D01*
X144946741Y-139546228D02*
X144946741Y-139831942D01*
X144946741Y-139831942D02*
X144899122Y-139927180D01*
X144899122Y-139927180D02*
X144851503Y-139974800D01*
X144851503Y-139974800D02*
X144756265Y-140022419D01*
X144756265Y-140022419D02*
X144565789Y-140022419D01*
X144565789Y-140022419D02*
X144470551Y-139974800D01*
X145518170Y-140022419D02*
X145422932Y-139974800D01*
X145422932Y-139974800D02*
X145375313Y-139879561D01*
X145375313Y-139879561D02*
X145375313Y-139022419D01*
X146280075Y-139974800D02*
X146184837Y-140022419D01*
X146184837Y-140022419D02*
X145994361Y-140022419D01*
X145994361Y-140022419D02*
X145899123Y-139974800D01*
X145899123Y-139974800D02*
X145851504Y-139879561D01*
X145851504Y-139879561D02*
X145851504Y-139498609D01*
X145851504Y-139498609D02*
X145899123Y-139403371D01*
X145899123Y-139403371D02*
X145994361Y-139355752D01*
X145994361Y-139355752D02*
X146184837Y-139355752D01*
X146184837Y-139355752D02*
X146280075Y-139403371D01*
X146280075Y-139403371D02*
X146327694Y-139498609D01*
X146327694Y-139498609D02*
X146327694Y-139593847D01*
X146327694Y-139593847D02*
X145851504Y-139689085D01*
X147946742Y-140022419D02*
X147946742Y-139498609D01*
X147946742Y-139498609D02*
X147899123Y-139403371D01*
X147899123Y-139403371D02*
X147803885Y-139355752D01*
X147803885Y-139355752D02*
X147613409Y-139355752D01*
X147613409Y-139355752D02*
X147518171Y-139403371D01*
X147946742Y-139974800D02*
X147851504Y-140022419D01*
X147851504Y-140022419D02*
X147613409Y-140022419D01*
X147613409Y-140022419D02*
X147518171Y-139974800D01*
X147518171Y-139974800D02*
X147470552Y-139879561D01*
X147470552Y-139879561D02*
X147470552Y-139784323D01*
X147470552Y-139784323D02*
X147518171Y-139689085D01*
X147518171Y-139689085D02*
X147613409Y-139641466D01*
X147613409Y-139641466D02*
X147851504Y-139641466D01*
X147851504Y-139641466D02*
X147946742Y-139593847D01*
X148851504Y-139355752D02*
X148851504Y-140022419D01*
X148422933Y-139355752D02*
X148422933Y-139879561D01*
X148422933Y-139879561D02*
X148470552Y-139974800D01*
X148470552Y-139974800D02*
X148565790Y-140022419D01*
X148565790Y-140022419D02*
X148708647Y-140022419D01*
X148708647Y-140022419D02*
X148803885Y-139974800D01*
X148803885Y-139974800D02*
X148851504Y-139927180D01*
X149756266Y-140022419D02*
X149756266Y-139022419D01*
X149756266Y-139974800D02*
X149661028Y-140022419D01*
X149661028Y-140022419D02*
X149470552Y-140022419D01*
X149470552Y-140022419D02*
X149375314Y-139974800D01*
X149375314Y-139974800D02*
X149327695Y-139927180D01*
X149327695Y-139927180D02*
X149280076Y-139831942D01*
X149280076Y-139831942D02*
X149280076Y-139546228D01*
X149280076Y-139546228D02*
X149327695Y-139450990D01*
X149327695Y-139450990D02*
X149375314Y-139403371D01*
X149375314Y-139403371D02*
X149470552Y-139355752D01*
X149470552Y-139355752D02*
X149661028Y-139355752D01*
X149661028Y-139355752D02*
X149756266Y-139403371D01*
X150232457Y-140022419D02*
X150232457Y-139355752D01*
X150232457Y-139022419D02*
X150184838Y-139070038D01*
X150184838Y-139070038D02*
X150232457Y-139117657D01*
X150232457Y-139117657D02*
X150280076Y-139070038D01*
X150280076Y-139070038D02*
X150232457Y-139022419D01*
X150232457Y-139022419D02*
X150232457Y-139117657D01*
X150851504Y-140022419D02*
X150756266Y-139974800D01*
X150756266Y-139974800D02*
X150708647Y-139927180D01*
X150708647Y-139927180D02*
X150661028Y-139831942D01*
X150661028Y-139831942D02*
X150661028Y-139546228D01*
X150661028Y-139546228D02*
X150708647Y-139450990D01*
X150708647Y-139450990D02*
X150756266Y-139403371D01*
X150756266Y-139403371D02*
X150851504Y-139355752D01*
X150851504Y-139355752D02*
X150994361Y-139355752D01*
X150994361Y-139355752D02*
X151089599Y-139403371D01*
X151089599Y-139403371D02*
X151137218Y-139450990D01*
X151137218Y-139450990D02*
X151184837Y-139546228D01*
X151184837Y-139546228D02*
X151184837Y-139831942D01*
X151184837Y-139831942D02*
X151137218Y-139927180D01*
X151137218Y-139927180D02*
X151089599Y-139974800D01*
X151089599Y-139974800D02*
X150994361Y-140022419D01*
X150994361Y-140022419D02*
X150851504Y-140022419D01*
X141756265Y-133364856D02*
X141899122Y-133412475D01*
X141899122Y-133412475D02*
X142137217Y-133412475D01*
X142137217Y-133412475D02*
X142232455Y-133364856D01*
X142232455Y-133364856D02*
X142280074Y-133317236D01*
X142280074Y-133317236D02*
X142327693Y-133221998D01*
X142327693Y-133221998D02*
X142327693Y-133126760D01*
X142327693Y-133126760D02*
X142280074Y-133031522D01*
X142280074Y-133031522D02*
X142232455Y-132983903D01*
X142232455Y-132983903D02*
X142137217Y-132936284D01*
X142137217Y-132936284D02*
X141946741Y-132888665D01*
X141946741Y-132888665D02*
X141851503Y-132841046D01*
X141851503Y-132841046D02*
X141803884Y-132793427D01*
X141803884Y-132793427D02*
X141756265Y-132698189D01*
X141756265Y-132698189D02*
X141756265Y-132602951D01*
X141756265Y-132602951D02*
X141803884Y-132507713D01*
X141803884Y-132507713D02*
X141851503Y-132460094D01*
X141851503Y-132460094D02*
X141946741Y-132412475D01*
X141946741Y-132412475D02*
X142184836Y-132412475D01*
X142184836Y-132412475D02*
X142327693Y-132460094D01*
X142899122Y-133412475D02*
X142803884Y-133364856D01*
X142803884Y-133364856D02*
X142756265Y-133317236D01*
X142756265Y-133317236D02*
X142708646Y-133221998D01*
X142708646Y-133221998D02*
X142708646Y-132936284D01*
X142708646Y-132936284D02*
X142756265Y-132841046D01*
X142756265Y-132841046D02*
X142803884Y-132793427D01*
X142803884Y-132793427D02*
X142899122Y-132745808D01*
X142899122Y-132745808D02*
X143041979Y-132745808D01*
X143041979Y-132745808D02*
X143137217Y-132793427D01*
X143137217Y-132793427D02*
X143184836Y-132841046D01*
X143184836Y-132841046D02*
X143232455Y-132936284D01*
X143232455Y-132936284D02*
X143232455Y-133221998D01*
X143232455Y-133221998D02*
X143184836Y-133317236D01*
X143184836Y-133317236D02*
X143137217Y-133364856D01*
X143137217Y-133364856D02*
X143041979Y-133412475D01*
X143041979Y-133412475D02*
X142899122Y-133412475D01*
X143803884Y-133412475D02*
X143708646Y-133364856D01*
X143708646Y-133364856D02*
X143661027Y-133269617D01*
X143661027Y-133269617D02*
X143661027Y-132412475D01*
X144613408Y-133412475D02*
X144613408Y-132412475D01*
X144613408Y-133364856D02*
X144518170Y-133412475D01*
X144518170Y-133412475D02*
X144327694Y-133412475D01*
X144327694Y-133412475D02*
X144232456Y-133364856D01*
X144232456Y-133364856D02*
X144184837Y-133317236D01*
X144184837Y-133317236D02*
X144137218Y-133221998D01*
X144137218Y-133221998D02*
X144137218Y-132936284D01*
X144137218Y-132936284D02*
X144184837Y-132841046D01*
X144184837Y-132841046D02*
X144232456Y-132793427D01*
X144232456Y-132793427D02*
X144327694Y-132745808D01*
X144327694Y-132745808D02*
X144518170Y-132745808D01*
X144518170Y-132745808D02*
X144613408Y-132793427D01*
X145470551Y-133364856D02*
X145375313Y-133412475D01*
X145375313Y-133412475D02*
X145184837Y-133412475D01*
X145184837Y-133412475D02*
X145089599Y-133364856D01*
X145089599Y-133364856D02*
X145041980Y-133269617D01*
X145041980Y-133269617D02*
X145041980Y-132888665D01*
X145041980Y-132888665D02*
X145089599Y-132793427D01*
X145089599Y-132793427D02*
X145184837Y-132745808D01*
X145184837Y-132745808D02*
X145375313Y-132745808D01*
X145375313Y-132745808D02*
X145470551Y-132793427D01*
X145470551Y-132793427D02*
X145518170Y-132888665D01*
X145518170Y-132888665D02*
X145518170Y-132983903D01*
X145518170Y-132983903D02*
X145041980Y-133079141D01*
X145946742Y-133412475D02*
X145946742Y-132745808D01*
X145946742Y-132936284D02*
X145994361Y-132841046D01*
X145994361Y-132841046D02*
X146041980Y-132793427D01*
X146041980Y-132793427D02*
X146137218Y-132745808D01*
X146137218Y-132745808D02*
X146232456Y-132745808D01*
X147184838Y-132745808D02*
X147565790Y-132745808D01*
X147327695Y-133412475D02*
X147327695Y-132555332D01*
X147327695Y-132555332D02*
X147375314Y-132460094D01*
X147375314Y-132460094D02*
X147470552Y-132412475D01*
X147470552Y-132412475D02*
X147565790Y-132412475D01*
X148041981Y-133412475D02*
X147946743Y-133364856D01*
X147946743Y-133364856D02*
X147899124Y-133317236D01*
X147899124Y-133317236D02*
X147851505Y-133221998D01*
X147851505Y-133221998D02*
X147851505Y-132936284D01*
X147851505Y-132936284D02*
X147899124Y-132841046D01*
X147899124Y-132841046D02*
X147946743Y-132793427D01*
X147946743Y-132793427D02*
X148041981Y-132745808D01*
X148041981Y-132745808D02*
X148184838Y-132745808D01*
X148184838Y-132745808D02*
X148280076Y-132793427D01*
X148280076Y-132793427D02*
X148327695Y-132841046D01*
X148327695Y-132841046D02*
X148375314Y-132936284D01*
X148375314Y-132936284D02*
X148375314Y-133221998D01*
X148375314Y-133221998D02*
X148327695Y-133317236D01*
X148327695Y-133317236D02*
X148280076Y-133364856D01*
X148280076Y-133364856D02*
X148184838Y-133412475D01*
X148184838Y-133412475D02*
X148041981Y-133412475D01*
X148803886Y-133412475D02*
X148803886Y-132745808D01*
X148803886Y-132936284D02*
X148851505Y-132841046D01*
X148851505Y-132841046D02*
X148899124Y-132793427D01*
X148899124Y-132793427D02*
X148994362Y-132745808D01*
X148994362Y-132745808D02*
X149089600Y-132745808D01*
X141946741Y-135022419D02*
X141851503Y-134974800D01*
X141851503Y-134974800D02*
X141803884Y-134879561D01*
X141803884Y-134879561D02*
X141803884Y-134022419D01*
X142470551Y-135022419D02*
X142375313Y-134974800D01*
X142375313Y-134974800D02*
X142327694Y-134927180D01*
X142327694Y-134927180D02*
X142280075Y-134831942D01*
X142280075Y-134831942D02*
X142280075Y-134546228D01*
X142280075Y-134546228D02*
X142327694Y-134450990D01*
X142327694Y-134450990D02*
X142375313Y-134403371D01*
X142375313Y-134403371D02*
X142470551Y-134355752D01*
X142470551Y-134355752D02*
X142613408Y-134355752D01*
X142613408Y-134355752D02*
X142708646Y-134403371D01*
X142708646Y-134403371D02*
X142756265Y-134450990D01*
X142756265Y-134450990D02*
X142803884Y-134546228D01*
X142803884Y-134546228D02*
X142803884Y-134831942D01*
X142803884Y-134831942D02*
X142756265Y-134927180D01*
X142756265Y-134927180D02*
X142708646Y-134974800D01*
X142708646Y-134974800D02*
X142613408Y-135022419D01*
X142613408Y-135022419D02*
X142470551Y-135022419D01*
X143137218Y-134355752D02*
X143327694Y-135022419D01*
X143327694Y-135022419D02*
X143518170Y-134546228D01*
X143518170Y-134546228D02*
X143708646Y-135022419D01*
X143708646Y-135022419D02*
X143899122Y-134355752D01*
X144899123Y-134355752D02*
X145280075Y-134355752D01*
X145041980Y-135022419D02*
X145041980Y-134165276D01*
X145041980Y-134165276D02*
X145089599Y-134070038D01*
X145089599Y-134070038D02*
X145184837Y-134022419D01*
X145184837Y-134022419D02*
X145280075Y-134022419D01*
X145613409Y-135022419D02*
X145613409Y-134355752D01*
X145613409Y-134546228D02*
X145661028Y-134450990D01*
X145661028Y-134450990D02*
X145708647Y-134403371D01*
X145708647Y-134403371D02*
X145803885Y-134355752D01*
X145803885Y-134355752D02*
X145899123Y-134355752D01*
X146613409Y-134974800D02*
X146518171Y-135022419D01*
X146518171Y-135022419D02*
X146327695Y-135022419D01*
X146327695Y-135022419D02*
X146232457Y-134974800D01*
X146232457Y-134974800D02*
X146184838Y-134879561D01*
X146184838Y-134879561D02*
X146184838Y-134498609D01*
X146184838Y-134498609D02*
X146232457Y-134403371D01*
X146232457Y-134403371D02*
X146327695Y-134355752D01*
X146327695Y-134355752D02*
X146518171Y-134355752D01*
X146518171Y-134355752D02*
X146613409Y-134403371D01*
X146613409Y-134403371D02*
X146661028Y-134498609D01*
X146661028Y-134498609D02*
X146661028Y-134593847D01*
X146661028Y-134593847D02*
X146184838Y-134689085D01*
X147518171Y-134355752D02*
X147518171Y-135355752D01*
X147518171Y-134974800D02*
X147422933Y-135022419D01*
X147422933Y-135022419D02*
X147232457Y-135022419D01*
X147232457Y-135022419D02*
X147137219Y-134974800D01*
X147137219Y-134974800D02*
X147089600Y-134927180D01*
X147089600Y-134927180D02*
X147041981Y-134831942D01*
X147041981Y-134831942D02*
X147041981Y-134546228D01*
X147041981Y-134546228D02*
X147089600Y-134450990D01*
X147089600Y-134450990D02*
X147137219Y-134403371D01*
X147137219Y-134403371D02*
X147232457Y-134355752D01*
X147232457Y-134355752D02*
X147422933Y-134355752D01*
X147422933Y-134355752D02*
X147518171Y-134403371D01*
X148422933Y-134355752D02*
X148422933Y-135022419D01*
X147994362Y-134355752D02*
X147994362Y-134879561D01*
X147994362Y-134879561D02*
X148041981Y-134974800D01*
X148041981Y-134974800D02*
X148137219Y-135022419D01*
X148137219Y-135022419D02*
X148280076Y-135022419D01*
X148280076Y-135022419D02*
X148375314Y-134974800D01*
X148375314Y-134974800D02*
X148422933Y-134927180D01*
X149280076Y-134974800D02*
X149184838Y-135022419D01*
X149184838Y-135022419D02*
X148994362Y-135022419D01*
X148994362Y-135022419D02*
X148899124Y-134974800D01*
X148899124Y-134974800D02*
X148851505Y-134879561D01*
X148851505Y-134879561D02*
X148851505Y-134498609D01*
X148851505Y-134498609D02*
X148899124Y-134403371D01*
X148899124Y-134403371D02*
X148994362Y-134355752D01*
X148994362Y-134355752D02*
X149184838Y-134355752D01*
X149184838Y-134355752D02*
X149280076Y-134403371D01*
X149280076Y-134403371D02*
X149327695Y-134498609D01*
X149327695Y-134498609D02*
X149327695Y-134593847D01*
X149327695Y-134593847D02*
X148851505Y-134689085D01*
X149756267Y-134355752D02*
X149756267Y-135022419D01*
X149756267Y-134450990D02*
X149803886Y-134403371D01*
X149803886Y-134403371D02*
X149899124Y-134355752D01*
X149899124Y-134355752D02*
X150041981Y-134355752D01*
X150041981Y-134355752D02*
X150137219Y-134403371D01*
X150137219Y-134403371D02*
X150184838Y-134498609D01*
X150184838Y-134498609D02*
X150184838Y-135022419D01*
X151089600Y-134974800D02*
X150994362Y-135022419D01*
X150994362Y-135022419D02*
X150803886Y-135022419D01*
X150803886Y-135022419D02*
X150708648Y-134974800D01*
X150708648Y-134974800D02*
X150661029Y-134927180D01*
X150661029Y-134927180D02*
X150613410Y-134831942D01*
X150613410Y-134831942D02*
X150613410Y-134546228D01*
X150613410Y-134546228D02*
X150661029Y-134450990D01*
X150661029Y-134450990D02*
X150708648Y-134403371D01*
X150708648Y-134403371D02*
X150803886Y-134355752D01*
X150803886Y-134355752D02*
X150994362Y-134355752D01*
X150994362Y-134355752D02*
X151089600Y-134403371D01*
X151422934Y-134355752D02*
X151661029Y-135022419D01*
X151899124Y-134355752D02*
X151661029Y-135022419D01*
X151661029Y-135022419D02*
X151565791Y-135260514D01*
X151565791Y-135260514D02*
X151518172Y-135308133D01*
X151518172Y-135308133D02*
X151422934Y-135355752D01*
D11*
X142970833Y-83854819D02*
X142494643Y-83854819D01*
X142494643Y-83854819D02*
X142494643Y-82854819D01*
X143827976Y-83854819D02*
X143256548Y-83854819D01*
X143542262Y-83854819D02*
X143542262Y-82854819D01*
X143542262Y-82854819D02*
X143447024Y-82997676D01*
X143447024Y-82997676D02*
X143351786Y-83092914D01*
X143351786Y-83092914D02*
X143256548Y-83140533D01*
X159833333Y-132859580D02*
X159785714Y-132907200D01*
X159785714Y-132907200D02*
X159642857Y-132954819D01*
X159642857Y-132954819D02*
X159547619Y-132954819D01*
X159547619Y-132954819D02*
X159404762Y-132907200D01*
X159404762Y-132907200D02*
X159309524Y-132811961D01*
X159309524Y-132811961D02*
X159261905Y-132716723D01*
X159261905Y-132716723D02*
X159214286Y-132526247D01*
X159214286Y-132526247D02*
X159214286Y-132383390D01*
X159214286Y-132383390D02*
X159261905Y-132192914D01*
X159261905Y-132192914D02*
X159309524Y-132097676D01*
X159309524Y-132097676D02*
X159404762Y-132002438D01*
X159404762Y-132002438D02*
X159547619Y-131954819D01*
X159547619Y-131954819D02*
X159642857Y-131954819D01*
X159642857Y-131954819D02*
X159785714Y-132002438D01*
X159785714Y-132002438D02*
X159833333Y-132050057D01*
X160166667Y-131954819D02*
X160833333Y-131954819D01*
X160833333Y-131954819D02*
X160404762Y-132954819D01*
X137454819Y-139483333D02*
X138169104Y-139483333D01*
X138169104Y-139483333D02*
X138311961Y-139530952D01*
X138311961Y-139530952D02*
X138407200Y-139626190D01*
X138407200Y-139626190D02*
X138454819Y-139769047D01*
X138454819Y-139769047D02*
X138454819Y-139864285D01*
X138454819Y-139007142D02*
X137454819Y-139007142D01*
X137454819Y-139007142D02*
X137454819Y-138626190D01*
X137454819Y-138626190D02*
X137502438Y-138530952D01*
X137502438Y-138530952D02*
X137550057Y-138483333D01*
X137550057Y-138483333D02*
X137645295Y-138435714D01*
X137645295Y-138435714D02*
X137788152Y-138435714D01*
X137788152Y-138435714D02*
X137883390Y-138483333D01*
X137883390Y-138483333D02*
X137931009Y-138530952D01*
X137931009Y-138530952D02*
X137978628Y-138626190D01*
X137978628Y-138626190D02*
X137978628Y-139007142D01*
X137550057Y-138054761D02*
X137502438Y-138007142D01*
X137502438Y-138007142D02*
X137454819Y-137911904D01*
X137454819Y-137911904D02*
X137454819Y-137673809D01*
X137454819Y-137673809D02*
X137502438Y-137578571D01*
X137502438Y-137578571D02*
X137550057Y-137530952D01*
X137550057Y-137530952D02*
X137645295Y-137483333D01*
X137645295Y-137483333D02*
X137740533Y-137483333D01*
X137740533Y-137483333D02*
X137883390Y-137530952D01*
X137883390Y-137530952D02*
X138454819Y-138102380D01*
X138454819Y-138102380D02*
X138454819Y-137483333D01*
X134722319Y-96500000D02*
X134246128Y-96833333D01*
X134722319Y-97071428D02*
X133722319Y-97071428D01*
X133722319Y-97071428D02*
X133722319Y-96690476D01*
X133722319Y-96690476D02*
X133769938Y-96595238D01*
X133769938Y-96595238D02*
X133817557Y-96547619D01*
X133817557Y-96547619D02*
X133912795Y-96500000D01*
X133912795Y-96500000D02*
X134055652Y-96500000D01*
X134055652Y-96500000D02*
X134150890Y-96547619D01*
X134150890Y-96547619D02*
X134198509Y-96595238D01*
X134198509Y-96595238D02*
X134246128Y-96690476D01*
X134246128Y-96690476D02*
X134246128Y-97071428D01*
X134674700Y-96119047D02*
X134722319Y-96023809D01*
X134722319Y-96023809D02*
X134722319Y-95833333D01*
X134722319Y-95833333D02*
X134674700Y-95738095D01*
X134674700Y-95738095D02*
X134579461Y-95690476D01*
X134579461Y-95690476D02*
X134531842Y-95690476D01*
X134531842Y-95690476D02*
X134436604Y-95738095D01*
X134436604Y-95738095D02*
X134388985Y-95833333D01*
X134388985Y-95833333D02*
X134388985Y-95976190D01*
X134388985Y-95976190D02*
X134341366Y-96071428D01*
X134341366Y-96071428D02*
X134246128Y-96119047D01*
X134246128Y-96119047D02*
X134198509Y-96119047D01*
X134198509Y-96119047D02*
X134103271Y-96071428D01*
X134103271Y-96071428D02*
X134055652Y-95976190D01*
X134055652Y-95976190D02*
X134055652Y-95833333D01*
X134055652Y-95833333D02*
X134103271Y-95738095D01*
X134674700Y-94833333D02*
X134722319Y-94928571D01*
X134722319Y-94928571D02*
X134722319Y-95119047D01*
X134722319Y-95119047D02*
X134674700Y-95214285D01*
X134674700Y-95214285D02*
X134627080Y-95261904D01*
X134627080Y-95261904D02*
X134531842Y-95309523D01*
X134531842Y-95309523D02*
X134246128Y-95309523D01*
X134246128Y-95309523D02*
X134150890Y-95261904D01*
X134150890Y-95261904D02*
X134103271Y-95214285D01*
X134103271Y-95214285D02*
X134055652Y-95119047D01*
X134055652Y-95119047D02*
X134055652Y-94928571D01*
X134055652Y-94928571D02*
X134103271Y-94833333D01*
X134722319Y-93880952D02*
X134722319Y-94452380D01*
X134722319Y-94166666D02*
X133722319Y-94166666D01*
X133722319Y-94166666D02*
X133865176Y-94261904D01*
X133865176Y-94261904D02*
X133960414Y-94357142D01*
X133960414Y-94357142D02*
X134008033Y-94452380D01*
X169666666Y-137954819D02*
X169666666Y-138669104D01*
X169666666Y-138669104D02*
X169619047Y-138811961D01*
X169619047Y-138811961D02*
X169523809Y-138907200D01*
X169523809Y-138907200D02*
X169380952Y-138954819D01*
X169380952Y-138954819D02*
X169285714Y-138954819D01*
X170666666Y-138954819D02*
X170095238Y-138954819D01*
X170380952Y-138954819D02*
X170380952Y-137954819D01*
X170380952Y-137954819D02*
X170285714Y-138097676D01*
X170285714Y-138097676D02*
X170190476Y-138192914D01*
X170190476Y-138192914D02*
X170095238Y-138240533D01*
X155903213Y-109759580D02*
X155855594Y-109807200D01*
X155855594Y-109807200D02*
X155712737Y-109854819D01*
X155712737Y-109854819D02*
X155617499Y-109854819D01*
X155617499Y-109854819D02*
X155474642Y-109807200D01*
X155474642Y-109807200D02*
X155379404Y-109711961D01*
X155379404Y-109711961D02*
X155331785Y-109616723D01*
X155331785Y-109616723D02*
X155284166Y-109426247D01*
X155284166Y-109426247D02*
X155284166Y-109283390D01*
X155284166Y-109283390D02*
X155331785Y-109092914D01*
X155331785Y-109092914D02*
X155379404Y-108997676D01*
X155379404Y-108997676D02*
X155474642Y-108902438D01*
X155474642Y-108902438D02*
X155617499Y-108854819D01*
X155617499Y-108854819D02*
X155712737Y-108854819D01*
X155712737Y-108854819D02*
X155855594Y-108902438D01*
X155855594Y-108902438D02*
X155903213Y-108950057D01*
X156284166Y-108950057D02*
X156331785Y-108902438D01*
X156331785Y-108902438D02*
X156427023Y-108854819D01*
X156427023Y-108854819D02*
X156665118Y-108854819D01*
X156665118Y-108854819D02*
X156760356Y-108902438D01*
X156760356Y-108902438D02*
X156807975Y-108950057D01*
X156807975Y-108950057D02*
X156855594Y-109045295D01*
X156855594Y-109045295D02*
X156855594Y-109140533D01*
X156855594Y-109140533D02*
X156807975Y-109283390D01*
X156807975Y-109283390D02*
X156236547Y-109854819D01*
X156236547Y-109854819D02*
X156855594Y-109854819D01*
X107214285Y-111431009D02*
X107357142Y-111478628D01*
X107357142Y-111478628D02*
X107404761Y-111526247D01*
X107404761Y-111526247D02*
X107452380Y-111621485D01*
X107452380Y-111621485D02*
X107452380Y-111764342D01*
X107452380Y-111764342D02*
X107404761Y-111859580D01*
X107404761Y-111859580D02*
X107357142Y-111907200D01*
X107357142Y-111907200D02*
X107261904Y-111954819D01*
X107261904Y-111954819D02*
X106880952Y-111954819D01*
X106880952Y-111954819D02*
X106880952Y-110954819D01*
X106880952Y-110954819D02*
X107214285Y-110954819D01*
X107214285Y-110954819D02*
X107309523Y-111002438D01*
X107309523Y-111002438D02*
X107357142Y-111050057D01*
X107357142Y-111050057D02*
X107404761Y-111145295D01*
X107404761Y-111145295D02*
X107404761Y-111240533D01*
X107404761Y-111240533D02*
X107357142Y-111335771D01*
X107357142Y-111335771D02*
X107309523Y-111383390D01*
X107309523Y-111383390D02*
X107214285Y-111431009D01*
X107214285Y-111431009D02*
X106880952Y-111431009D01*
X107738095Y-110954819D02*
X108309523Y-110954819D01*
X108023809Y-111954819D02*
X108023809Y-110954819D01*
X109166666Y-111954819D02*
X108595238Y-111954819D01*
X108880952Y-111954819D02*
X108880952Y-110954819D01*
X108880952Y-110954819D02*
X108785714Y-111097676D01*
X108785714Y-111097676D02*
X108690476Y-111192914D01*
X108690476Y-111192914D02*
X108595238Y-111240533D01*
X123737200Y-89642857D02*
X123737200Y-87357143D01*
X124880057Y-88500000D02*
X122594342Y-88500000D01*
X136303333Y-123549580D02*
X136255714Y-123597200D01*
X136255714Y-123597200D02*
X136112857Y-123644819D01*
X136112857Y-123644819D02*
X136017619Y-123644819D01*
X136017619Y-123644819D02*
X135874762Y-123597200D01*
X135874762Y-123597200D02*
X135779524Y-123501961D01*
X135779524Y-123501961D02*
X135731905Y-123406723D01*
X135731905Y-123406723D02*
X135684286Y-123216247D01*
X135684286Y-123216247D02*
X135684286Y-123073390D01*
X135684286Y-123073390D02*
X135731905Y-122882914D01*
X135731905Y-122882914D02*
X135779524Y-122787676D01*
X135779524Y-122787676D02*
X135874762Y-122692438D01*
X135874762Y-122692438D02*
X136017619Y-122644819D01*
X136017619Y-122644819D02*
X136112857Y-122644819D01*
X136112857Y-122644819D02*
X136255714Y-122692438D01*
X136255714Y-122692438D02*
X136303333Y-122740057D01*
X137208095Y-122644819D02*
X136731905Y-122644819D01*
X136731905Y-122644819D02*
X136684286Y-123121009D01*
X136684286Y-123121009D02*
X136731905Y-123073390D01*
X136731905Y-123073390D02*
X136827143Y-123025771D01*
X136827143Y-123025771D02*
X137065238Y-123025771D01*
X137065238Y-123025771D02*
X137160476Y-123073390D01*
X137160476Y-123073390D02*
X137208095Y-123121009D01*
X137208095Y-123121009D02*
X137255714Y-123216247D01*
X137255714Y-123216247D02*
X137255714Y-123454342D01*
X137255714Y-123454342D02*
X137208095Y-123549580D01*
X137208095Y-123549580D02*
X137160476Y-123597200D01*
X137160476Y-123597200D02*
X137065238Y-123644819D01*
X137065238Y-123644819D02*
X136827143Y-123644819D01*
X136827143Y-123644819D02*
X136731905Y-123597200D01*
X136731905Y-123597200D02*
X136684286Y-123549580D01*
X171283333Y-123644819D02*
X170950000Y-123168628D01*
X170711905Y-123644819D02*
X170711905Y-122644819D01*
X170711905Y-122644819D02*
X171092857Y-122644819D01*
X171092857Y-122644819D02*
X171188095Y-122692438D01*
X171188095Y-122692438D02*
X171235714Y-122740057D01*
X171235714Y-122740057D02*
X171283333Y-122835295D01*
X171283333Y-122835295D02*
X171283333Y-122978152D01*
X171283333Y-122978152D02*
X171235714Y-123073390D01*
X171235714Y-123073390D02*
X171188095Y-123121009D01*
X171188095Y-123121009D02*
X171092857Y-123168628D01*
X171092857Y-123168628D02*
X170711905Y-123168628D01*
X172188095Y-122644819D02*
X171711905Y-122644819D01*
X171711905Y-122644819D02*
X171664286Y-123121009D01*
X171664286Y-123121009D02*
X171711905Y-123073390D01*
X171711905Y-123073390D02*
X171807143Y-123025771D01*
X171807143Y-123025771D02*
X172045238Y-123025771D01*
X172045238Y-123025771D02*
X172140476Y-123073390D01*
X172140476Y-123073390D02*
X172188095Y-123121009D01*
X172188095Y-123121009D02*
X172235714Y-123216247D01*
X172235714Y-123216247D02*
X172235714Y-123454342D01*
X172235714Y-123454342D02*
X172188095Y-123549580D01*
X172188095Y-123549580D02*
X172140476Y-123597200D01*
X172140476Y-123597200D02*
X172045238Y-123644819D01*
X172045238Y-123644819D02*
X171807143Y-123644819D01*
X171807143Y-123644819D02*
X171711905Y-123597200D01*
X171711905Y-123597200D02*
X171664286Y-123549580D01*
X150373095Y-128994819D02*
X150373095Y-129804342D01*
X150373095Y-129804342D02*
X150420714Y-129899580D01*
X150420714Y-129899580D02*
X150468333Y-129947200D01*
X150468333Y-129947200D02*
X150563571Y-129994819D01*
X150563571Y-129994819D02*
X150754047Y-129994819D01*
X150754047Y-129994819D02*
X150849285Y-129947200D01*
X150849285Y-129947200D02*
X150896904Y-129899580D01*
X150896904Y-129899580D02*
X150944523Y-129804342D01*
X150944523Y-129804342D02*
X150944523Y-128994819D01*
X151373095Y-129090057D02*
X151420714Y-129042438D01*
X151420714Y-129042438D02*
X151515952Y-128994819D01*
X151515952Y-128994819D02*
X151754047Y-128994819D01*
X151754047Y-128994819D02*
X151849285Y-129042438D01*
X151849285Y-129042438D02*
X151896904Y-129090057D01*
X151896904Y-129090057D02*
X151944523Y-129185295D01*
X151944523Y-129185295D02*
X151944523Y-129280533D01*
X151944523Y-129280533D02*
X151896904Y-129423390D01*
X151896904Y-129423390D02*
X151325476Y-129994819D01*
X151325476Y-129994819D02*
X151944523Y-129994819D01*
X157833333Y-83454819D02*
X157500000Y-82978628D01*
X157261905Y-83454819D02*
X157261905Y-82454819D01*
X157261905Y-82454819D02*
X157642857Y-82454819D01*
X157642857Y-82454819D02*
X157738095Y-82502438D01*
X157738095Y-82502438D02*
X157785714Y-82550057D01*
X157785714Y-82550057D02*
X157833333Y-82645295D01*
X157833333Y-82645295D02*
X157833333Y-82788152D01*
X157833333Y-82788152D02*
X157785714Y-82883390D01*
X157785714Y-82883390D02*
X157738095Y-82931009D01*
X157738095Y-82931009D02*
X157642857Y-82978628D01*
X157642857Y-82978628D02*
X157261905Y-82978628D01*
X158785714Y-83454819D02*
X158214286Y-83454819D01*
X158500000Y-83454819D02*
X158500000Y-82454819D01*
X158500000Y-82454819D02*
X158404762Y-82597676D01*
X158404762Y-82597676D02*
X158309524Y-82692914D01*
X158309524Y-82692914D02*
X158214286Y-82740533D01*
X137053333Y-113199580D02*
X137005714Y-113247200D01*
X137005714Y-113247200D02*
X136862857Y-113294819D01*
X136862857Y-113294819D02*
X136767619Y-113294819D01*
X136767619Y-113294819D02*
X136624762Y-113247200D01*
X136624762Y-113247200D02*
X136529524Y-113151961D01*
X136529524Y-113151961D02*
X136481905Y-113056723D01*
X136481905Y-113056723D02*
X136434286Y-112866247D01*
X136434286Y-112866247D02*
X136434286Y-112723390D01*
X136434286Y-112723390D02*
X136481905Y-112532914D01*
X136481905Y-112532914D02*
X136529524Y-112437676D01*
X136529524Y-112437676D02*
X136624762Y-112342438D01*
X136624762Y-112342438D02*
X136767619Y-112294819D01*
X136767619Y-112294819D02*
X136862857Y-112294819D01*
X136862857Y-112294819D02*
X137005714Y-112342438D01*
X137005714Y-112342438D02*
X137053333Y-112390057D01*
X137910476Y-112628152D02*
X137910476Y-113294819D01*
X137672381Y-112247200D02*
X137434286Y-112961485D01*
X137434286Y-112961485D02*
X138053333Y-112961485D01*
X160470833Y-88954819D02*
X160137500Y-88478628D01*
X159899405Y-88954819D02*
X159899405Y-87954819D01*
X159899405Y-87954819D02*
X160280357Y-87954819D01*
X160280357Y-87954819D02*
X160375595Y-88002438D01*
X160375595Y-88002438D02*
X160423214Y-88050057D01*
X160423214Y-88050057D02*
X160470833Y-88145295D01*
X160470833Y-88145295D02*
X160470833Y-88288152D01*
X160470833Y-88288152D02*
X160423214Y-88383390D01*
X160423214Y-88383390D02*
X160375595Y-88431009D01*
X160375595Y-88431009D02*
X160280357Y-88478628D01*
X160280357Y-88478628D02*
X159899405Y-88478628D01*
X160851786Y-88050057D02*
X160899405Y-88002438D01*
X160899405Y-88002438D02*
X160994643Y-87954819D01*
X160994643Y-87954819D02*
X161232738Y-87954819D01*
X161232738Y-87954819D02*
X161327976Y-88002438D01*
X161327976Y-88002438D02*
X161375595Y-88050057D01*
X161375595Y-88050057D02*
X161423214Y-88145295D01*
X161423214Y-88145295D02*
X161423214Y-88240533D01*
X161423214Y-88240533D02*
X161375595Y-88383390D01*
X161375595Y-88383390D02*
X160804167Y-88954819D01*
X160804167Y-88954819D02*
X161423214Y-88954819D01*
X145288454Y-104859580D02*
X145240835Y-104907200D01*
X145240835Y-104907200D02*
X145097978Y-104954819D01*
X145097978Y-104954819D02*
X145002740Y-104954819D01*
X145002740Y-104954819D02*
X144859883Y-104907200D01*
X144859883Y-104907200D02*
X144764645Y-104811961D01*
X144764645Y-104811961D02*
X144717026Y-104716723D01*
X144717026Y-104716723D02*
X144669407Y-104526247D01*
X144669407Y-104526247D02*
X144669407Y-104383390D01*
X144669407Y-104383390D02*
X144717026Y-104192914D01*
X144717026Y-104192914D02*
X144764645Y-104097676D01*
X144764645Y-104097676D02*
X144859883Y-104002438D01*
X144859883Y-104002438D02*
X145002740Y-103954819D01*
X145002740Y-103954819D02*
X145097978Y-103954819D01*
X145097978Y-103954819D02*
X145240835Y-104002438D01*
X145240835Y-104002438D02*
X145288454Y-104050057D01*
X146240835Y-104954819D02*
X145669407Y-104954819D01*
X145955121Y-104954819D02*
X145955121Y-103954819D01*
X145955121Y-103954819D02*
X145859883Y-104097676D01*
X145859883Y-104097676D02*
X145764645Y-104192914D01*
X145764645Y-104192914D02*
X145669407Y-104240533D01*
X137454819Y-134483333D02*
X138169104Y-134483333D01*
X138169104Y-134483333D02*
X138311961Y-134530952D01*
X138311961Y-134530952D02*
X138407200Y-134626190D01*
X138407200Y-134626190D02*
X138454819Y-134769047D01*
X138454819Y-134769047D02*
X138454819Y-134864285D01*
X138454819Y-134007142D02*
X137454819Y-134007142D01*
X137454819Y-134007142D02*
X137454819Y-133626190D01*
X137454819Y-133626190D02*
X137502438Y-133530952D01*
X137502438Y-133530952D02*
X137550057Y-133483333D01*
X137550057Y-133483333D02*
X137645295Y-133435714D01*
X137645295Y-133435714D02*
X137788152Y-133435714D01*
X137788152Y-133435714D02*
X137883390Y-133483333D01*
X137883390Y-133483333D02*
X137931009Y-133530952D01*
X137931009Y-133530952D02*
X137978628Y-133626190D01*
X137978628Y-133626190D02*
X137978628Y-134007142D01*
X138454819Y-132483333D02*
X138454819Y-133054761D01*
X138454819Y-132769047D02*
X137454819Y-132769047D01*
X137454819Y-132769047D02*
X137597676Y-132864285D01*
X137597676Y-132864285D02*
X137692914Y-132959523D01*
X137692914Y-132959523D02*
X137740533Y-133054761D01*
X157375595Y-86454819D02*
X157375595Y-87264342D01*
X157375595Y-87264342D02*
X157423214Y-87359580D01*
X157423214Y-87359580D02*
X157470833Y-87407200D01*
X157470833Y-87407200D02*
X157566071Y-87454819D01*
X157566071Y-87454819D02*
X157756547Y-87454819D01*
X157756547Y-87454819D02*
X157851785Y-87407200D01*
X157851785Y-87407200D02*
X157899404Y-87359580D01*
X157899404Y-87359580D02*
X157947023Y-87264342D01*
X157947023Y-87264342D02*
X157947023Y-86454819D01*
X158947023Y-87454819D02*
X158375595Y-87454819D01*
X158661309Y-87454819D02*
X158661309Y-86454819D01*
X158661309Y-86454819D02*
X158566071Y-86597676D01*
X158566071Y-86597676D02*
X158470833Y-86692914D01*
X158470833Y-86692914D02*
X158375595Y-86740533D01*
X171283333Y-119834819D02*
X170950000Y-119358628D01*
X170711905Y-119834819D02*
X170711905Y-118834819D01*
X170711905Y-118834819D02*
X171092857Y-118834819D01*
X171092857Y-118834819D02*
X171188095Y-118882438D01*
X171188095Y-118882438D02*
X171235714Y-118930057D01*
X171235714Y-118930057D02*
X171283333Y-119025295D01*
X171283333Y-119025295D02*
X171283333Y-119168152D01*
X171283333Y-119168152D02*
X171235714Y-119263390D01*
X171235714Y-119263390D02*
X171188095Y-119311009D01*
X171188095Y-119311009D02*
X171092857Y-119358628D01*
X171092857Y-119358628D02*
X170711905Y-119358628D01*
X172140476Y-119168152D02*
X172140476Y-119834819D01*
X171902381Y-118787200D02*
X171664286Y-119501485D01*
X171664286Y-119501485D02*
X172283333Y-119501485D01*
X164833333Y-139454819D02*
X164500000Y-138978628D01*
X164261905Y-139454819D02*
X164261905Y-138454819D01*
X164261905Y-138454819D02*
X164642857Y-138454819D01*
X164642857Y-138454819D02*
X164738095Y-138502438D01*
X164738095Y-138502438D02*
X164785714Y-138550057D01*
X164785714Y-138550057D02*
X164833333Y-138645295D01*
X164833333Y-138645295D02*
X164833333Y-138788152D01*
X164833333Y-138788152D02*
X164785714Y-138883390D01*
X164785714Y-138883390D02*
X164738095Y-138931009D01*
X164738095Y-138931009D02*
X164642857Y-138978628D01*
X164642857Y-138978628D02*
X164261905Y-138978628D01*
X165166667Y-138454819D02*
X165833333Y-138454819D01*
X165833333Y-138454819D02*
X165404762Y-139454819D01*
X150983333Y-113429580D02*
X150935714Y-113477200D01*
X150935714Y-113477200D02*
X150792857Y-113524819D01*
X150792857Y-113524819D02*
X150697619Y-113524819D01*
X150697619Y-113524819D02*
X150554762Y-113477200D01*
X150554762Y-113477200D02*
X150459524Y-113381961D01*
X150459524Y-113381961D02*
X150411905Y-113286723D01*
X150411905Y-113286723D02*
X150364286Y-113096247D01*
X150364286Y-113096247D02*
X150364286Y-112953390D01*
X150364286Y-112953390D02*
X150411905Y-112762914D01*
X150411905Y-112762914D02*
X150459524Y-112667676D01*
X150459524Y-112667676D02*
X150554762Y-112572438D01*
X150554762Y-112572438D02*
X150697619Y-112524819D01*
X150697619Y-112524819D02*
X150792857Y-112524819D01*
X150792857Y-112524819D02*
X150935714Y-112572438D01*
X150935714Y-112572438D02*
X150983333Y-112620057D01*
X151840476Y-112524819D02*
X151650000Y-112524819D01*
X151650000Y-112524819D02*
X151554762Y-112572438D01*
X151554762Y-112572438D02*
X151507143Y-112620057D01*
X151507143Y-112620057D02*
X151411905Y-112762914D01*
X151411905Y-112762914D02*
X151364286Y-112953390D01*
X151364286Y-112953390D02*
X151364286Y-113334342D01*
X151364286Y-113334342D02*
X151411905Y-113429580D01*
X151411905Y-113429580D02*
X151459524Y-113477200D01*
X151459524Y-113477200D02*
X151554762Y-113524819D01*
X151554762Y-113524819D02*
X151745238Y-113524819D01*
X151745238Y-113524819D02*
X151840476Y-113477200D01*
X151840476Y-113477200D02*
X151888095Y-113429580D01*
X151888095Y-113429580D02*
X151935714Y-113334342D01*
X151935714Y-113334342D02*
X151935714Y-113096247D01*
X151935714Y-113096247D02*
X151888095Y-113001009D01*
X151888095Y-113001009D02*
X151840476Y-112953390D01*
X151840476Y-112953390D02*
X151745238Y-112905771D01*
X151745238Y-112905771D02*
X151554762Y-112905771D01*
X151554762Y-112905771D02*
X151459524Y-112953390D01*
X151459524Y-112953390D02*
X151411905Y-113001009D01*
X151411905Y-113001009D02*
X151364286Y-113096247D01*
X139297618Y-93859580D02*
X139249999Y-93907200D01*
X139249999Y-93907200D02*
X139107142Y-93954819D01*
X139107142Y-93954819D02*
X139011904Y-93954819D01*
X139011904Y-93954819D02*
X138869047Y-93907200D01*
X138869047Y-93907200D02*
X138773809Y-93811961D01*
X138773809Y-93811961D02*
X138726190Y-93716723D01*
X138726190Y-93716723D02*
X138678571Y-93526247D01*
X138678571Y-93526247D02*
X138678571Y-93383390D01*
X138678571Y-93383390D02*
X138726190Y-93192914D01*
X138726190Y-93192914D02*
X138773809Y-93097676D01*
X138773809Y-93097676D02*
X138869047Y-93002438D01*
X138869047Y-93002438D02*
X139011904Y-92954819D01*
X139011904Y-92954819D02*
X139107142Y-92954819D01*
X139107142Y-92954819D02*
X139249999Y-93002438D01*
X139249999Y-93002438D02*
X139297618Y-93050057D01*
X139583333Y-93288152D02*
X139964285Y-93288152D01*
X139726190Y-92954819D02*
X139726190Y-93811961D01*
X139726190Y-93811961D02*
X139773809Y-93907200D01*
X139773809Y-93907200D02*
X139869047Y-93954819D01*
X139869047Y-93954819D02*
X139964285Y-93954819D01*
X140821428Y-93954819D02*
X140250000Y-93954819D01*
X140535714Y-93954819D02*
X140535714Y-92954819D01*
X140535714Y-92954819D02*
X140440476Y-93097676D01*
X140440476Y-93097676D02*
X140345238Y-93192914D01*
X140345238Y-93192914D02*
X140250000Y-93240533D01*
X163970833Y-88954819D02*
X163637500Y-88478628D01*
X163399405Y-88954819D02*
X163399405Y-87954819D01*
X163399405Y-87954819D02*
X163780357Y-87954819D01*
X163780357Y-87954819D02*
X163875595Y-88002438D01*
X163875595Y-88002438D02*
X163923214Y-88050057D01*
X163923214Y-88050057D02*
X163970833Y-88145295D01*
X163970833Y-88145295D02*
X163970833Y-88288152D01*
X163970833Y-88288152D02*
X163923214Y-88383390D01*
X163923214Y-88383390D02*
X163875595Y-88431009D01*
X163875595Y-88431009D02*
X163780357Y-88478628D01*
X163780357Y-88478628D02*
X163399405Y-88478628D01*
X164304167Y-87954819D02*
X164923214Y-87954819D01*
X164923214Y-87954819D02*
X164589881Y-88335771D01*
X164589881Y-88335771D02*
X164732738Y-88335771D01*
X164732738Y-88335771D02*
X164827976Y-88383390D01*
X164827976Y-88383390D02*
X164875595Y-88431009D01*
X164875595Y-88431009D02*
X164923214Y-88526247D01*
X164923214Y-88526247D02*
X164923214Y-88764342D01*
X164923214Y-88764342D02*
X164875595Y-88859580D01*
X164875595Y-88859580D02*
X164827976Y-88907200D01*
X164827976Y-88907200D02*
X164732738Y-88954819D01*
X164732738Y-88954819D02*
X164447024Y-88954819D01*
X164447024Y-88954819D02*
X164351786Y-88907200D01*
X164351786Y-88907200D02*
X164304167Y-88859580D01*
X151261905Y-102924819D02*
X151261905Y-101924819D01*
X151261905Y-101924819D02*
X151500000Y-101924819D01*
X151500000Y-101924819D02*
X151642857Y-101972438D01*
X151642857Y-101972438D02*
X151738095Y-102067676D01*
X151738095Y-102067676D02*
X151785714Y-102162914D01*
X151785714Y-102162914D02*
X151833333Y-102353390D01*
X151833333Y-102353390D02*
X151833333Y-102496247D01*
X151833333Y-102496247D02*
X151785714Y-102686723D01*
X151785714Y-102686723D02*
X151738095Y-102781961D01*
X151738095Y-102781961D02*
X151642857Y-102877200D01*
X151642857Y-102877200D02*
X151500000Y-102924819D01*
X151500000Y-102924819D02*
X151261905Y-102924819D01*
X152785714Y-102924819D02*
X152214286Y-102924819D01*
X152500000Y-102924819D02*
X152500000Y-101924819D01*
X152500000Y-101924819D02*
X152404762Y-102067676D01*
X152404762Y-102067676D02*
X152309524Y-102162914D01*
X152309524Y-102162914D02*
X152214286Y-102210533D01*
X157455595Y-102554819D02*
X157455595Y-101554819D01*
X158027023Y-102554819D02*
X157598452Y-101983390D01*
X158027023Y-101554819D02*
X157455595Y-102126247D01*
X167256905Y-108494819D02*
X167256905Y-107494819D01*
X167256905Y-107494819D02*
X167495000Y-107494819D01*
X167495000Y-107494819D02*
X167637857Y-107542438D01*
X167637857Y-107542438D02*
X167733095Y-107637676D01*
X167733095Y-107637676D02*
X167780714Y-107732914D01*
X167780714Y-107732914D02*
X167828333Y-107923390D01*
X167828333Y-107923390D02*
X167828333Y-108066247D01*
X167828333Y-108066247D02*
X167780714Y-108256723D01*
X167780714Y-108256723D02*
X167733095Y-108351961D01*
X167733095Y-108351961D02*
X167637857Y-108447200D01*
X167637857Y-108447200D02*
X167495000Y-108494819D01*
X167495000Y-108494819D02*
X167256905Y-108494819D01*
X168209286Y-107590057D02*
X168256905Y-107542438D01*
X168256905Y-107542438D02*
X168352143Y-107494819D01*
X168352143Y-107494819D02*
X168590238Y-107494819D01*
X168590238Y-107494819D02*
X168685476Y-107542438D01*
X168685476Y-107542438D02*
X168733095Y-107590057D01*
X168733095Y-107590057D02*
X168780714Y-107685295D01*
X168780714Y-107685295D02*
X168780714Y-107780533D01*
X168780714Y-107780533D02*
X168733095Y-107923390D01*
X168733095Y-107923390D02*
X168161667Y-108494819D01*
X168161667Y-108494819D02*
X168780714Y-108494819D01*
X171283333Y-127454819D02*
X170950000Y-126978628D01*
X170711905Y-127454819D02*
X170711905Y-126454819D01*
X170711905Y-126454819D02*
X171092857Y-126454819D01*
X171092857Y-126454819D02*
X171188095Y-126502438D01*
X171188095Y-126502438D02*
X171235714Y-126550057D01*
X171235714Y-126550057D02*
X171283333Y-126645295D01*
X171283333Y-126645295D02*
X171283333Y-126788152D01*
X171283333Y-126788152D02*
X171235714Y-126883390D01*
X171235714Y-126883390D02*
X171188095Y-126931009D01*
X171188095Y-126931009D02*
X171092857Y-126978628D01*
X171092857Y-126978628D02*
X170711905Y-126978628D01*
X172140476Y-126454819D02*
X171950000Y-126454819D01*
X171950000Y-126454819D02*
X171854762Y-126502438D01*
X171854762Y-126502438D02*
X171807143Y-126550057D01*
X171807143Y-126550057D02*
X171711905Y-126692914D01*
X171711905Y-126692914D02*
X171664286Y-126883390D01*
X171664286Y-126883390D02*
X171664286Y-127264342D01*
X171664286Y-127264342D02*
X171711905Y-127359580D01*
X171711905Y-127359580D02*
X171759524Y-127407200D01*
X171759524Y-127407200D02*
X171854762Y-127454819D01*
X171854762Y-127454819D02*
X172045238Y-127454819D01*
X172045238Y-127454819D02*
X172140476Y-127407200D01*
X172140476Y-127407200D02*
X172188095Y-127359580D01*
X172188095Y-127359580D02*
X172235714Y-127264342D01*
X172235714Y-127264342D02*
X172235714Y-127026247D01*
X172235714Y-127026247D02*
X172188095Y-126931009D01*
X172188095Y-126931009D02*
X172140476Y-126883390D01*
X172140476Y-126883390D02*
X172045238Y-126835771D01*
X172045238Y-126835771D02*
X171854762Y-126835771D01*
X171854762Y-126835771D02*
X171759524Y-126883390D01*
X171759524Y-126883390D02*
X171711905Y-126931009D01*
X171711905Y-126931009D02*
X171664286Y-127026247D01*
X162333333Y-104359580D02*
X162285714Y-104407200D01*
X162285714Y-104407200D02*
X162142857Y-104454819D01*
X162142857Y-104454819D02*
X162047619Y-104454819D01*
X162047619Y-104454819D02*
X161904762Y-104407200D01*
X161904762Y-104407200D02*
X161809524Y-104311961D01*
X161809524Y-104311961D02*
X161761905Y-104216723D01*
X161761905Y-104216723D02*
X161714286Y-104026247D01*
X161714286Y-104026247D02*
X161714286Y-103883390D01*
X161714286Y-103883390D02*
X161761905Y-103692914D01*
X161761905Y-103692914D02*
X161809524Y-103597676D01*
X161809524Y-103597676D02*
X161904762Y-103502438D01*
X161904762Y-103502438D02*
X162047619Y-103454819D01*
X162047619Y-103454819D02*
X162142857Y-103454819D01*
X162142857Y-103454819D02*
X162285714Y-103502438D01*
X162285714Y-103502438D02*
X162333333Y-103550057D01*
X162666667Y-103454819D02*
X163285714Y-103454819D01*
X163285714Y-103454819D02*
X162952381Y-103835771D01*
X162952381Y-103835771D02*
X163095238Y-103835771D01*
X163095238Y-103835771D02*
X163190476Y-103883390D01*
X163190476Y-103883390D02*
X163238095Y-103931009D01*
X163238095Y-103931009D02*
X163285714Y-104026247D01*
X163285714Y-104026247D02*
X163285714Y-104264342D01*
X163285714Y-104264342D02*
X163238095Y-104359580D01*
X163238095Y-104359580D02*
X163190476Y-104407200D01*
X163190476Y-104407200D02*
X163095238Y-104454819D01*
X163095238Y-104454819D02*
X162809524Y-104454819D01*
X162809524Y-104454819D02*
X162714286Y-104407200D01*
X162714286Y-104407200D02*
X162666667Y-104359580D01*
D12*
%TO.C,L1*%
X147607500Y-89000000D02*
G75*
G02*
X138667500Y-89000000I-4470000J0D01*
G01*
X138667500Y-89000000D02*
G75*
G02*
X147607500Y-89000000I4470000J0D01*
G01*
%TO.C,C7*%
X152321651Y-137033000D02*
X152321651Y-135967000D01*
X152361651Y-137268000D02*
X152361651Y-135732000D01*
X152401651Y-137448000D02*
X152401651Y-135552000D01*
X152441651Y-137598000D02*
X152441651Y-135402000D01*
X152481651Y-137729000D02*
X152481651Y-135271000D01*
X152521651Y-137846000D02*
X152521651Y-135154000D01*
X152561651Y-137953000D02*
X152561651Y-135047000D01*
X152601651Y-138052000D02*
X152601651Y-134948000D01*
X152641651Y-138145000D02*
X152641651Y-134855000D01*
X152681651Y-138231000D02*
X152681651Y-134769000D01*
X152721651Y-138313000D02*
X152721651Y-134687000D01*
X152761651Y-138390000D02*
X152761651Y-134610000D01*
X152801651Y-138464000D02*
X152801651Y-134536000D01*
X152841651Y-138534000D02*
X152841651Y-134466000D01*
X152881651Y-138602000D02*
X152881651Y-134398000D01*
X152921651Y-138666000D02*
X152921651Y-134334000D01*
X152961651Y-138728000D02*
X152961651Y-134272000D01*
X153001651Y-138787000D02*
X153001651Y-134213000D01*
X153041651Y-138845000D02*
X153041651Y-134155000D01*
X153081651Y-138900000D02*
X153081651Y-134100000D01*
X153121651Y-138954000D02*
X153121651Y-134046000D01*
X153161651Y-139005000D02*
X153161651Y-133995000D01*
X153201651Y-139056000D02*
X153201651Y-133944000D01*
X153241651Y-139104000D02*
X153241651Y-133896000D01*
X153281651Y-139151000D02*
X153281651Y-133849000D01*
X153321651Y-139197000D02*
X153321651Y-133803000D01*
X153361651Y-139241000D02*
X153361651Y-133759000D01*
X153401651Y-139284000D02*
X153401651Y-133716000D01*
X153441651Y-139326000D02*
X153441651Y-133674000D01*
X153481651Y-139367000D02*
X153481651Y-133633000D01*
X153521651Y-139407000D02*
X153521651Y-133593000D01*
X153561651Y-139445000D02*
X153561651Y-133555000D01*
X153601651Y-139483000D02*
X153601651Y-133517000D01*
X153641651Y-135460000D02*
X153641651Y-133481000D01*
X153641651Y-139519000D02*
X153641651Y-137540000D01*
X153681651Y-135460000D02*
X153681651Y-133445000D01*
X153681651Y-139555000D02*
X153681651Y-137540000D01*
X153721651Y-135460000D02*
X153721651Y-133410000D01*
X153721651Y-139590000D02*
X153721651Y-137540000D01*
X153761651Y-135460000D02*
X153761651Y-133376000D01*
X153761651Y-139624000D02*
X153761651Y-137540000D01*
X153801651Y-135460000D02*
X153801651Y-133344000D01*
X153801651Y-139656000D02*
X153801651Y-137540000D01*
X153841651Y-135460000D02*
X153841651Y-133311000D01*
X153841651Y-139689000D02*
X153841651Y-137540000D01*
X153881651Y-135460000D02*
X153881651Y-133280000D01*
X153881651Y-139720000D02*
X153881651Y-137540000D01*
X153921651Y-135460000D02*
X153921651Y-133250000D01*
X153921651Y-139750000D02*
X153921651Y-137540000D01*
X153961651Y-135460000D02*
X153961651Y-133220000D01*
X153961651Y-139780000D02*
X153961651Y-137540000D01*
X154001651Y-135460000D02*
X154001651Y-133191000D01*
X154001651Y-139809000D02*
X154001651Y-137540000D01*
X154041651Y-135460000D02*
X154041651Y-133162000D01*
X154041651Y-139838000D02*
X154041651Y-137540000D01*
X154081651Y-135460000D02*
X154081651Y-133135000D01*
X154081651Y-139865000D02*
X154081651Y-137540000D01*
X154121651Y-135460000D02*
X154121651Y-133108000D01*
X154121651Y-139892000D02*
X154121651Y-137540000D01*
X154161651Y-135460000D02*
X154161651Y-133082000D01*
X154161651Y-139918000D02*
X154161651Y-137540000D01*
X154201651Y-135460000D02*
X154201651Y-133056000D01*
X154201651Y-139944000D02*
X154201651Y-137540000D01*
X154241651Y-135460000D02*
X154241651Y-133031000D01*
X154241651Y-139969000D02*
X154241651Y-137540000D01*
X154281651Y-135460000D02*
X154281651Y-133007000D01*
X154281651Y-139993000D02*
X154281651Y-137540000D01*
X154321651Y-135460000D02*
X154321651Y-132983000D01*
X154321651Y-140017000D02*
X154321651Y-137540000D01*
X154361651Y-135460000D02*
X154361651Y-132960000D01*
X154361651Y-140040000D02*
X154361651Y-137540000D01*
X154401651Y-135460000D02*
X154401651Y-132938000D01*
X154401651Y-140062000D02*
X154401651Y-137540000D01*
X154441651Y-135460000D02*
X154441651Y-132916000D01*
X154441651Y-140084000D02*
X154441651Y-137540000D01*
X154481651Y-135460000D02*
X154481651Y-132894000D01*
X154481651Y-140106000D02*
X154481651Y-137540000D01*
X154521651Y-135460000D02*
X154521651Y-132873000D01*
X154521651Y-140127000D02*
X154521651Y-137540000D01*
X154561651Y-135460000D02*
X154561651Y-132853000D01*
X154561651Y-140147000D02*
X154561651Y-137540000D01*
X154601651Y-135460000D02*
X154601651Y-132834000D01*
X154601651Y-140166000D02*
X154601651Y-137540000D01*
X154641651Y-135460000D02*
X154641651Y-132814000D01*
X154641651Y-140186000D02*
X154641651Y-137540000D01*
X154681651Y-135460000D02*
X154681651Y-132796000D01*
X154681651Y-140204000D02*
X154681651Y-137540000D01*
X154721651Y-135460000D02*
X154721651Y-132778000D01*
X154721651Y-140222000D02*
X154721651Y-137540000D01*
X154761651Y-135460000D02*
X154761651Y-132760000D01*
X154761651Y-140240000D02*
X154761651Y-137540000D01*
X154801651Y-135460000D02*
X154801651Y-132743000D01*
X154801651Y-140257000D02*
X154801651Y-137540000D01*
X154841651Y-135460000D02*
X154841651Y-132726000D01*
X154841651Y-140274000D02*
X154841651Y-137540000D01*
X154881651Y-135460000D02*
X154881651Y-132710000D01*
X154881651Y-140290000D02*
X154881651Y-137540000D01*
X154921651Y-135460000D02*
X154921651Y-132695000D01*
X154921651Y-140305000D02*
X154921651Y-137540000D01*
X154961651Y-135460000D02*
X154961651Y-132679000D01*
X154961651Y-140321000D02*
X154961651Y-137540000D01*
X155001651Y-135460000D02*
X155001651Y-132665000D01*
X155001651Y-140335000D02*
X155001651Y-137540000D01*
X155041651Y-135460000D02*
X155041651Y-132650000D01*
X155041651Y-140350000D02*
X155041651Y-137540000D01*
X155081651Y-135460000D02*
X155081651Y-132637000D01*
X155081651Y-140363000D02*
X155081651Y-137540000D01*
X155121651Y-135460000D02*
X155121651Y-132623000D01*
X155121651Y-140377000D02*
X155121651Y-137540000D01*
X155161651Y-135460000D02*
X155161651Y-132611000D01*
X155161651Y-140389000D02*
X155161651Y-137540000D01*
X155201651Y-135460000D02*
X155201651Y-132598000D01*
X155201651Y-140402000D02*
X155201651Y-137540000D01*
X155241651Y-135460000D02*
X155241651Y-132586000D01*
X155241651Y-140414000D02*
X155241651Y-137540000D01*
X155281651Y-135460000D02*
X155281651Y-132575000D01*
X155281651Y-140425000D02*
X155281651Y-137540000D01*
X155321651Y-135460000D02*
X155321651Y-132564000D01*
X155321651Y-140436000D02*
X155321651Y-137540000D01*
X155361651Y-135460000D02*
X155361651Y-132553000D01*
X155361651Y-140447000D02*
X155361651Y-137540000D01*
X155401651Y-135460000D02*
X155401651Y-132543000D01*
X155401651Y-140457000D02*
X155401651Y-137540000D01*
X155441651Y-135460000D02*
X155441651Y-132533000D01*
X155441651Y-140467000D02*
X155441651Y-137540000D01*
X155481651Y-135460000D02*
X155481651Y-132524000D01*
X155481651Y-140476000D02*
X155481651Y-137540000D01*
X155521651Y-135460000D02*
X155521651Y-132515000D01*
X155521651Y-140485000D02*
X155521651Y-137540000D01*
X155561651Y-135460000D02*
X155561651Y-132506000D01*
X155561651Y-140494000D02*
X155561651Y-137540000D01*
X155601651Y-135460000D02*
X155601651Y-132498000D01*
X155601651Y-140502000D02*
X155601651Y-137540000D01*
X155641651Y-135460000D02*
X155641651Y-132490000D01*
X155641651Y-140510000D02*
X155641651Y-137540000D01*
X155681651Y-135460000D02*
X155681651Y-132483000D01*
X155681651Y-140517000D02*
X155681651Y-137540000D01*
X155722651Y-140524000D02*
X155722651Y-132476000D01*
X155762651Y-140530000D02*
X155762651Y-132470000D01*
X155802651Y-140537000D02*
X155802651Y-132463000D01*
X155842651Y-140542000D02*
X155842651Y-132458000D01*
X155882651Y-140548000D02*
X155882651Y-132452000D01*
X155922651Y-140552000D02*
X155922651Y-132448000D01*
X155962651Y-140557000D02*
X155962651Y-132443000D01*
X156002651Y-140561000D02*
X156002651Y-132439000D01*
X156042651Y-140565000D02*
X156042651Y-132435000D01*
X156082651Y-140568000D02*
X156082651Y-132432000D01*
X156122651Y-140571000D02*
X156122651Y-132429000D01*
X156162651Y-140574000D02*
X156162651Y-132426000D01*
X156202651Y-140576000D02*
X156202651Y-132424000D01*
X156242651Y-140577000D02*
X156242651Y-132423000D01*
X156282651Y-140579000D02*
X156282651Y-132421000D01*
X156322651Y-140580000D02*
X156322651Y-132420000D01*
X156362651Y-140580000D02*
X156362651Y-132420000D01*
X156402651Y-140580000D02*
X156402651Y-132420000D01*
X160412349Y-139215000D02*
X160412349Y-138415000D01*
X160812349Y-138815000D02*
X160012349Y-138815000D01*
X160522651Y-136500000D02*
G75*
G02*
X152282651Y-136500000I-4120000J0D01*
G01*
X152282651Y-136500000D02*
G75*
G02*
X160522651Y-136500000I4120000J0D01*
G01*
%TO.C,JP2*%
X139000000Y-139350000D02*
X139000000Y-137950000D01*
X139700000Y-137250000D02*
X140300000Y-137250000D01*
X140300000Y-140050000D02*
X139700000Y-140050000D01*
X141000000Y-137950000D02*
X141000000Y-139350000D01*
X139000000Y-137950000D02*
G75*
G02*
X139700000Y-137250000I700000J0D01*
G01*
X139700000Y-140050000D02*
G75*
G02*
X139000000Y-139350000I-1J699999D01*
G01*
X140300000Y-137250000D02*
G75*
G02*
X141000000Y-137950000I0J-700000D01*
G01*
X141000000Y-139350000D02*
G75*
G02*
X140300000Y-140050000I-699999J-1D01*
G01*
%TO.C,Rsc1*%
X135267500Y-92230000D02*
X135267500Y-98770000D01*
X135267500Y-98770000D02*
X138007500Y-98770000D01*
X136637500Y-91460000D02*
X136637500Y-92230000D01*
X136637500Y-99540000D02*
X136637500Y-98770000D01*
X138007500Y-92230000D02*
X135267500Y-92230000D01*
X138007500Y-98770000D02*
X138007500Y-92230000D01*
%TO.C,J1*%
X167395000Y-137330000D02*
X167395000Y-136000000D01*
X168725000Y-137330000D02*
X167395000Y-137330000D01*
X169995000Y-134670000D02*
X172595000Y-134670000D01*
X169995000Y-137330000D02*
X169995000Y-134670000D01*
X169995000Y-137330000D02*
X172595000Y-137330000D01*
X172595000Y-137330000D02*
X172595000Y-134670000D01*
%TO.C,C2*%
X152828880Y-105402000D02*
X152828880Y-104598000D01*
X152868880Y-105633000D02*
X152868880Y-104367000D01*
X152908880Y-105802000D02*
X152908880Y-104198000D01*
X152948880Y-105940000D02*
X152948880Y-104060000D01*
X152988880Y-106059000D02*
X152988880Y-103941000D01*
X153028880Y-106165000D02*
X153028880Y-103835000D01*
X153068880Y-106262000D02*
X153068880Y-103738000D01*
X153108880Y-106350000D02*
X153108880Y-103650000D01*
X153148880Y-106432000D02*
X153148880Y-103568000D01*
X153188880Y-106509000D02*
X153188880Y-103491000D01*
X153228880Y-106581000D02*
X153228880Y-103419000D01*
X153268880Y-106650000D02*
X153268880Y-103350000D01*
X153308880Y-106714000D02*
X153308880Y-103286000D01*
X153348880Y-106776000D02*
X153348880Y-103224000D01*
X153388880Y-106834000D02*
X153388880Y-103166000D01*
X153428880Y-106890000D02*
X153428880Y-103110000D01*
X153468880Y-106944000D02*
X153468880Y-103056000D01*
X153508880Y-106995000D02*
X153508880Y-103005000D01*
X153548880Y-107044000D02*
X153548880Y-102956000D01*
X153588880Y-107092000D02*
X153588880Y-102908000D01*
X153628880Y-107137000D02*
X153628880Y-102863000D01*
X153668880Y-107182000D02*
X153668880Y-102818000D01*
X153708880Y-107224000D02*
X153708880Y-102776000D01*
X153748880Y-107265000D02*
X153748880Y-102735000D01*
X153788880Y-103960000D02*
X153788880Y-102695000D01*
X153788880Y-107305000D02*
X153788880Y-106040000D01*
X153828880Y-103960000D02*
X153828880Y-102657000D01*
X153828880Y-107343000D02*
X153828880Y-106040000D01*
X153868880Y-103960000D02*
X153868880Y-102620000D01*
X153868880Y-107380000D02*
X153868880Y-106040000D01*
X153908880Y-103960000D02*
X153908880Y-102584000D01*
X153908880Y-107416000D02*
X153908880Y-106040000D01*
X153948880Y-103960000D02*
X153948880Y-102550000D01*
X153948880Y-107450000D02*
X153948880Y-106040000D01*
X153988880Y-103960000D02*
X153988880Y-102516000D01*
X153988880Y-107484000D02*
X153988880Y-106040000D01*
X154028880Y-103960000D02*
X154028880Y-102484000D01*
X154028880Y-107516000D02*
X154028880Y-106040000D01*
X154068880Y-103960000D02*
X154068880Y-102452000D01*
X154068880Y-107548000D02*
X154068880Y-106040000D01*
X154108880Y-103960000D02*
X154108880Y-102422000D01*
X154108880Y-107578000D02*
X154108880Y-106040000D01*
X154148880Y-103960000D02*
X154148880Y-102393000D01*
X154148880Y-107607000D02*
X154148880Y-106040000D01*
X154188880Y-103960000D02*
X154188880Y-102364000D01*
X154188880Y-107636000D02*
X154188880Y-106040000D01*
X154228880Y-103960000D02*
X154228880Y-102336000D01*
X154228880Y-107664000D02*
X154228880Y-106040000D01*
X154268880Y-103960000D02*
X154268880Y-102310000D01*
X154268880Y-107690000D02*
X154268880Y-106040000D01*
X154308880Y-103960000D02*
X154308880Y-102284000D01*
X154308880Y-107716000D02*
X154308880Y-106040000D01*
X154348880Y-103960000D02*
X154348880Y-102258000D01*
X154348880Y-107742000D02*
X154348880Y-106040000D01*
X154388880Y-103960000D02*
X154388880Y-102234000D01*
X154388880Y-107766000D02*
X154388880Y-106040000D01*
X154428880Y-103960000D02*
X154428880Y-102210000D01*
X154428880Y-107790000D02*
X154428880Y-106040000D01*
X154468880Y-103960000D02*
X154468880Y-102188000D01*
X154468880Y-107812000D02*
X154468880Y-106040000D01*
X154508880Y-103960000D02*
X154508880Y-102166000D01*
X154508880Y-107834000D02*
X154508880Y-106040000D01*
X154548880Y-103960000D02*
X154548880Y-102144000D01*
X154548880Y-107856000D02*
X154548880Y-106040000D01*
X154588880Y-103960000D02*
X154588880Y-102124000D01*
X154588880Y-107876000D02*
X154588880Y-106040000D01*
X154628880Y-103960000D02*
X154628880Y-102104000D01*
X154628880Y-107896000D02*
X154628880Y-106040000D01*
X154668880Y-103960000D02*
X154668880Y-102084000D01*
X154668880Y-107916000D02*
X154668880Y-106040000D01*
X154708880Y-103960000D02*
X154708880Y-102066000D01*
X154708880Y-107934000D02*
X154708880Y-106040000D01*
X154748880Y-103960000D02*
X154748880Y-102048000D01*
X154748880Y-107952000D02*
X154748880Y-106040000D01*
X154788880Y-103960000D02*
X154788880Y-102030000D01*
X154788880Y-107970000D02*
X154788880Y-106040000D01*
X154828880Y-103960000D02*
X154828880Y-102014000D01*
X154828880Y-107986000D02*
X154828880Y-106040000D01*
X154868880Y-103960000D02*
X154868880Y-101998000D01*
X154868880Y-108002000D02*
X154868880Y-106040000D01*
X154908880Y-103960000D02*
X154908880Y-101982000D01*
X154908880Y-108018000D02*
X154908880Y-106040000D01*
X154948880Y-103960000D02*
X154948880Y-101967000D01*
X154948880Y-108033000D02*
X154948880Y-106040000D01*
X154988880Y-103960000D02*
X154988880Y-101953000D01*
X154988880Y-108047000D02*
X154988880Y-106040000D01*
X155028880Y-103960000D02*
X155028880Y-101939000D01*
X155028880Y-108061000D02*
X155028880Y-106040000D01*
X155068880Y-103960000D02*
X155068880Y-101926000D01*
X155068880Y-108074000D02*
X155068880Y-106040000D01*
X155108880Y-103960000D02*
X155108880Y-101914000D01*
X155108880Y-108086000D02*
X155108880Y-106040000D01*
X155148880Y-103960000D02*
X155148880Y-101902000D01*
X155148880Y-108098000D02*
X155148880Y-106040000D01*
X155188880Y-103960000D02*
X155188880Y-101890000D01*
X155188880Y-108110000D02*
X155188880Y-106040000D01*
X155228880Y-103960000D02*
X155228880Y-101879000D01*
X155228880Y-108121000D02*
X155228880Y-106040000D01*
X155268880Y-103960000D02*
X155268880Y-101869000D01*
X155268880Y-108131000D02*
X155268880Y-106040000D01*
X155308880Y-103960000D02*
X155308880Y-101859000D01*
X155308880Y-108141000D02*
X155308880Y-106040000D01*
X155348880Y-103960000D02*
X155348880Y-101850000D01*
X155348880Y-108150000D02*
X155348880Y-106040000D01*
X155389880Y-103960000D02*
X155389880Y-101841000D01*
X155389880Y-108159000D02*
X155389880Y-106040000D01*
X155429880Y-103960000D02*
X155429880Y-101833000D01*
X155429880Y-108167000D02*
X155429880Y-106040000D01*
X155469880Y-103960000D02*
X155469880Y-101825000D01*
X155469880Y-108175000D02*
X155469880Y-106040000D01*
X155509880Y-103960000D02*
X155509880Y-101818000D01*
X155509880Y-108182000D02*
X155509880Y-106040000D01*
X155549880Y-103960000D02*
X155549880Y-101811000D01*
X155549880Y-108189000D02*
X155549880Y-106040000D01*
X155589880Y-103960000D02*
X155589880Y-101805000D01*
X155589880Y-108195000D02*
X155589880Y-106040000D01*
X155629880Y-103960000D02*
X155629880Y-101799000D01*
X155629880Y-108201000D02*
X155629880Y-106040000D01*
X155669880Y-103960000D02*
X155669880Y-101794000D01*
X155669880Y-108206000D02*
X155669880Y-106040000D01*
X155709880Y-103960000D02*
X155709880Y-101789000D01*
X155709880Y-108211000D02*
X155709880Y-106040000D01*
X155749880Y-103960000D02*
X155749880Y-101785000D01*
X155749880Y-108215000D02*
X155749880Y-106040000D01*
X155789880Y-103960000D02*
X155789880Y-101782000D01*
X155789880Y-108218000D02*
X155789880Y-106040000D01*
X155829880Y-103960000D02*
X155829880Y-101778000D01*
X155829880Y-108222000D02*
X155829880Y-106040000D01*
X155869880Y-108224000D02*
X155869880Y-101776000D01*
X155909880Y-108227000D02*
X155909880Y-101773000D01*
X155949880Y-108228000D02*
X155949880Y-101772000D01*
X155989880Y-108230000D02*
X155989880Y-101770000D01*
X156029880Y-108230000D02*
X156029880Y-101770000D01*
X156069880Y-108230000D02*
X156069880Y-101770000D01*
X159255121Y-107154000D02*
X159255121Y-106524000D01*
X159570121Y-106839000D02*
X158940121Y-106839000D01*
X159339880Y-105000000D02*
G75*
G02*
X152799880Y-105000000I-3270000J0D01*
G01*
X152799880Y-105000000D02*
G75*
G02*
X159339880Y-105000000I3270000J0D01*
G01*
%TO.C,BT1*%
X84230000Y-83080000D02*
X84230000Y-141320000D01*
X130150000Y-82700000D02*
X133150000Y-82700000D01*
X132770000Y-83080000D02*
X84230000Y-83080000D01*
X132770000Y-83080000D02*
X132770000Y-141320000D01*
X132770000Y-141320000D02*
X84230000Y-141320000D01*
X133150000Y-82700000D02*
X133150000Y-85700000D01*
%TO.C,C5*%
X138300000Y-121469000D02*
X138300000Y-122135000D01*
X138300000Y-121469000D02*
X143640000Y-121469000D01*
X138300000Y-124245000D02*
X138300000Y-124911000D01*
X138300000Y-124911000D02*
X143640000Y-124911000D01*
X143640000Y-121469000D02*
X143640000Y-122135000D01*
X143640000Y-124245000D02*
X143640000Y-124911000D01*
%TO.C,R5*%
X159790000Y-123190000D02*
X160560000Y-123190000D01*
X160560000Y-121820000D02*
X160560000Y-124560000D01*
X160560000Y-124560000D02*
X167100000Y-124560000D01*
X167100000Y-121820000D02*
X160560000Y-121820000D01*
X167100000Y-124560000D02*
X167100000Y-121820000D01*
X167870000Y-123190000D02*
X167100000Y-123190000D01*
%TO.C,U2*%
X148485000Y-118050000D02*
X148485000Y-128330000D01*
X148485000Y-128330000D02*
X153785000Y-128330000D01*
X150135000Y-118050000D02*
X148485000Y-118050000D01*
X153785000Y-118050000D02*
X152135000Y-118050000D01*
X153785000Y-128330000D02*
X153785000Y-118050000D01*
X152135000Y-118050000D02*
G75*
G02*
X150135000Y-118050000I-1000000J0D01*
G01*
%TO.C,R1*%
X149097500Y-84500000D02*
X149867500Y-84500000D01*
X149867500Y-83130000D02*
X149867500Y-85870000D01*
X149867500Y-85870000D02*
X156407500Y-85870000D01*
X156407500Y-83130000D02*
X149867500Y-83130000D01*
X156407500Y-85870000D02*
X156407500Y-83130000D01*
X157177500Y-84500000D02*
X156407500Y-84500000D01*
%TO.C,C4*%
X136889000Y-117373000D02*
X136889000Y-116307000D01*
X136929000Y-117608000D02*
X136929000Y-116072000D01*
X136969000Y-117788000D02*
X136969000Y-115892000D01*
X137009000Y-117938000D02*
X137009000Y-115742000D01*
X137049000Y-118069000D02*
X137049000Y-115611000D01*
X137089000Y-118186000D02*
X137089000Y-115494000D01*
X137129000Y-118293000D02*
X137129000Y-115387000D01*
X137169000Y-118392000D02*
X137169000Y-115288000D01*
X137209000Y-118485000D02*
X137209000Y-115195000D01*
X137249000Y-118571000D02*
X137249000Y-115109000D01*
X137289000Y-118653000D02*
X137289000Y-115027000D01*
X137329000Y-118730000D02*
X137329000Y-114950000D01*
X137369000Y-118804000D02*
X137369000Y-114876000D01*
X137409000Y-118874000D02*
X137409000Y-114806000D01*
X137449000Y-118942000D02*
X137449000Y-114738000D01*
X137489000Y-119006000D02*
X137489000Y-114674000D01*
X137529000Y-119068000D02*
X137529000Y-114612000D01*
X137569000Y-119127000D02*
X137569000Y-114553000D01*
X137609000Y-119185000D02*
X137609000Y-114495000D01*
X137649000Y-119240000D02*
X137649000Y-114440000D01*
X137689000Y-119294000D02*
X137689000Y-114386000D01*
X137729000Y-119345000D02*
X137729000Y-114335000D01*
X137769000Y-119396000D02*
X137769000Y-114284000D01*
X137809000Y-119444000D02*
X137809000Y-114236000D01*
X137849000Y-119491000D02*
X137849000Y-114189000D01*
X137889000Y-119537000D02*
X137889000Y-114143000D01*
X137929000Y-119581000D02*
X137929000Y-114099000D01*
X137969000Y-119624000D02*
X137969000Y-114056000D01*
X138009000Y-119666000D02*
X138009000Y-114014000D01*
X138049000Y-119707000D02*
X138049000Y-113973000D01*
X138089000Y-119747000D02*
X138089000Y-113933000D01*
X138129000Y-119785000D02*
X138129000Y-113895000D01*
X138169000Y-119823000D02*
X138169000Y-113857000D01*
X138209000Y-115800000D02*
X138209000Y-113821000D01*
X138209000Y-119859000D02*
X138209000Y-117880000D01*
X138249000Y-115800000D02*
X138249000Y-113785000D01*
X138249000Y-119895000D02*
X138249000Y-117880000D01*
X138289000Y-115800000D02*
X138289000Y-113750000D01*
X138289000Y-119930000D02*
X138289000Y-117880000D01*
X138329000Y-115800000D02*
X138329000Y-113716000D01*
X138329000Y-119964000D02*
X138329000Y-117880000D01*
X138369000Y-115800000D02*
X138369000Y-113684000D01*
X138369000Y-119996000D02*
X138369000Y-117880000D01*
X138409000Y-115800000D02*
X138409000Y-113651000D01*
X138409000Y-120029000D02*
X138409000Y-117880000D01*
X138449000Y-115800000D02*
X138449000Y-113620000D01*
X138449000Y-120060000D02*
X138449000Y-117880000D01*
X138489000Y-115800000D02*
X138489000Y-113590000D01*
X138489000Y-120090000D02*
X138489000Y-117880000D01*
X138529000Y-115800000D02*
X138529000Y-113560000D01*
X138529000Y-120120000D02*
X138529000Y-117880000D01*
X138569000Y-115800000D02*
X138569000Y-113531000D01*
X138569000Y-120149000D02*
X138569000Y-117880000D01*
X138609000Y-115800000D02*
X138609000Y-113502000D01*
X138609000Y-120178000D02*
X138609000Y-117880000D01*
X138649000Y-115800000D02*
X138649000Y-113475000D01*
X138649000Y-120205000D02*
X138649000Y-117880000D01*
X138689000Y-115800000D02*
X138689000Y-113448000D01*
X138689000Y-120232000D02*
X138689000Y-117880000D01*
X138729000Y-115800000D02*
X138729000Y-113422000D01*
X138729000Y-120258000D02*
X138729000Y-117880000D01*
X138769000Y-115800000D02*
X138769000Y-113396000D01*
X138769000Y-120284000D02*
X138769000Y-117880000D01*
X138809000Y-115800000D02*
X138809000Y-113371000D01*
X138809000Y-120309000D02*
X138809000Y-117880000D01*
X138849000Y-115800000D02*
X138849000Y-113347000D01*
X138849000Y-120333000D02*
X138849000Y-117880000D01*
X138889000Y-115800000D02*
X138889000Y-113323000D01*
X138889000Y-120357000D02*
X138889000Y-117880000D01*
X138929000Y-115800000D02*
X138929000Y-113300000D01*
X138929000Y-120380000D02*
X138929000Y-117880000D01*
X138969000Y-115800000D02*
X138969000Y-113278000D01*
X138969000Y-120402000D02*
X138969000Y-117880000D01*
X139009000Y-115800000D02*
X139009000Y-113256000D01*
X139009000Y-120424000D02*
X139009000Y-117880000D01*
X139049000Y-115800000D02*
X139049000Y-113234000D01*
X139049000Y-120446000D02*
X139049000Y-117880000D01*
X139089000Y-115800000D02*
X139089000Y-113213000D01*
X139089000Y-120467000D02*
X139089000Y-117880000D01*
X139129000Y-115800000D02*
X139129000Y-113193000D01*
X139129000Y-120487000D02*
X139129000Y-117880000D01*
X139169000Y-115800000D02*
X139169000Y-113174000D01*
X139169000Y-120506000D02*
X139169000Y-117880000D01*
X139209000Y-115800000D02*
X139209000Y-113154000D01*
X139209000Y-120526000D02*
X139209000Y-117880000D01*
X139249000Y-115800000D02*
X139249000Y-113136000D01*
X139249000Y-120544000D02*
X139249000Y-117880000D01*
X139289000Y-115800000D02*
X139289000Y-113118000D01*
X139289000Y-120562000D02*
X139289000Y-117880000D01*
X139329000Y-115800000D02*
X139329000Y-113100000D01*
X139329000Y-120580000D02*
X139329000Y-117880000D01*
X139369000Y-115800000D02*
X139369000Y-113083000D01*
X139369000Y-120597000D02*
X139369000Y-117880000D01*
X139409000Y-115800000D02*
X139409000Y-113066000D01*
X139409000Y-120614000D02*
X139409000Y-117880000D01*
X139449000Y-115800000D02*
X139449000Y-113050000D01*
X139449000Y-120630000D02*
X139449000Y-117880000D01*
X139489000Y-115800000D02*
X139489000Y-113035000D01*
X139489000Y-120645000D02*
X139489000Y-117880000D01*
X139529000Y-115800000D02*
X139529000Y-113019000D01*
X139529000Y-120661000D02*
X139529000Y-117880000D01*
X139569000Y-115800000D02*
X139569000Y-113005000D01*
X139569000Y-120675000D02*
X139569000Y-117880000D01*
X139609000Y-115800000D02*
X139609000Y-112990000D01*
X139609000Y-120690000D02*
X139609000Y-117880000D01*
X139649000Y-115800000D02*
X139649000Y-112977000D01*
X139649000Y-120703000D02*
X139649000Y-117880000D01*
X139689000Y-115800000D02*
X139689000Y-112963000D01*
X139689000Y-120717000D02*
X139689000Y-117880000D01*
X139729000Y-115800000D02*
X139729000Y-112951000D01*
X139729000Y-120729000D02*
X139729000Y-117880000D01*
X139769000Y-115800000D02*
X139769000Y-112938000D01*
X139769000Y-120742000D02*
X139769000Y-117880000D01*
X139809000Y-115800000D02*
X139809000Y-112926000D01*
X139809000Y-120754000D02*
X139809000Y-117880000D01*
X139849000Y-115800000D02*
X139849000Y-112915000D01*
X139849000Y-120765000D02*
X139849000Y-117880000D01*
X139889000Y-115800000D02*
X139889000Y-112904000D01*
X139889000Y-120776000D02*
X139889000Y-117880000D01*
X139929000Y-115800000D02*
X139929000Y-112893000D01*
X139929000Y-120787000D02*
X139929000Y-117880000D01*
X139969000Y-115800000D02*
X139969000Y-112883000D01*
X139969000Y-120797000D02*
X139969000Y-117880000D01*
X140009000Y-115800000D02*
X140009000Y-112873000D01*
X140009000Y-120807000D02*
X140009000Y-117880000D01*
X140049000Y-115800000D02*
X140049000Y-112864000D01*
X140049000Y-120816000D02*
X140049000Y-117880000D01*
X140089000Y-115800000D02*
X140089000Y-112855000D01*
X140089000Y-120825000D02*
X140089000Y-117880000D01*
X140129000Y-115800000D02*
X140129000Y-112846000D01*
X140129000Y-120834000D02*
X140129000Y-117880000D01*
X140169000Y-115800000D02*
X140169000Y-112838000D01*
X140169000Y-120842000D02*
X140169000Y-117880000D01*
X140209000Y-115800000D02*
X140209000Y-112830000D01*
X140209000Y-120850000D02*
X140209000Y-117880000D01*
X140249000Y-115800000D02*
X140249000Y-112823000D01*
X140249000Y-120857000D02*
X140249000Y-117880000D01*
X140290000Y-120864000D02*
X140290000Y-112816000D01*
X140330000Y-120870000D02*
X140330000Y-112810000D01*
X140370000Y-120877000D02*
X140370000Y-112803000D01*
X140410000Y-120882000D02*
X140410000Y-112798000D01*
X140450000Y-120888000D02*
X140450000Y-112792000D01*
X140490000Y-120892000D02*
X140490000Y-112788000D01*
X140530000Y-120897000D02*
X140530000Y-112783000D01*
X140570000Y-120901000D02*
X140570000Y-112779000D01*
X140610000Y-120905000D02*
X140610000Y-112775000D01*
X140650000Y-120908000D02*
X140650000Y-112772000D01*
X140690000Y-120911000D02*
X140690000Y-112769000D01*
X140730000Y-120914000D02*
X140730000Y-112766000D01*
X140770000Y-120916000D02*
X140770000Y-112764000D01*
X140810000Y-120917000D02*
X140810000Y-112763000D01*
X140850000Y-120919000D02*
X140850000Y-112761000D01*
X140890000Y-120920000D02*
X140890000Y-112760000D01*
X140930000Y-120920000D02*
X140930000Y-112760000D01*
X140970000Y-120920000D02*
X140970000Y-112760000D01*
X144979698Y-119555000D02*
X144979698Y-118755000D01*
X145379698Y-119155000D02*
X144579698Y-119155000D01*
X145090000Y-116840000D02*
G75*
G02*
X136850000Y-116840000I-4120000J0D01*
G01*
X136850000Y-116840000D02*
G75*
G02*
X145090000Y-116840000I4120000J0D01*
G01*
%TO.C,R2*%
X159267500Y-92230000D02*
X159267500Y-98770000D01*
X159267500Y-98770000D02*
X162007500Y-98770000D01*
X160637500Y-91460000D02*
X160637500Y-92230000D01*
X160637500Y-99540000D02*
X160637500Y-98770000D01*
X162007500Y-92230000D02*
X159267500Y-92230000D01*
X162007500Y-98770000D02*
X162007500Y-92230000D01*
%TO.C,C1*%
X138704880Y-99661000D02*
X139334880Y-99661000D01*
X139019880Y-99346000D02*
X139019880Y-99976000D01*
X142205121Y-98270000D02*
X142205121Y-104730000D01*
X142245121Y-98270000D02*
X142245121Y-104730000D01*
X142285121Y-98270000D02*
X142285121Y-104730000D01*
X142325121Y-98272000D02*
X142325121Y-104728000D01*
X142365121Y-98273000D02*
X142365121Y-104727000D01*
X142405121Y-98276000D02*
X142405121Y-104724000D01*
X142445121Y-98278000D02*
X142445121Y-100460000D01*
X142445121Y-102540000D02*
X142445121Y-104722000D01*
X142485121Y-98282000D02*
X142485121Y-100460000D01*
X142485121Y-102540000D02*
X142485121Y-104718000D01*
X142525121Y-98285000D02*
X142525121Y-100460000D01*
X142525121Y-102540000D02*
X142525121Y-104715000D01*
X142565121Y-98289000D02*
X142565121Y-100460000D01*
X142565121Y-102540000D02*
X142565121Y-104711000D01*
X142605121Y-98294000D02*
X142605121Y-100460000D01*
X142605121Y-102540000D02*
X142605121Y-104706000D01*
X142645121Y-98299000D02*
X142645121Y-100460000D01*
X142645121Y-102540000D02*
X142645121Y-104701000D01*
X142685121Y-98305000D02*
X142685121Y-100460000D01*
X142685121Y-102540000D02*
X142685121Y-104695000D01*
X142725121Y-98311000D02*
X142725121Y-100460000D01*
X142725121Y-102540000D02*
X142725121Y-104689000D01*
X142765121Y-98318000D02*
X142765121Y-100460000D01*
X142765121Y-102540000D02*
X142765121Y-104682000D01*
X142805121Y-98325000D02*
X142805121Y-100460000D01*
X142805121Y-102540000D02*
X142805121Y-104675000D01*
X142845121Y-98333000D02*
X142845121Y-100460000D01*
X142845121Y-102540000D02*
X142845121Y-104667000D01*
X142885121Y-98341000D02*
X142885121Y-100460000D01*
X142885121Y-102540000D02*
X142885121Y-104659000D01*
X142926121Y-98350000D02*
X142926121Y-100460000D01*
X142926121Y-102540000D02*
X142926121Y-104650000D01*
X142966121Y-98359000D02*
X142966121Y-100460000D01*
X142966121Y-102540000D02*
X142966121Y-104641000D01*
X143006121Y-98369000D02*
X143006121Y-100460000D01*
X143006121Y-102540000D02*
X143006121Y-104631000D01*
X143046121Y-98379000D02*
X143046121Y-100460000D01*
X143046121Y-102540000D02*
X143046121Y-104621000D01*
X143086121Y-98390000D02*
X143086121Y-100460000D01*
X143086121Y-102540000D02*
X143086121Y-104610000D01*
X143126121Y-98402000D02*
X143126121Y-100460000D01*
X143126121Y-102540000D02*
X143126121Y-104598000D01*
X143166121Y-98414000D02*
X143166121Y-100460000D01*
X143166121Y-102540000D02*
X143166121Y-104586000D01*
X143206121Y-98426000D02*
X143206121Y-100460000D01*
X143206121Y-102540000D02*
X143206121Y-104574000D01*
X143246121Y-98439000D02*
X143246121Y-100460000D01*
X143246121Y-102540000D02*
X143246121Y-104561000D01*
X143286121Y-98453000D02*
X143286121Y-100460000D01*
X143286121Y-102540000D02*
X143286121Y-104547000D01*
X143326121Y-98467000D02*
X143326121Y-100460000D01*
X143326121Y-102540000D02*
X143326121Y-104533000D01*
X143366121Y-98482000D02*
X143366121Y-100460000D01*
X143366121Y-102540000D02*
X143366121Y-104518000D01*
X143406121Y-98498000D02*
X143406121Y-100460000D01*
X143406121Y-102540000D02*
X143406121Y-104502000D01*
X143446121Y-98514000D02*
X143446121Y-100460000D01*
X143446121Y-102540000D02*
X143446121Y-104486000D01*
X143486121Y-98530000D02*
X143486121Y-100460000D01*
X143486121Y-102540000D02*
X143486121Y-104470000D01*
X143526121Y-98548000D02*
X143526121Y-100460000D01*
X143526121Y-102540000D02*
X143526121Y-104452000D01*
X143566121Y-98566000D02*
X143566121Y-100460000D01*
X143566121Y-102540000D02*
X143566121Y-104434000D01*
X143606121Y-98584000D02*
X143606121Y-100460000D01*
X143606121Y-102540000D02*
X143606121Y-104416000D01*
X143646121Y-98604000D02*
X143646121Y-100460000D01*
X143646121Y-102540000D02*
X143646121Y-104396000D01*
X143686121Y-98624000D02*
X143686121Y-100460000D01*
X143686121Y-102540000D02*
X143686121Y-104376000D01*
X143726121Y-98644000D02*
X143726121Y-100460000D01*
X143726121Y-102540000D02*
X143726121Y-104356000D01*
X143766121Y-98666000D02*
X143766121Y-100460000D01*
X143766121Y-102540000D02*
X143766121Y-104334000D01*
X143806121Y-98688000D02*
X143806121Y-100460000D01*
X143806121Y-102540000D02*
X143806121Y-104312000D01*
X143846121Y-98710000D02*
X143846121Y-100460000D01*
X143846121Y-102540000D02*
X143846121Y-104290000D01*
X143886121Y-98734000D02*
X143886121Y-100460000D01*
X143886121Y-102540000D02*
X143886121Y-104266000D01*
X143926121Y-98758000D02*
X143926121Y-100460000D01*
X143926121Y-102540000D02*
X143926121Y-104242000D01*
X143966121Y-98784000D02*
X143966121Y-100460000D01*
X143966121Y-102540000D02*
X143966121Y-104216000D01*
X144006121Y-98810000D02*
X144006121Y-100460000D01*
X144006121Y-102540000D02*
X144006121Y-104190000D01*
X144046121Y-98836000D02*
X144046121Y-100460000D01*
X144046121Y-102540000D02*
X144046121Y-104164000D01*
X144086121Y-98864000D02*
X144086121Y-100460000D01*
X144086121Y-102540000D02*
X144086121Y-104136000D01*
X144126121Y-98893000D02*
X144126121Y-100460000D01*
X144126121Y-102540000D02*
X144126121Y-104107000D01*
X144166121Y-98922000D02*
X144166121Y-100460000D01*
X144166121Y-102540000D02*
X144166121Y-104078000D01*
X144206121Y-98952000D02*
X144206121Y-100460000D01*
X144206121Y-102540000D02*
X144206121Y-104048000D01*
X144246121Y-98984000D02*
X144246121Y-100460000D01*
X144246121Y-102540000D02*
X144246121Y-104016000D01*
X144286121Y-99016000D02*
X144286121Y-100460000D01*
X144286121Y-102540000D02*
X144286121Y-103984000D01*
X144326121Y-99050000D02*
X144326121Y-100460000D01*
X144326121Y-102540000D02*
X144326121Y-103950000D01*
X144366121Y-99084000D02*
X144366121Y-100460000D01*
X144366121Y-102540000D02*
X144366121Y-103916000D01*
X144406121Y-99120000D02*
X144406121Y-100460000D01*
X144406121Y-102540000D02*
X144406121Y-103880000D01*
X144446121Y-99157000D02*
X144446121Y-100460000D01*
X144446121Y-102540000D02*
X144446121Y-103843000D01*
X144486121Y-99195000D02*
X144486121Y-100460000D01*
X144486121Y-102540000D02*
X144486121Y-103805000D01*
X144526121Y-99235000D02*
X144526121Y-103765000D01*
X144566121Y-99276000D02*
X144566121Y-103724000D01*
X144606121Y-99318000D02*
X144606121Y-103682000D01*
X144646121Y-99363000D02*
X144646121Y-103637000D01*
X144686121Y-99408000D02*
X144686121Y-103592000D01*
X144726121Y-99456000D02*
X144726121Y-103544000D01*
X144766121Y-99505000D02*
X144766121Y-103495000D01*
X144806121Y-99556000D02*
X144806121Y-103444000D01*
X144846121Y-99610000D02*
X144846121Y-103390000D01*
X144886121Y-99666000D02*
X144886121Y-103334000D01*
X144926121Y-99724000D02*
X144926121Y-103276000D01*
X144966121Y-99786000D02*
X144966121Y-103214000D01*
X145006121Y-99850000D02*
X145006121Y-103150000D01*
X145046121Y-99919000D02*
X145046121Y-103081000D01*
X145086121Y-99991000D02*
X145086121Y-103009000D01*
X145126121Y-100068000D02*
X145126121Y-102932000D01*
X145166121Y-100150000D02*
X145166121Y-102850000D01*
X145206121Y-100238000D02*
X145206121Y-102762000D01*
X145246121Y-100335000D02*
X145246121Y-102665000D01*
X145286121Y-100441000D02*
X145286121Y-102559000D01*
X145326121Y-100560000D02*
X145326121Y-102440000D01*
X145366121Y-100698000D02*
X145366121Y-102302000D01*
X145406121Y-100867000D02*
X145406121Y-102133000D01*
X145446121Y-101098000D02*
X145446121Y-101902000D01*
X145475121Y-101500000D02*
G75*
G02*
X138935121Y-101500000I-3270000J0D01*
G01*
X138935121Y-101500000D02*
G75*
G02*
X145475121Y-101500000I3270000J0D01*
G01*
%TO.C,JP1*%
X139000000Y-134350000D02*
X139000000Y-132950000D01*
X139700000Y-132250000D02*
X140300000Y-132250000D01*
X140300000Y-135050000D02*
X139700000Y-135050000D01*
X141000000Y-132950000D02*
X141000000Y-134350000D01*
X139000000Y-132950000D02*
G75*
G02*
X139700000Y-132250000I700000J0D01*
G01*
X139700000Y-135050000D02*
G75*
G02*
X139000000Y-134350000I-1J699999D01*
G01*
X140300000Y-132250000D02*
G75*
G02*
X141000000Y-132950000I0J-700000D01*
G01*
X141000000Y-134350000D02*
G75*
G02*
X140300000Y-135050000I-699999J-1D01*
G01*
%TO.C,U1*%
X150015000Y-86860000D02*
X150015000Y-97140000D01*
X150015000Y-97140000D02*
X155315000Y-97140000D01*
X151665000Y-86860000D02*
X150015000Y-86860000D01*
X155315000Y-86860000D02*
X153665000Y-86860000D01*
X155315000Y-97140000D02*
X155315000Y-86860000D01*
X153665000Y-86860000D02*
G75*
G02*
X151665000Y-86860000I-1000000J0D01*
G01*
%TO.C,R4*%
X159790000Y-119380000D02*
X160560000Y-119380000D01*
X160560000Y-118010000D02*
X160560000Y-120750000D01*
X160560000Y-120750000D02*
X167100000Y-120750000D01*
X167100000Y-118010000D02*
X160560000Y-118010000D01*
X167100000Y-120750000D02*
X167100000Y-118010000D01*
X167870000Y-119380000D02*
X167100000Y-119380000D01*
%TO.C,R7*%
X164265000Y-135772936D02*
X164265000Y-136227064D01*
X165735000Y-135772936D02*
X165735000Y-136227064D01*
%TO.C,C6*%
X148530000Y-116940000D02*
X148530000Y-114200000D01*
X153770000Y-114200000D02*
X148530000Y-114200000D01*
X153770000Y-116940000D02*
X148530000Y-116940000D01*
X153770000Y-116940000D02*
X153770000Y-114200000D01*
%TO.C,Ct1*%
X139517500Y-97870000D02*
X139517500Y-94130000D01*
X146757500Y-94130000D02*
X139517500Y-94130000D01*
X146757500Y-97870000D02*
X139517500Y-97870000D01*
X146757500Y-97870000D02*
X146757500Y-94130000D01*
%TO.C,R3*%
X162767500Y-92230000D02*
X162767500Y-98770000D01*
X162767500Y-98770000D02*
X165507500Y-98770000D01*
X164137500Y-91460000D02*
X164137500Y-92230000D01*
X164137500Y-99540000D02*
X164137500Y-98770000D01*
X165507500Y-92230000D02*
X162767500Y-92230000D01*
X165507500Y-98770000D02*
X165507500Y-92230000D01*
%TO.C,D1*%
X148897500Y-100000000D02*
X149917500Y-100000000D01*
X149917500Y-98530000D02*
X149917500Y-101470000D01*
X149917500Y-101470000D02*
X155357500Y-101470000D01*
X154337500Y-101470000D02*
X154337500Y-98530000D01*
X154457500Y-101470000D02*
X154457500Y-98530000D01*
X154577500Y-101470000D02*
X154577500Y-98530000D01*
X155357500Y-98530000D02*
X149917500Y-98530000D01*
X155357500Y-101470000D02*
X155357500Y-98530000D01*
X156377500Y-100000000D02*
X155357500Y-100000000D01*
%TO.C,D2*%
X165435000Y-110455000D02*
X165435000Y-113545000D01*
X165435000Y-110455170D02*
G75*
G02*
X170985000Y-111999952I2560000J-1544830D01*
G01*
X170985000Y-112000048D02*
G75*
G02*
X165435000Y-113544830I-2990000J48D01*
G01*
X170495000Y-112000000D02*
G75*
G02*
X165495000Y-112000000I-2500000J0D01*
G01*
X165495000Y-112000000D02*
G75*
G02*
X170495000Y-112000000I2500000J0D01*
G01*
%TO.C,R6*%
X159790000Y-127000000D02*
X160560000Y-127000000D01*
X160560000Y-125630000D02*
X160560000Y-128370000D01*
X160560000Y-128370000D02*
X167100000Y-128370000D01*
X167100000Y-125630000D02*
X160560000Y-125630000D01*
X167100000Y-128370000D02*
X167100000Y-125630000D01*
X167870000Y-127000000D02*
X167100000Y-127000000D01*
%TO.C,C3*%
X159990000Y-104146267D02*
X159990000Y-103853733D01*
X161010000Y-104146267D02*
X161010000Y-103853733D01*
%TD*%
M02*
