%TF.GenerationSoftware,KiCad,Pcbnew,9.0.0*%
%TF.CreationDate,2025-03-06T18:24:39+01:00*%
%TF.ProjectId,GettingToBlinky,47657474-696e-4675-946f-426c696e6b79,rev?*%
%TF.SameCoordinates,Original*%
%TF.FileFunction,Copper,L1,Top*%
%TF.FilePolarity,Positive*%
%FSLAX46Y46*%
G04 Gerber Fmt 4.6, Leading zero omitted, Abs format (unit mm)*
G04 Created by KiCad (PCBNEW 9.0.0) date 2025-03-06 18:24:39*
%MOMM*%
%LPD*%
G01*
G04 APERTURE LIST*
G04 Aperture macros list*
%AMRoundRect*
0 Rectangle with rounded corners*
0 $1 Rounding radius*
0 $2 $3 $4 $5 $6 $7 $8 $9 X,Y pos of 4 corners*
0 Add a 4 corners polygon primitive as box body*
4,1,4,$2,$3,$4,$5,$6,$7,$8,$9,$2,$3,0*
0 Add four circle primitives for the rounded corners*
1,1,$1+$1,$2,$3*
1,1,$1+$1,$4,$5*
1,1,$1+$1,$6,$7*
1,1,$1+$1,$8,$9*
0 Add four rect primitives between the rounded corners*
20,1,$1+$1,$2,$3,$4,$5,0*
20,1,$1+$1,$4,$5,$6,$7,0*
20,1,$1+$1,$6,$7,$8,$9,0*
20,1,$1+$1,$8,$9,$2,$3,0*%
%AMFreePoly0*
4,1,23,0.500000,-0.750000,0.000000,-0.750000,0.000000,-0.745722,-0.065263,-0.745722,-0.191342,-0.711940,-0.304381,-0.646677,-0.396677,-0.554381,-0.461940,-0.441342,-0.495722,-0.315263,-0.495722,-0.250000,-0.500000,-0.250000,-0.500000,0.250000,-0.495722,0.250000,-0.495722,0.315263,-0.461940,0.441342,-0.396677,0.554381,-0.304381,0.646677,-0.191342,0.711940,-0.065263,0.745722,0.000000,0.745722,
0.000000,0.750000,0.500000,0.750000,0.500000,-0.750000,0.500000,-0.750000,$1*%
%AMFreePoly1*
4,1,23,0.000000,0.745722,0.065263,0.745722,0.191342,0.711940,0.304381,0.646677,0.396677,0.554381,0.461940,0.441342,0.495722,0.315263,0.495722,0.250000,0.500000,0.250000,0.500000,-0.250000,0.495722,-0.250000,0.495722,-0.315263,0.461940,-0.441342,0.396677,-0.554381,0.304381,-0.646677,0.191342,-0.711940,0.065263,-0.745722,0.000000,-0.745722,0.000000,-0.750000,-0.500000,-0.750000,
-0.500000,0.750000,0.000000,0.750000,0.000000,0.745722,0.000000,0.745722,$1*%
G04 Aperture macros list end*
%TA.AperFunction,ComponentPad*%
%ADD10C,2.600000*%
%TD*%
%TA.AperFunction,ComponentPad*%
%ADD11R,1.600000X1.600000*%
%TD*%
%TA.AperFunction,ComponentPad*%
%ADD12C,1.600000*%
%TD*%
%TA.AperFunction,SMDPad,CuDef*%
%ADD13FreePoly0,90.000000*%
%TD*%
%TA.AperFunction,SMDPad,CuDef*%
%ADD14FreePoly1,90.000000*%
%TD*%
%TA.AperFunction,ComponentPad*%
%ADD15O,1.600000X1.600000*%
%TD*%
%TA.AperFunction,ComponentPad*%
%ADD16R,1.700000X1.700000*%
%TD*%
%TA.AperFunction,ComponentPad*%
%ADD17O,1.700000X1.700000*%
%TD*%
%TA.AperFunction,ComponentPad*%
%ADD18R,3.000000X3.000000*%
%TD*%
%TA.AperFunction,ComponentPad*%
%ADD19C,3.000000*%
%TD*%
%TA.AperFunction,ComponentPad*%
%ADD20RoundRect,0.250000X-0.550000X-0.550000X0.550000X-0.550000X0.550000X0.550000X-0.550000X0.550000X0*%
%TD*%
%TA.AperFunction,SMDPad,CuDef*%
%ADD21RoundRect,0.250000X-0.450000X0.350000X-0.450000X-0.350000X0.450000X-0.350000X0.450000X0.350000X0*%
%TD*%
%TA.AperFunction,ComponentPad*%
%ADD22R,2.200000X2.200000*%
%TD*%
%TA.AperFunction,ComponentPad*%
%ADD23O,2.200000X2.200000*%
%TD*%
%TA.AperFunction,ComponentPad*%
%ADD24R,1.800000X1.800000*%
%TD*%
%TA.AperFunction,ComponentPad*%
%ADD25C,1.800000*%
%TD*%
%TA.AperFunction,SMDPad,CuDef*%
%ADD26RoundRect,0.237500X0.237500X-0.300000X0.237500X0.300000X-0.237500X0.300000X-0.237500X-0.300000X0*%
%TD*%
%TA.AperFunction,ViaPad*%
%ADD27C,1.000000*%
%TD*%
%TA.AperFunction,Conductor*%
%ADD28C,0.200000*%
%TD*%
%TA.AperFunction,Conductor*%
%ADD29C,0.700000*%
%TD*%
%TA.AperFunction,Conductor*%
%ADD30C,0.300000*%
%TD*%
%TA.AperFunction,Conductor*%
%ADD31C,0.500000*%
%TD*%
G04 APERTURE END LIST*
D10*
%TO.P,L1,1,1*%
%TO.N,Net-(U1-Ipk)*%
X140637500Y-89000000D03*
%TO.P,L1,2,2*%
%TO.N,Net-(D1-A)*%
X145637500Y-89000000D03*
%TD*%
D11*
%TO.P,C7,1*%
%TO.N,Net-(J1-Pin_1)*%
X158152651Y-136500000D03*
D12*
%TO.P,C7,2*%
%TO.N,Net-(JP2-A)*%
X154652651Y-136500000D03*
%TD*%
D13*
%TO.P,JP2,1,A*%
%TO.N,Net-(JP2-A)*%
X140000000Y-139300000D03*
D14*
%TO.P,JP2,2,B*%
%TO.N,Net-(JP2-B)*%
X140000000Y-138000000D03*
%TD*%
D12*
%TO.P,Rsc1,1*%
%TO.N,+BATT*%
X136637500Y-100580000D03*
D15*
%TO.P,Rsc1,2*%
%TO.N,Net-(U1-Ipk)*%
X136637500Y-90420000D03*
%TD*%
D16*
%TO.P,J1,1,Pin_1*%
%TO.N,Net-(J1-Pin_1)*%
X168725000Y-136000000D03*
D17*
%TO.P,J1,2,Pin_2*%
%TO.N,GND*%
X171265000Y-136000000D03*
%TD*%
D11*
%TO.P,C2,1*%
%TO.N,VCC*%
X157319880Y-105000000D03*
D12*
%TO.P,C2,2*%
%TO.N,GND*%
X154819880Y-105000000D03*
%TD*%
D18*
%TO.P,BT1,1,+*%
%TO.N,+BATT*%
X123500000Y-85500000D03*
D19*
%TO.P,BT1,2,-*%
%TO.N,GND*%
X110700000Y-85500000D03*
%TD*%
D12*
%TO.P,C5,1*%
%TO.N,Net-(JP1-B)*%
X138470000Y-123190000D03*
%TO.P,C5,2*%
%TO.N,GND*%
X143470000Y-123190000D03*
%TD*%
%TO.P,R5,1*%
%TO.N,/Disch*%
X158750000Y-123190000D03*
D15*
%TO.P,R5,2*%
%TO.N,Net-(U2-THR)*%
X168910000Y-123190000D03*
%TD*%
D20*
%TO.P,U2,1,GND*%
%TO.N,GND*%
X147325000Y-119380000D03*
D12*
%TO.P,U2,2,TR*%
%TO.N,Net-(U2-THR)*%
X147325000Y-121920000D03*
%TO.P,U2,3,Q*%
%TO.N,Net-(JP2-B)*%
X147325000Y-124460000D03*
%TO.P,U2,4,R*%
%TO.N,VCC*%
X147325000Y-127000000D03*
%TO.P,U2,5,CV*%
%TO.N,unconnected-(U2-CV-Pad5)*%
X154945000Y-127000000D03*
%TO.P,U2,6,THR*%
%TO.N,Net-(U2-THR)*%
X154945000Y-124460000D03*
%TO.P,U2,7,DIS*%
%TO.N,/Disch*%
X154945000Y-121920000D03*
%TO.P,U2,8,VCC*%
%TO.N,VCC*%
X154945000Y-119380000D03*
%TD*%
%TO.P,R1,1*%
%TO.N,Net-(U1-DC)*%
X158217500Y-84500000D03*
D15*
%TO.P,R1,2*%
%TO.N,Net-(U1-Ipk)*%
X148057500Y-84500000D03*
%TD*%
D11*
%TO.P,C4,1*%
%TO.N,Net-(U2-THR)*%
X142720000Y-116840000D03*
D12*
%TO.P,C4,2*%
%TO.N,Net-(JP1-B)*%
X139220000Y-116840000D03*
%TD*%
%TO.P,R2,1*%
%TO.N,Net-(U1-Vfb)*%
X160637500Y-90420000D03*
D15*
%TO.P,R2,2*%
%TO.N,VCC*%
X160637500Y-100580000D03*
%TD*%
D11*
%TO.P,C1,1*%
%TO.N,+BATT*%
X140955121Y-101500000D03*
D12*
%TO.P,C1,2*%
%TO.N,GND*%
X143455121Y-101500000D03*
%TD*%
D13*
%TO.P,JP1,1,A*%
%TO.N,GND*%
X140000000Y-134300000D03*
D14*
%TO.P,JP1,2,B*%
%TO.N,Net-(JP1-B)*%
X140000000Y-133000000D03*
%TD*%
D20*
%TO.P,U1,1,SwC*%
%TO.N,Net-(D1-A)*%
X148855000Y-88190000D03*
D12*
%TO.P,U1,2,SwE*%
%TO.N,GND*%
X148855000Y-90730000D03*
%TO.P,U1,3,TC*%
%TO.N,Net-(U1-TC)*%
X148855000Y-93270000D03*
%TO.P,U1,4,GND*%
%TO.N,GND*%
X148855000Y-95810000D03*
%TO.P,U1,5,Vfb*%
%TO.N,Net-(U1-Vfb)*%
X156475000Y-95810000D03*
%TO.P,U1,6,Vin*%
%TO.N,+BATT*%
X156475000Y-93270000D03*
%TO.P,U1,7,Ipk*%
%TO.N,Net-(U1-Ipk)*%
X156475000Y-90730000D03*
%TO.P,U1,8,DC*%
%TO.N,Net-(U1-DC)*%
X156475000Y-88190000D03*
%TD*%
%TO.P,R4,1*%
%TO.N,/Disch*%
X158750000Y-119380000D03*
D15*
%TO.P,R4,2*%
%TO.N,VCC*%
X168910000Y-119380000D03*
%TD*%
D21*
%TO.P,R7,1*%
%TO.N,Net-(J1-Pin_1)*%
X165000000Y-135000000D03*
%TO.P,R7,2*%
%TO.N,GND*%
X165000000Y-137000000D03*
%TD*%
D12*
%TO.P,C6,1*%
%TO.N,VCC*%
X152400000Y-115570000D03*
%TO.P,C6,2*%
%TO.N,GND*%
X149900000Y-115570000D03*
%TD*%
%TO.P,Ct1,1*%
%TO.N,Net-(U1-TC)*%
X145637500Y-96000000D03*
%TO.P,Ct1,2*%
%TO.N,GND*%
X140637500Y-96000000D03*
%TD*%
%TO.P,R3,1*%
%TO.N,GND*%
X164137500Y-100580000D03*
D15*
%TO.P,R3,2*%
%TO.N,Net-(U1-Vfb)*%
X164137500Y-90420000D03*
%TD*%
D22*
%TO.P,D1,1,K*%
%TO.N,VCC*%
X157717500Y-100000000D03*
D23*
%TO.P,D1,2,A*%
%TO.N,Net-(D1-A)*%
X147557500Y-100000000D03*
%TD*%
D24*
%TO.P,D2,1,K*%
%TO.N,GND*%
X166725000Y-112000000D03*
D25*
%TO.P,D2,2,A*%
%TO.N,Net-(D2-A)*%
X169265000Y-112000000D03*
%TD*%
D12*
%TO.P,R6,1*%
%TO.N,Net-(JP2-B)*%
X158750000Y-127000000D03*
D15*
%TO.P,R6,2*%
%TO.N,Net-(D2-A)*%
X168910000Y-127000000D03*
%TD*%
D26*
%TO.P,C3,1*%
%TO.N,VCC*%
X160500000Y-104862500D03*
%TO.P,C3,2*%
%TO.N,GND*%
X160500000Y-103137500D03*
%TD*%
D27*
%TO.N,GND*%
X164000000Y-123000000D03*
X159000000Y-103500000D03*
X164000000Y-119500000D03*
X164000000Y-127000000D03*
X151000000Y-123500000D03*
X157000000Y-120500000D03*
X140000000Y-135500000D03*
%TD*%
D28*
%TO.N,+BATT*%
X137557500Y-101500000D02*
X136637500Y-100580000D01*
X140955121Y-101500000D02*
X137557500Y-101500000D01*
D29*
X136637500Y-93637500D02*
X136637500Y-100580000D01*
X128500000Y-85500000D02*
X136637500Y-93637500D01*
X123500000Y-85500000D02*
X128500000Y-85500000D01*
D30*
X152000000Y-97745000D02*
X152000000Y-101750000D01*
X150250000Y-103500000D02*
X142955121Y-103500000D01*
X152000000Y-101750000D02*
X150250000Y-103500000D01*
X156475000Y-93270000D02*
X152000000Y-97745000D01*
X142955121Y-103500000D02*
X140955121Y-101500000D01*
D29*
%TO.N,GND*%
X159362500Y-103137500D02*
X159000000Y-103500000D01*
D30*
X140000000Y-134300000D02*
X140000000Y-135500000D01*
D29*
X160500000Y-103137500D02*
X159362500Y-103137500D01*
%TO.N,VCC*%
X157319880Y-105000000D02*
X157319880Y-100397620D01*
D31*
X157457380Y-104862500D02*
X157319880Y-105000000D01*
X157319880Y-105000000D02*
X157775000Y-105000000D01*
D30*
X160057500Y-100000000D02*
X160637500Y-100580000D01*
X141000000Y-116258000D02*
X143758000Y-113500000D01*
D29*
X152400000Y-116835000D02*
X154945000Y-119380000D01*
D30*
X150330000Y-113500000D02*
X152400000Y-115570000D01*
X157717500Y-100000000D02*
X160057500Y-100000000D01*
D29*
X160500000Y-104862500D02*
X157457380Y-104862500D01*
D30*
X143758000Y-113500000D02*
X150330000Y-113500000D01*
D29*
X157319880Y-100397620D02*
X157717500Y-100000000D01*
D30*
X143500000Y-127000000D02*
X141000000Y-124500000D01*
X168910000Y-119380000D02*
X166535120Y-117005120D01*
X147325000Y-127000000D02*
X143500000Y-127000000D01*
D29*
X157319880Y-117005120D02*
X154945000Y-119380000D01*
X152400000Y-115570000D02*
X152400000Y-116835000D01*
X157319880Y-105000000D02*
X157319880Y-117005120D01*
D30*
X166535120Y-117005120D02*
X157319880Y-117005120D01*
X141000000Y-124500000D02*
X141000000Y-116258000D01*
D31*
X157500000Y-104819880D02*
X157319880Y-105000000D01*
D30*
%TO.N,Net-(JP1-B)*%
X138470000Y-117590000D02*
X139220000Y-116840000D01*
X140000000Y-133000000D02*
X140000000Y-124720000D01*
X140000000Y-124720000D02*
X138470000Y-123190000D01*
X138470000Y-123190000D02*
X138470000Y-117590000D01*
%TO.N,Net-(U2-THR)*%
X152000000Y-121500000D02*
X147745000Y-121500000D01*
X147745000Y-121500000D02*
X147325000Y-121920000D01*
X142720000Y-117315000D02*
X147325000Y-121920000D01*
X168910000Y-123190000D02*
X167640000Y-124460000D01*
X154945000Y-124460000D02*
X154945000Y-124445000D01*
X142720000Y-116840000D02*
X142720000Y-117315000D01*
X167640000Y-124460000D02*
X154945000Y-124460000D01*
X154945000Y-124445000D02*
X152000000Y-121500000D01*
D29*
%TO.N,Net-(J1-Pin_1)*%
X165000000Y-135000000D02*
X159652651Y-135000000D01*
X159652651Y-135000000D02*
X158152651Y-136500000D01*
X165275000Y-134725000D02*
X165000000Y-135000000D01*
X167725000Y-135000000D02*
X168725000Y-136000000D01*
X165000000Y-135000000D02*
X167725000Y-135000000D01*
%TO.N,Net-(JP2-A)*%
X140000000Y-139300000D02*
X148200000Y-139300000D01*
X148200000Y-139300000D02*
X151000000Y-136500000D01*
X151000000Y-136500000D02*
X154652651Y-136500000D01*
D30*
%TO.N,Net-(U1-TC)*%
X148367500Y-93270000D02*
X148855000Y-93270000D01*
X145637500Y-96000000D02*
X148367500Y-93270000D01*
D29*
%TO.N,Net-(D1-A)*%
X146447500Y-88190000D02*
X148855000Y-88190000D01*
X145637500Y-89000000D02*
X146447500Y-88190000D01*
X145637500Y-89000000D02*
X144000000Y-90637500D01*
X144000000Y-97000000D02*
X147000000Y-100000000D01*
X147000000Y-100000000D02*
X147557500Y-100000000D01*
X144000000Y-90637500D02*
X144000000Y-97000000D01*
D30*
%TO.N,Net-(D2-A)*%
X169265000Y-112000000D02*
X170500000Y-113235000D01*
X170500000Y-125410000D02*
X168910000Y-127000000D01*
X170500000Y-113235000D02*
X170500000Y-125410000D01*
D29*
%TO.N,Net-(JP2-B)*%
X149500000Y-124500000D02*
X147365000Y-124500000D01*
X151000000Y-129500000D02*
X151000000Y-126000000D01*
D30*
X156250000Y-129500000D02*
X151000000Y-129500000D01*
D29*
X151000000Y-134500000D02*
X151000000Y-129500000D01*
D30*
X158750000Y-127000000D02*
X156250000Y-129500000D01*
D29*
X147365000Y-124500000D02*
X147325000Y-124460000D01*
X140000000Y-138000000D02*
X147500000Y-138000000D01*
X147500000Y-138000000D02*
X151000000Y-134500000D01*
X151000000Y-126000000D02*
X149500000Y-124500000D01*
%TO.N,Net-(U1-Ipk)*%
X136637500Y-90420000D02*
X139217500Y-90420000D01*
D30*
X149500000Y-84500000D02*
X148057500Y-84500000D01*
D29*
X139217500Y-90420000D02*
X140637500Y-89000000D01*
D30*
X145137500Y-84500000D02*
X148057500Y-84500000D01*
X140637500Y-89000000D02*
X145137500Y-84500000D01*
X155730000Y-90730000D02*
X149500000Y-84500000D01*
X156475000Y-90730000D02*
X155730000Y-90730000D01*
%TO.N,Net-(U1-DC)*%
X158217500Y-86447500D02*
X156475000Y-88190000D01*
X158217500Y-84500000D02*
X158217500Y-86447500D01*
%TO.N,Net-(U1-Vfb)*%
X160637500Y-91647500D02*
X156475000Y-95810000D01*
X164137500Y-90420000D02*
X160637500Y-90420000D01*
X160637500Y-90420000D02*
X160637500Y-91647500D01*
%TO.N,/Disch*%
X158750000Y-122000000D02*
X158750000Y-123190000D01*
X158670000Y-121920000D02*
X158750000Y-122000000D01*
X154945000Y-121920000D02*
X158670000Y-121920000D01*
X158750000Y-119380000D02*
X158750000Y-122000000D01*
%TD*%
%TA.AperFunction,Conductor*%
%TO.N,GND*%
G36*
X141804856Y-118132764D02*
G01*
X141804965Y-118132307D01*
X141812508Y-118134089D01*
X141812513Y-118134089D01*
X141812517Y-118134091D01*
X141872127Y-118140500D01*
X142574191Y-118140499D01*
X142641230Y-118160183D01*
X142661872Y-118176818D01*
X146017862Y-121532808D01*
X146051347Y-121594131D01*
X146052654Y-121639886D01*
X146024500Y-121817647D01*
X146024500Y-122022351D01*
X146056522Y-122224534D01*
X146119781Y-122419223D01*
X146142636Y-122464077D01*
X146205848Y-122588137D01*
X146212715Y-122601613D01*
X146333028Y-122767213D01*
X146477786Y-122911971D01*
X146632749Y-123024556D01*
X146643390Y-123032287D01*
X146734840Y-123078883D01*
X146736080Y-123079515D01*
X146786876Y-123127490D01*
X146803671Y-123195311D01*
X146781134Y-123261446D01*
X146736080Y-123300485D01*
X146643386Y-123347715D01*
X146477786Y-123468028D01*
X146333028Y-123612786D01*
X146212715Y-123778386D01*
X146119781Y-123960776D01*
X146056522Y-124155465D01*
X146024500Y-124357648D01*
X146024500Y-124562351D01*
X146056522Y-124764534D01*
X146119781Y-124959223D01*
X146212715Y-125141613D01*
X146333028Y-125307213D01*
X146477786Y-125451971D01*
X146632749Y-125564556D01*
X146643390Y-125572287D01*
X146734840Y-125618883D01*
X146736080Y-125619515D01*
X146786876Y-125667490D01*
X146803671Y-125735311D01*
X146781134Y-125801446D01*
X146736080Y-125840485D01*
X146643386Y-125887715D01*
X146477786Y-126008028D01*
X146333034Y-126152780D01*
X146333030Y-126152786D01*
X146227246Y-126298386D01*
X146171918Y-126341051D01*
X146126929Y-126349500D01*
X143820808Y-126349500D01*
X143753769Y-126329815D01*
X143733127Y-126313181D01*
X141686819Y-124266873D01*
X141653334Y-124205550D01*
X141650500Y-124179192D01*
X141650500Y-123087682D01*
X142170000Y-123087682D01*
X142170000Y-123292317D01*
X142202009Y-123494417D01*
X142265244Y-123689031D01*
X142358141Y-123871350D01*
X142358147Y-123871359D01*
X142390523Y-123915921D01*
X142390524Y-123915922D01*
X143070000Y-123236446D01*
X143070000Y-123242661D01*
X143097259Y-123344394D01*
X143149920Y-123435606D01*
X143224394Y-123510080D01*
X143315606Y-123562741D01*
X143417339Y-123590000D01*
X143423553Y-123590000D01*
X142744076Y-124269474D01*
X142788650Y-124301859D01*
X142970968Y-124394755D01*
X143165582Y-124457990D01*
X143367683Y-124490000D01*
X143572317Y-124490000D01*
X143774417Y-124457990D01*
X143969031Y-124394755D01*
X144151349Y-124301859D01*
X144195921Y-124269474D01*
X143516447Y-123590000D01*
X143522661Y-123590000D01*
X143624394Y-123562741D01*
X143715606Y-123510080D01*
X143790080Y-123435606D01*
X143842741Y-123344394D01*
X143870000Y-123242661D01*
X143870000Y-123236447D01*
X144549474Y-123915921D01*
X144581859Y-123871349D01*
X144674755Y-123689031D01*
X144737990Y-123494417D01*
X144770000Y-123292317D01*
X144770000Y-123087682D01*
X144737990Y-122885582D01*
X144674755Y-122690968D01*
X144581859Y-122508650D01*
X144549474Y-122464077D01*
X144549474Y-122464076D01*
X143870000Y-123143551D01*
X143870000Y-123137339D01*
X143842741Y-123035606D01*
X143790080Y-122944394D01*
X143715606Y-122869920D01*
X143624394Y-122817259D01*
X143522661Y-122790000D01*
X143516446Y-122790000D01*
X144195922Y-122110524D01*
X144195921Y-122110523D01*
X144151359Y-122078147D01*
X144151350Y-122078141D01*
X143969031Y-121985244D01*
X143774417Y-121922009D01*
X143572317Y-121890000D01*
X143367683Y-121890000D01*
X143165582Y-121922009D01*
X142970968Y-121985244D01*
X142788644Y-122078143D01*
X142744077Y-122110523D01*
X142744077Y-122110524D01*
X143423554Y-122790000D01*
X143417339Y-122790000D01*
X143315606Y-122817259D01*
X143224394Y-122869920D01*
X143149920Y-122944394D01*
X143097259Y-123035606D01*
X143070000Y-123137339D01*
X143070000Y-123143553D01*
X142390524Y-122464077D01*
X142390523Y-122464077D01*
X142358143Y-122508644D01*
X142265244Y-122690968D01*
X142202009Y-122885582D01*
X142170000Y-123087682D01*
X141650500Y-123087682D01*
X141650500Y-118252255D01*
X141670185Y-118185216D01*
X141722989Y-118139461D01*
X141792147Y-118129517D01*
X141804856Y-118132764D01*
G37*
%TD.AperFunction*%
%TA.AperFunction,Conductor*%
G36*
X166281351Y-117675305D02*
G01*
X166301993Y-117691939D01*
X167602862Y-118992808D01*
X167636347Y-119054131D01*
X167637654Y-119099886D01*
X167609500Y-119277647D01*
X167609500Y-119482351D01*
X167641522Y-119684534D01*
X167704781Y-119879223D01*
X167797715Y-120061613D01*
X167918028Y-120227213D01*
X168062786Y-120371971D01*
X168208383Y-120477751D01*
X168228390Y-120492287D01*
X168308453Y-120533081D01*
X168410776Y-120585218D01*
X168410778Y-120585218D01*
X168410781Y-120585220D01*
X168512126Y-120618149D01*
X168605465Y-120648477D01*
X168624697Y-120651523D01*
X168807648Y-120680500D01*
X168807649Y-120680500D01*
X169012351Y-120680500D01*
X169012352Y-120680500D01*
X169214534Y-120648477D01*
X169409219Y-120585220D01*
X169591610Y-120492287D01*
X169633818Y-120461620D01*
X169652615Y-120447965D01*
X169718421Y-120424485D01*
X169786475Y-120440311D01*
X169835170Y-120490416D01*
X169849500Y-120548283D01*
X169849500Y-122021716D01*
X169829815Y-122088755D01*
X169777011Y-122134510D01*
X169707853Y-122144454D01*
X169652616Y-122122035D01*
X169591612Y-122077714D01*
X169409223Y-121984781D01*
X169214534Y-121921522D01*
X169039995Y-121893878D01*
X169012352Y-121889500D01*
X168807648Y-121889500D01*
X168783329Y-121893351D01*
X168605465Y-121921522D01*
X168410776Y-121984781D01*
X168228386Y-122077715D01*
X168062786Y-122198028D01*
X167918028Y-122342786D01*
X167797715Y-122508386D01*
X167704781Y-122690776D01*
X167641522Y-122885465D01*
X167609500Y-123087648D01*
X167609500Y-123292351D01*
X167637654Y-123470111D01*
X167628699Y-123539405D01*
X167602862Y-123577190D01*
X167406871Y-123773182D01*
X167345551Y-123806666D01*
X167319192Y-123809500D01*
X160086810Y-123809500D01*
X160019771Y-123789815D01*
X159974016Y-123737011D01*
X159964072Y-123667853D01*
X159968879Y-123647182D01*
X160018476Y-123494538D01*
X160018476Y-123494537D01*
X160018477Y-123494534D01*
X160050500Y-123292352D01*
X160050500Y-123087648D01*
X160041731Y-123032284D01*
X160018477Y-122885465D01*
X159980054Y-122767213D01*
X159955220Y-122690781D01*
X159955218Y-122690778D01*
X159955218Y-122690776D01*
X159914795Y-122611442D01*
X159862287Y-122508390D01*
X159830092Y-122464077D01*
X159741971Y-122342786D01*
X159597217Y-122198032D01*
X159597212Y-122198028D01*
X159451615Y-122092246D01*
X159408949Y-122036916D01*
X159400500Y-121991928D01*
X159400500Y-120578070D01*
X159420185Y-120511031D01*
X159451613Y-120477753D01*
X159597219Y-120371966D01*
X159741966Y-120227219D01*
X159741968Y-120227215D01*
X159741971Y-120227213D01*
X159794732Y-120154590D01*
X159862287Y-120061610D01*
X159955220Y-119879219D01*
X160018477Y-119684534D01*
X160050500Y-119482352D01*
X160050500Y-119277648D01*
X160042257Y-119225606D01*
X160018477Y-119075465D01*
X159955218Y-118880776D01*
X159921503Y-118814607D01*
X159862287Y-118698390D01*
X159846966Y-118677302D01*
X159741971Y-118532786D01*
X159597213Y-118388028D01*
X159431613Y-118267715D01*
X159431612Y-118267714D01*
X159431610Y-118267713D01*
X159372675Y-118237684D01*
X159249223Y-118174781D01*
X159054534Y-118111522D01*
X158879475Y-118083796D01*
X158852352Y-118079500D01*
X158647648Y-118079500D01*
X158623329Y-118083351D01*
X158445465Y-118111522D01*
X158250776Y-118174781D01*
X158068386Y-118267715D01*
X157902786Y-118388028D01*
X157758028Y-118532786D01*
X157637715Y-118698386D01*
X157544781Y-118880776D01*
X157481522Y-119075465D01*
X157449500Y-119277648D01*
X157449500Y-119482351D01*
X157481522Y-119684534D01*
X157544781Y-119879223D01*
X157637715Y-120061613D01*
X157758028Y-120227213D01*
X157902784Y-120371969D01*
X157971863Y-120422157D01*
X158048385Y-120477753D01*
X158091051Y-120533081D01*
X158099500Y-120578070D01*
X158099500Y-121145500D01*
X158079815Y-121212539D01*
X158027011Y-121258294D01*
X157975500Y-121269500D01*
X156143071Y-121269500D01*
X156076032Y-121249815D01*
X156042754Y-121218386D01*
X155936966Y-121072781D01*
X155792219Y-120928034D01*
X155792213Y-120928028D01*
X155626614Y-120807715D01*
X155620006Y-120804348D01*
X155533917Y-120760483D01*
X155483123Y-120712511D01*
X155466328Y-120644690D01*
X155488865Y-120578555D01*
X155533917Y-120539516D01*
X155626610Y-120492287D01*
X155647770Y-120476913D01*
X155792213Y-120371971D01*
X155792215Y-120371968D01*
X155792219Y-120371966D01*
X155936966Y-120227219D01*
X155936968Y-120227215D01*
X155936971Y-120227213D01*
X155989732Y-120154590D01*
X156057287Y-120061610D01*
X156150220Y-119879219D01*
X156213477Y-119684534D01*
X156245500Y-119482352D01*
X156245500Y-119333651D01*
X156265185Y-119266612D01*
X156281819Y-119245970D01*
X157835850Y-117691939D01*
X157897173Y-117658454D01*
X157923531Y-117655620D01*
X166214312Y-117655620D01*
X166281351Y-117675305D01*
G37*
%TD.AperFunction*%
%TA.AperFunction,Conductor*%
G36*
X149372971Y-114170185D02*
G01*
X149418726Y-114222989D01*
X149428670Y-114292147D01*
X149399645Y-114355703D01*
X149362227Y-114384985D01*
X149218644Y-114458143D01*
X149174077Y-114490523D01*
X149174077Y-114490524D01*
X149853554Y-115170000D01*
X149847339Y-115170000D01*
X149745606Y-115197259D01*
X149654394Y-115249920D01*
X149579920Y-115324394D01*
X149527259Y-115415606D01*
X149500000Y-115517339D01*
X149500000Y-115523553D01*
X148820524Y-114844077D01*
X148820523Y-114844077D01*
X148788143Y-114888644D01*
X148695244Y-115070968D01*
X148632009Y-115265582D01*
X148600000Y-115467682D01*
X148600000Y-115672317D01*
X148632009Y-115874417D01*
X148695244Y-116069031D01*
X148788141Y-116251350D01*
X148788147Y-116251359D01*
X148820523Y-116295921D01*
X148820524Y-116295922D01*
X149500000Y-115616446D01*
X149500000Y-115622661D01*
X149527259Y-115724394D01*
X149579920Y-115815606D01*
X149654394Y-115890080D01*
X149745606Y-115942741D01*
X149847339Y-115970000D01*
X149853553Y-115970000D01*
X149174076Y-116649474D01*
X149218650Y-116681859D01*
X149400968Y-116774755D01*
X149595582Y-116837990D01*
X149797683Y-116870000D01*
X150002317Y-116870000D01*
X150204417Y-116837990D01*
X150399031Y-116774755D01*
X150581349Y-116681859D01*
X150625921Y-116649474D01*
X149946447Y-115970000D01*
X149952661Y-115970000D01*
X150054394Y-115942741D01*
X150145606Y-115890080D01*
X150220080Y-115815606D01*
X150272741Y-115724394D01*
X150300000Y-115622661D01*
X150300000Y-115616446D01*
X150979474Y-116295921D01*
X151011859Y-116251349D01*
X151039233Y-116197624D01*
X151087207Y-116146827D01*
X151155028Y-116130031D01*
X151221163Y-116152567D01*
X151260203Y-116197621D01*
X151287713Y-116251611D01*
X151408028Y-116417213D01*
X151513181Y-116522366D01*
X151546666Y-116583689D01*
X151549500Y-116610047D01*
X151549500Y-116918771D01*
X151582182Y-117083078D01*
X151582184Y-117083082D01*
X151584587Y-117088883D01*
X151584588Y-117088886D01*
X151646292Y-117237856D01*
X151646299Y-117237869D01*
X151739372Y-117377161D01*
X151739375Y-117377165D01*
X153608181Y-119245970D01*
X153641666Y-119307293D01*
X153644500Y-119333651D01*
X153644500Y-119482351D01*
X153676522Y-119684534D01*
X153739781Y-119879223D01*
X153832715Y-120061613D01*
X153953028Y-120227213D01*
X154097786Y-120371971D01*
X154243383Y-120477751D01*
X154263390Y-120492287D01*
X154343453Y-120533081D01*
X154356080Y-120539515D01*
X154406876Y-120587490D01*
X154423671Y-120655311D01*
X154401134Y-120721446D01*
X154356080Y-120760485D01*
X154263386Y-120807715D01*
X154097786Y-120928028D01*
X153953028Y-121072786D01*
X153832715Y-121238386D01*
X153739781Y-121420776D01*
X153676522Y-121615465D01*
X153644500Y-121817648D01*
X153644500Y-121925191D01*
X153624815Y-121992230D01*
X153572011Y-122037985D01*
X153502853Y-122047929D01*
X153439297Y-122018904D01*
X153432819Y-122012872D01*
X152414673Y-120994726D01*
X152314851Y-120928028D01*
X152308127Y-120923535D01*
X152189744Y-120874499D01*
X152189738Y-120874497D01*
X152064071Y-120849500D01*
X152064069Y-120849500D01*
X148249186Y-120849500D01*
X148182147Y-120829815D01*
X148136392Y-120777011D01*
X148126448Y-120707853D01*
X148155473Y-120644297D01*
X148188655Y-120619251D01*
X148187975Y-120618149D01*
X148343345Y-120522315D01*
X148467315Y-120398345D01*
X148559356Y-120249124D01*
X148559358Y-120249119D01*
X148614505Y-120082697D01*
X148614506Y-120082690D01*
X148624999Y-119979986D01*
X148625000Y-119979973D01*
X148625000Y-119630000D01*
X147640686Y-119630000D01*
X147645080Y-119625606D01*
X147697741Y-119534394D01*
X147725000Y-119432661D01*
X147725000Y-119327339D01*
X147697741Y-119225606D01*
X147645080Y-119134394D01*
X147640686Y-119130000D01*
X148624999Y-119130000D01*
X148624999Y-118780028D01*
X148624998Y-118780013D01*
X148614505Y-118677302D01*
X148559358Y-118510880D01*
X148559356Y-118510875D01*
X148467315Y-118361654D01*
X148343345Y-118237684D01*
X148194124Y-118145643D01*
X148194119Y-118145641D01*
X148027697Y-118090494D01*
X148027690Y-118090493D01*
X147924986Y-118080000D01*
X147575000Y-118080000D01*
X147575000Y-119064314D01*
X147570606Y-119059920D01*
X147479394Y-119007259D01*
X147377661Y-118980000D01*
X147272339Y-118980000D01*
X147170606Y-119007259D01*
X147079394Y-119059920D01*
X147075000Y-119064314D01*
X147075000Y-118080000D01*
X146725028Y-118080000D01*
X146725012Y-118080001D01*
X146622302Y-118090494D01*
X146455880Y-118145641D01*
X146455875Y-118145643D01*
X146306654Y-118237684D01*
X146182684Y-118361654D01*
X146090643Y-118510875D01*
X146090641Y-118510880D01*
X146035494Y-118677302D01*
X146035493Y-118677309D01*
X146025000Y-118780013D01*
X146025000Y-119130000D01*
X147009314Y-119130000D01*
X147004920Y-119134394D01*
X146952259Y-119225606D01*
X146925000Y-119327339D01*
X146925000Y-119432661D01*
X146952259Y-119534394D01*
X147004920Y-119625606D01*
X147009314Y-119630000D01*
X146006308Y-119630000D01*
X145939269Y-119610315D01*
X145918627Y-119593681D01*
X144056818Y-117731872D01*
X144023333Y-117670549D01*
X144020499Y-117644200D01*
X144020499Y-115992128D01*
X144014091Y-115932517D01*
X143963796Y-115797669D01*
X143963795Y-115797668D01*
X143963793Y-115797664D01*
X143877547Y-115682455D01*
X143877544Y-115682452D01*
X143762335Y-115596206D01*
X143762328Y-115596202D01*
X143716200Y-115578998D01*
X143627482Y-115545908D01*
X143627483Y-115545908D01*
X143567883Y-115539501D01*
X143567881Y-115539500D01*
X143567873Y-115539500D01*
X143567865Y-115539500D01*
X142937807Y-115539500D01*
X142870768Y-115519815D01*
X142825013Y-115467011D01*
X142815069Y-115397853D01*
X142844094Y-115334297D01*
X142850126Y-115327819D01*
X143333869Y-114844077D01*
X143991127Y-114186819D01*
X144052450Y-114153334D01*
X144078808Y-114150500D01*
X149305932Y-114150500D01*
X149372971Y-114170185D01*
G37*
%TD.AperFunction*%
%TA.AperFunction,Conductor*%
G36*
X147646595Y-89105685D02*
G01*
X147659393Y-89122901D01*
X147712285Y-89208652D01*
X147712288Y-89208656D01*
X147836344Y-89332712D01*
X147985666Y-89424814D01*
X148068152Y-89452147D01*
X148125597Y-89491920D01*
X148152420Y-89556436D01*
X148140105Y-89625212D01*
X148130143Y-89636975D01*
X148129077Y-89650524D01*
X148808554Y-90330000D01*
X148802339Y-90330000D01*
X148700606Y-90357259D01*
X148609394Y-90409920D01*
X148534920Y-90484394D01*
X148482259Y-90575606D01*
X148455000Y-90677339D01*
X148455000Y-90683553D01*
X147775524Y-90004077D01*
X147775523Y-90004077D01*
X147743143Y-90048644D01*
X147650244Y-90230968D01*
X147587009Y-90425582D01*
X147555000Y-90627682D01*
X147555000Y-90832317D01*
X147587009Y-91034417D01*
X147650244Y-91229031D01*
X147743141Y-91411350D01*
X147743147Y-91411359D01*
X147775523Y-91455921D01*
X147775524Y-91455922D01*
X148455000Y-90776446D01*
X148455000Y-90782661D01*
X148482259Y-90884394D01*
X148534920Y-90975606D01*
X148609394Y-91050080D01*
X148700606Y-91102741D01*
X148802339Y-91130000D01*
X148808553Y-91130000D01*
X148129076Y-91809474D01*
X148173652Y-91841861D01*
X148266628Y-91889234D01*
X148317425Y-91937208D01*
X148334220Y-92005029D01*
X148311683Y-92071164D01*
X148266630Y-92110203D01*
X148173388Y-92157713D01*
X148007786Y-92278028D01*
X147863028Y-92422786D01*
X147742715Y-92588386D01*
X147649781Y-92770778D01*
X147586522Y-92965468D01*
X147561666Y-93122396D01*
X147531736Y-93185531D01*
X147526874Y-93190678D01*
X146024690Y-94692862D01*
X145963367Y-94726347D01*
X145917611Y-94727654D01*
X145772111Y-94704609D01*
X145739852Y-94699500D01*
X145535148Y-94699500D01*
X145510829Y-94703351D01*
X145332965Y-94731522D01*
X145138273Y-94794782D01*
X145030794Y-94849546D01*
X144962125Y-94862442D01*
X144897385Y-94836165D01*
X144857128Y-94779059D01*
X144850500Y-94739061D01*
X144850500Y-91041150D01*
X144870185Y-90974111D01*
X144886815Y-90953473D01*
X145065384Y-90774903D01*
X145126707Y-90741419D01*
X145185157Y-90742809D01*
X145285486Y-90769693D01*
X145519489Y-90800500D01*
X145519496Y-90800500D01*
X145755504Y-90800500D01*
X145755511Y-90800500D01*
X145989514Y-90769693D01*
X146217493Y-90708606D01*
X146435549Y-90618284D01*
X146639950Y-90500273D01*
X146827199Y-90356592D01*
X146994092Y-90189699D01*
X147137773Y-90002450D01*
X147255784Y-89798049D01*
X147346106Y-89579993D01*
X147407193Y-89352014D01*
X147430917Y-89171810D01*
X147459182Y-89107917D01*
X147517506Y-89069445D01*
X147587371Y-89068613D01*
X147646595Y-89105685D01*
G37*
%TD.AperFunction*%
%TA.AperFunction,Conductor*%
G36*
X146864678Y-85152041D02*
G01*
X146870041Y-85150955D01*
X146897843Y-85161779D01*
X146926468Y-85170185D01*
X146931403Y-85174846D01*
X146935150Y-85176305D01*
X146959745Y-85201612D01*
X146991889Y-85245854D01*
X147065534Y-85347219D01*
X147210286Y-85491971D01*
X147355883Y-85597751D01*
X147375890Y-85612287D01*
X147455953Y-85653081D01*
X147558276Y-85705218D01*
X147558278Y-85705218D01*
X147558281Y-85705220D01*
X147639443Y-85731591D01*
X147752965Y-85768477D01*
X147854057Y-85784488D01*
X147955148Y-85800500D01*
X147955149Y-85800500D01*
X148159851Y-85800500D01*
X148159852Y-85800500D01*
X148362034Y-85768477D01*
X148556719Y-85705220D01*
X148739110Y-85612287D01*
X148893660Y-85500001D01*
X148904713Y-85491971D01*
X148904715Y-85491968D01*
X148904719Y-85491966D01*
X149049466Y-85347219D01*
X149123111Y-85245853D01*
X149178441Y-85203187D01*
X149248054Y-85197207D01*
X149309849Y-85229813D01*
X149311111Y-85231057D01*
X155229720Y-91149666D01*
X155259969Y-91199026D01*
X155269778Y-91229215D01*
X155362715Y-91411614D01*
X155483028Y-91577213D01*
X155627786Y-91721971D01*
X155707354Y-91779779D01*
X155793390Y-91842287D01*
X155884840Y-91888883D01*
X155886080Y-91889515D01*
X155936876Y-91937490D01*
X155953671Y-92005311D01*
X155931134Y-92071446D01*
X155886080Y-92110485D01*
X155793386Y-92157715D01*
X155627786Y-92278028D01*
X155483028Y-92422786D01*
X155362715Y-92588386D01*
X155269781Y-92770776D01*
X155206522Y-92965465D01*
X155174500Y-93167648D01*
X155174500Y-93372351D01*
X155202654Y-93550111D01*
X155193699Y-93619405D01*
X155167862Y-93657190D01*
X151494726Y-97330326D01*
X151423534Y-97436874D01*
X151374499Y-97555255D01*
X151374497Y-97555261D01*
X151349500Y-97680928D01*
X151349500Y-101429192D01*
X151329815Y-101496231D01*
X151313181Y-101516873D01*
X150016873Y-102813181D01*
X149955550Y-102846666D01*
X149929192Y-102849500D01*
X144186573Y-102849500D01*
X144119534Y-102829815D01*
X144073779Y-102777011D01*
X144063835Y-102707853D01*
X144092860Y-102644297D01*
X144130277Y-102615016D01*
X144136466Y-102611862D01*
X144136468Y-102611861D01*
X144181042Y-102579474D01*
X143501567Y-101900000D01*
X143507782Y-101900000D01*
X143609515Y-101872741D01*
X143700727Y-101820080D01*
X143775201Y-101745606D01*
X143827862Y-101654394D01*
X143855121Y-101552661D01*
X143855121Y-101546448D01*
X144534595Y-102225922D01*
X144534595Y-102225921D01*
X144566980Y-102181349D01*
X144659876Y-101999031D01*
X144723111Y-101804417D01*
X144755121Y-101602317D01*
X144755121Y-101397682D01*
X144723111Y-101195582D01*
X144659876Y-101000968D01*
X144566980Y-100818650D01*
X144534595Y-100774077D01*
X144534595Y-100774076D01*
X143855121Y-101453551D01*
X143855121Y-101447339D01*
X143827862Y-101345606D01*
X143775201Y-101254394D01*
X143700727Y-101179920D01*
X143609515Y-101127259D01*
X143507782Y-101100000D01*
X143501567Y-101100000D01*
X144181043Y-100420524D01*
X144181042Y-100420523D01*
X144136480Y-100388147D01*
X144136471Y-100388141D01*
X143954152Y-100295244D01*
X143759538Y-100232009D01*
X143557438Y-100200000D01*
X143352804Y-100200000D01*
X143150703Y-100232009D01*
X142956089Y-100295244D01*
X142773765Y-100388143D01*
X142729198Y-100420523D01*
X142729198Y-100420524D01*
X143408675Y-101100000D01*
X143402460Y-101100000D01*
X143300727Y-101127259D01*
X143209515Y-101179920D01*
X143135041Y-101254394D01*
X143082380Y-101345606D01*
X143055121Y-101447339D01*
X143055121Y-101453553D01*
X142370634Y-100769066D01*
X142320970Y-100758633D01*
X142271214Y-100709581D01*
X142259197Y-100678947D01*
X142255620Y-100664377D01*
X142255620Y-100652128D01*
X142249212Y-100592517D01*
X142216333Y-100504365D01*
X142216332Y-100504359D01*
X142198918Y-100457671D01*
X142198914Y-100457664D01*
X142112668Y-100342455D01*
X142112665Y-100342452D01*
X141997456Y-100256206D01*
X141997449Y-100256202D01*
X141862603Y-100205908D01*
X141862604Y-100205908D01*
X141803004Y-100199501D01*
X141803002Y-100199500D01*
X141802994Y-100199500D01*
X141802985Y-100199500D01*
X140107250Y-100199500D01*
X140107244Y-100199501D01*
X140047637Y-100205908D01*
X139912792Y-100256202D01*
X139912785Y-100256206D01*
X139797576Y-100342452D01*
X139797573Y-100342455D01*
X139711327Y-100457664D01*
X139711323Y-100457671D01*
X139661029Y-100592517D01*
X139654622Y-100652116D01*
X139654621Y-100652135D01*
X139654621Y-100775500D01*
X139634936Y-100842539D01*
X139582132Y-100888294D01*
X139530621Y-100899500D01*
X138048792Y-100899500D01*
X137981753Y-100879815D01*
X137935998Y-100827011D01*
X137926054Y-100757853D01*
X137926319Y-100756102D01*
X137938000Y-100682351D01*
X137938000Y-100477648D01*
X137905977Y-100275465D01*
X137857400Y-100125961D01*
X137842720Y-100080781D01*
X137842718Y-100080778D01*
X137842718Y-100080776D01*
X137749919Y-99898650D01*
X137749787Y-99898390D01*
X137742056Y-99887749D01*
X137629471Y-99732786D01*
X137524319Y-99627634D01*
X137490834Y-99566311D01*
X137488000Y-99539953D01*
X137488000Y-95897682D01*
X139337500Y-95897682D01*
X139337500Y-96102317D01*
X139369509Y-96304417D01*
X139432744Y-96499031D01*
X139525641Y-96681350D01*
X139525647Y-96681359D01*
X139558023Y-96725921D01*
X139558024Y-96725922D01*
X140237500Y-96046446D01*
X140237500Y-96052661D01*
X140264759Y-96154394D01*
X140317420Y-96245606D01*
X140391894Y-96320080D01*
X140483106Y-96372741D01*
X140584839Y-96400000D01*
X140591053Y-96400000D01*
X139911576Y-97079474D01*
X139956150Y-97111859D01*
X140138468Y-97204755D01*
X140333082Y-97267990D01*
X140535183Y-97300000D01*
X140739817Y-97300000D01*
X140941917Y-97267990D01*
X141136531Y-97204755D01*
X141318849Y-97111859D01*
X141363421Y-97079474D01*
X140683947Y-96400000D01*
X140690161Y-96400000D01*
X140791894Y-96372741D01*
X140883106Y-96320080D01*
X140957580Y-96245606D01*
X141010241Y-96154394D01*
X141037500Y-96052661D01*
X141037500Y-96046447D01*
X141716974Y-96725921D01*
X141749359Y-96681349D01*
X141842255Y-96499031D01*
X141905490Y-96304417D01*
X141937500Y-96102317D01*
X141937500Y-95897682D01*
X141905490Y-95695582D01*
X141842255Y-95500968D01*
X141749359Y-95318650D01*
X141716974Y-95274077D01*
X141716974Y-95274076D01*
X141037500Y-95953551D01*
X141037500Y-95947339D01*
X141010241Y-95845606D01*
X140957580Y-95754394D01*
X140883106Y-95679920D01*
X140791894Y-95627259D01*
X140690161Y-95600000D01*
X140683946Y-95600000D01*
X141363422Y-94920524D01*
X141363421Y-94920523D01*
X141318859Y-94888147D01*
X141318850Y-94888141D01*
X141136531Y-94795244D01*
X140941917Y-94732009D01*
X140739817Y-94700000D01*
X140535183Y-94700000D01*
X140333082Y-94732009D01*
X140138468Y-94795244D01*
X139956144Y-94888143D01*
X139911577Y-94920523D01*
X139911577Y-94920524D01*
X140591054Y-95600000D01*
X140584839Y-95600000D01*
X140483106Y-95627259D01*
X140391894Y-95679920D01*
X140317420Y-95754394D01*
X140264759Y-95845606D01*
X140237500Y-95947339D01*
X140237500Y-95953553D01*
X139558024Y-95274077D01*
X139558023Y-95274077D01*
X139525643Y-95318644D01*
X139432744Y-95500968D01*
X139369509Y-95695582D01*
X139337500Y-95897682D01*
X137488000Y-95897682D01*
X137488000Y-93553732D01*
X137487999Y-93553728D01*
X137459680Y-93411357D01*
X137455316Y-93389418D01*
X137436537Y-93344084D01*
X137391204Y-93234637D01*
X137298127Y-93095338D01*
X137298124Y-93095334D01*
X136043892Y-91841102D01*
X136010407Y-91779779D01*
X136015391Y-91710087D01*
X136057263Y-91654154D01*
X136122727Y-91629737D01*
X136169886Y-91635489D01*
X136294087Y-91675844D01*
X136332965Y-91688477D01*
X136434057Y-91704488D01*
X136535148Y-91720500D01*
X136535149Y-91720500D01*
X136739851Y-91720500D01*
X136739852Y-91720500D01*
X136942034Y-91688477D01*
X137136719Y-91625220D01*
X137319110Y-91532287D01*
X137424220Y-91455921D01*
X137484713Y-91411971D01*
X137484715Y-91411968D01*
X137484719Y-91411966D01*
X137589866Y-91306819D01*
X137651189Y-91273334D01*
X137677547Y-91270500D01*
X139301268Y-91270500D01*
X139301269Y-91270499D01*
X139465582Y-91237816D01*
X139513390Y-91218013D01*
X139620363Y-91173704D01*
X139759662Y-91080627D01*
X140065385Y-90774902D01*
X140126707Y-90741419D01*
X140185157Y-90742809D01*
X140285486Y-90769693D01*
X140519489Y-90800500D01*
X140519496Y-90800500D01*
X140755504Y-90800500D01*
X140755511Y-90800500D01*
X140989514Y-90769693D01*
X141217493Y-90708606D01*
X141435549Y-90618284D01*
X141547363Y-90553728D01*
X143149500Y-90553728D01*
X143149500Y-97083767D01*
X143156606Y-97119498D01*
X143182182Y-97248074D01*
X143182184Y-97248082D01*
X143246296Y-97402863D01*
X143246297Y-97402866D01*
X143339372Y-97542161D01*
X143339375Y-97542165D01*
X145934875Y-100137664D01*
X145968360Y-100198987D01*
X145969667Y-100205946D01*
X145996409Y-100374782D01*
X145996410Y-100374785D01*
X146074259Y-100614379D01*
X146182600Y-100827011D01*
X146188632Y-100838848D01*
X146336701Y-101042649D01*
X146336705Y-101042654D01*
X146514845Y-101220794D01*
X146514850Y-101220798D01*
X146632013Y-101305921D01*
X146718655Y-101368870D01*
X146833160Y-101427213D01*
X146943116Y-101483239D01*
X146943118Y-101483239D01*
X146943121Y-101483241D01*
X147182715Y-101561090D01*
X147431538Y-101600500D01*
X147431539Y-101600500D01*
X147683461Y-101600500D01*
X147683462Y-101600500D01*
X147932285Y-101561090D01*
X148171879Y-101483241D01*
X148396345Y-101368870D01*
X148600156Y-101220793D01*
X148778293Y-101042656D01*
X148926370Y-100838845D01*
X149040741Y-100614379D01*
X149118590Y-100374785D01*
X149158000Y-100125962D01*
X149158000Y-99874038D01*
X149118590Y-99625215D01*
X149040741Y-99385621D01*
X149040739Y-99385618D01*
X149040739Y-99385616D01*
X148986670Y-99279500D01*
X148926370Y-99161155D01*
X148907452Y-99135117D01*
X148778298Y-98957350D01*
X148778294Y-98957345D01*
X148600154Y-98779205D01*
X148600149Y-98779201D01*
X148396348Y-98631132D01*
X148396347Y-98631131D01*
X148396345Y-98631130D01*
X148265025Y-98564219D01*
X148171883Y-98516760D01*
X147932285Y-98438910D01*
X147683462Y-98399500D01*
X147431538Y-98399500D01*
X147348597Y-98412636D01*
X147182713Y-98438910D01*
X147182710Y-98438910D01*
X146943122Y-98516758D01*
X146943121Y-98516758D01*
X146875283Y-98551323D01*
X146806613Y-98564219D01*
X146741873Y-98537942D01*
X146731308Y-98528519D01*
X145707717Y-97504928D01*
X145674232Y-97443605D01*
X145679216Y-97373913D01*
X145721088Y-97317980D01*
X145775997Y-97294775D01*
X145942034Y-97268477D01*
X146136719Y-97205220D01*
X146319110Y-97112287D01*
X146412090Y-97044732D01*
X146484713Y-96991971D01*
X146484715Y-96991968D01*
X146484719Y-96991966D01*
X146629466Y-96847219D01*
X146749787Y-96681610D01*
X146842720Y-96499219D01*
X146905977Y-96304534D01*
X146938000Y-96102352D01*
X146938000Y-95897648D01*
X146924118Y-95809999D01*
X146909845Y-95719886D01*
X146918800Y-95650593D01*
X146944634Y-95612810D01*
X147516100Y-95041344D01*
X147577421Y-95007861D01*
X147647113Y-95012845D01*
X147703046Y-95054717D01*
X147727463Y-95120181D01*
X147714264Y-95185321D01*
X147650245Y-95310965D01*
X147587009Y-95505582D01*
X147555000Y-95707682D01*
X147555000Y-95912317D01*
X147587009Y-96114417D01*
X147650244Y-96309031D01*
X147743141Y-96491350D01*
X147743147Y-96491359D01*
X147775523Y-96535921D01*
X147775524Y-96535922D01*
X148455000Y-95856446D01*
X148455000Y-95862661D01*
X148482259Y-95964394D01*
X148534920Y-96055606D01*
X148609394Y-96130080D01*
X148700606Y-96182741D01*
X148802339Y-96210000D01*
X148808553Y-96210000D01*
X148129076Y-96889474D01*
X148173650Y-96921859D01*
X148355968Y-97014755D01*
X148550582Y-97077990D01*
X148752683Y-97110000D01*
X148957317Y-97110000D01*
X149159417Y-97077990D01*
X149354031Y-97014755D01*
X149536349Y-96921859D01*
X149580921Y-96889474D01*
X148901447Y-96210000D01*
X148907661Y-96210000D01*
X149009394Y-96182741D01*
X149100606Y-96130080D01*
X149175080Y-96055606D01*
X149227741Y-95964394D01*
X149255000Y-95862661D01*
X149255000Y-95856448D01*
X149934474Y-96535922D01*
X149934474Y-96535921D01*
X149966859Y-96491349D01*
X150059755Y-96309031D01*
X150122990Y-96114417D01*
X150155000Y-95912317D01*
X150155000Y-95707682D01*
X150122990Y-95505582D01*
X150059755Y-95310968D01*
X149966859Y-95128650D01*
X149934474Y-95084077D01*
X149934474Y-95084076D01*
X149255000Y-95763551D01*
X149255000Y-95757339D01*
X149227741Y-95655606D01*
X149175080Y-95564394D01*
X149100606Y-95489920D01*
X149009394Y-95437259D01*
X148907661Y-95410000D01*
X148901446Y-95410000D01*
X149580922Y-94730524D01*
X149580921Y-94730523D01*
X149536359Y-94698147D01*
X149536350Y-94698141D01*
X149443369Y-94650765D01*
X149392573Y-94602790D01*
X149375778Y-94534969D01*
X149398315Y-94468835D01*
X149443370Y-94429795D01*
X149536610Y-94382287D01*
X149586144Y-94346298D01*
X149702213Y-94261971D01*
X149702215Y-94261968D01*
X149702219Y-94261966D01*
X149846966Y-94117219D01*
X149846968Y-94117215D01*
X149846971Y-94117213D01*
X149921382Y-94014793D01*
X149967287Y-93951610D01*
X150060220Y-93769219D01*
X150123477Y-93574534D01*
X150155500Y-93372352D01*
X150155500Y-93167648D01*
X150123477Y-92965466D01*
X150060220Y-92770781D01*
X150060218Y-92770778D01*
X150060218Y-92770776D01*
X150026503Y-92704607D01*
X149967287Y-92588390D01*
X149959556Y-92577749D01*
X149846971Y-92422786D01*
X149702213Y-92278028D01*
X149536611Y-92157713D01*
X149443369Y-92110203D01*
X149392574Y-92062229D01*
X149375779Y-91994407D01*
X149398317Y-91928273D01*
X149443371Y-91889234D01*
X149536346Y-91841861D01*
X149536347Y-91841861D01*
X149580921Y-91809474D01*
X148901447Y-91130000D01*
X148907661Y-91130000D01*
X149009394Y-91102741D01*
X149100606Y-91050080D01*
X149175080Y-90975606D01*
X149227741Y-90884394D01*
X149255000Y-90782661D01*
X149255000Y-90776448D01*
X149934474Y-91455922D01*
X149934474Y-91455921D01*
X149966859Y-91411349D01*
X150059755Y-91229031D01*
X150122990Y-91034417D01*
X150155000Y-90832317D01*
X150155000Y-90627682D01*
X150122990Y-90425582D01*
X150059755Y-90230968D01*
X149966859Y-90048650D01*
X149934474Y-90004077D01*
X149934474Y-90004076D01*
X149255000Y-90683551D01*
X149255000Y-90677339D01*
X149227741Y-90575606D01*
X149175080Y-90484394D01*
X149100606Y-90409920D01*
X149009394Y-90357259D01*
X148907661Y-90330000D01*
X148901446Y-90330000D01*
X149580922Y-89650524D01*
X149579570Y-89633349D01*
X149565299Y-89614842D01*
X149559320Y-89545229D01*
X149591925Y-89483433D01*
X149641845Y-89452148D01*
X149724334Y-89424814D01*
X149873656Y-89332712D01*
X149997712Y-89208656D01*
X150089814Y-89059334D01*
X150144999Y-88892797D01*
X150155500Y-88790009D01*
X150155499Y-87589992D01*
X150144999Y-87487203D01*
X150089814Y-87320666D01*
X149997712Y-87171344D01*
X149873656Y-87047288D01*
X149724334Y-86955186D01*
X149557797Y-86900001D01*
X149557795Y-86900000D01*
X149455010Y-86889500D01*
X148254998Y-86889500D01*
X148254981Y-86889501D01*
X148152203Y-86900000D01*
X148152200Y-86900001D01*
X147985668Y-86955185D01*
X147985663Y-86955187D01*
X147836342Y-87047289D01*
X147712289Y-87171342D01*
X147644901Y-87280597D01*
X147592953Y-87327321D01*
X147539362Y-87339500D01*
X146358296Y-87339500D01*
X146310843Y-87330061D01*
X146217493Y-87291394D01*
X145989510Y-87230306D01*
X145755520Y-87199501D01*
X145755517Y-87199500D01*
X145755511Y-87199500D01*
X145519489Y-87199500D01*
X145519483Y-87199500D01*
X145519479Y-87199501D01*
X145285489Y-87230306D01*
X145057506Y-87291394D01*
X144839454Y-87381714D01*
X144839443Y-87381719D01*
X144635045Y-87499730D01*
X144447802Y-87643406D01*
X144447795Y-87643412D01*
X144280912Y-87810295D01*
X144280906Y-87810302D01*
X144137230Y-87997545D01*
X144019219Y-88201943D01*
X144019214Y-88201954D01*
X143928894Y-88420006D01*
X143867806Y-88647989D01*
X143837001Y-88881979D01*
X143837000Y-88881995D01*
X143837000Y-89118004D01*
X143837001Y-89118020D01*
X143867805Y-89352003D01*
X143867806Y-89352008D01*
X143867807Y-89352014D01*
X143887314Y-89424815D01*
X143894689Y-89452340D01*
X143893026Y-89522190D01*
X143862595Y-89572114D01*
X143339375Y-90095334D01*
X143339372Y-90095338D01*
X143246297Y-90234633D01*
X143246296Y-90234636D01*
X143212872Y-90315330D01*
X143212872Y-90315331D01*
X143182184Y-90389417D01*
X143182182Y-90389425D01*
X143149500Y-90553728D01*
X141547363Y-90553728D01*
X141639950Y-90500273D01*
X141827199Y-90356592D01*
X141994092Y-90189699D01*
X142137773Y-90002450D01*
X142255784Y-89798049D01*
X142346106Y-89579993D01*
X142407193Y-89352014D01*
X142438000Y-89118011D01*
X142438000Y-88881989D01*
X142407193Y-88647986D01*
X142346106Y-88420007D01*
X142316695Y-88349003D01*
X142309226Y-88279533D01*
X142340501Y-88217054D01*
X142343546Y-88213898D01*
X145370627Y-85186819D01*
X145431950Y-85153334D01*
X145458308Y-85150500D01*
X146859429Y-85150500D01*
X146864678Y-85152041D01*
G37*
%TD.AperFunction*%
%TA.AperFunction,Conductor*%
G36*
X173942539Y-82020185D02*
G01*
X173988294Y-82072989D01*
X173999500Y-82124500D01*
X173999500Y-141875500D01*
X173979815Y-141942539D01*
X173927011Y-141988294D01*
X173875500Y-141999500D01*
X83624500Y-141999500D01*
X83557461Y-141979815D01*
X83511706Y-141927011D01*
X83500500Y-141875500D01*
X83500500Y-123087648D01*
X137169500Y-123087648D01*
X137169500Y-123292351D01*
X137201522Y-123494534D01*
X137264781Y-123689223D01*
X137309433Y-123776856D01*
X137357585Y-123871359D01*
X137357715Y-123871613D01*
X137478028Y-124037213D01*
X137622786Y-124181971D01*
X137739646Y-124266873D01*
X137788390Y-124302287D01*
X137897040Y-124357647D01*
X137970776Y-124395218D01*
X137970778Y-124395218D01*
X137970781Y-124395220D01*
X138075137Y-124429127D01*
X138165465Y-124458477D01*
X138266557Y-124474488D01*
X138367648Y-124490500D01*
X138367649Y-124490500D01*
X138572351Y-124490500D01*
X138572352Y-124490500D01*
X138750112Y-124462345D01*
X138819405Y-124471299D01*
X138857191Y-124497137D01*
X139313181Y-124953127D01*
X139346666Y-125014450D01*
X139349500Y-125040808D01*
X139349500Y-131998586D01*
X139329815Y-132065625D01*
X139287501Y-132105973D01*
X139190243Y-132162125D01*
X139190232Y-132162132D01*
X139085555Y-132242455D01*
X139085545Y-132242464D01*
X138992464Y-132335545D01*
X138992455Y-132335555D01*
X138912132Y-132440232D01*
X138912120Y-132440250D01*
X138846303Y-132554248D01*
X138846302Y-132554249D01*
X138795800Y-132676170D01*
X138761724Y-132803341D01*
X138744500Y-132934166D01*
X138744500Y-133500002D01*
X138749644Y-133571940D01*
X138790182Y-133709994D01*
X138867967Y-133831030D01*
X138867971Y-133831034D01*
X138959102Y-133910000D01*
X138976706Y-133925254D01*
X139017174Y-133943735D01*
X139107580Y-133985023D01*
X139107583Y-133985023D01*
X139107584Y-133985024D01*
X139250000Y-134005500D01*
X139250003Y-134005500D01*
X140750000Y-134005500D01*
X140821940Y-134000355D01*
X140959992Y-133959819D01*
X141081032Y-133882031D01*
X141175254Y-133773294D01*
X141235024Y-133642416D01*
X141255500Y-133500000D01*
X141255500Y-132934174D01*
X141238275Y-132803338D01*
X141204200Y-132676171D01*
X141153701Y-132554257D01*
X141153698Y-132554252D01*
X141153697Y-132554249D01*
X141153696Y-132554248D01*
X141087879Y-132440250D01*
X141087875Y-132440243D01*
X141007541Y-132335551D01*
X140914449Y-132242459D01*
X140914444Y-132242455D01*
X140809767Y-132162132D01*
X140809761Y-132162128D01*
X140809757Y-132162125D01*
X140712499Y-132105973D01*
X140664284Y-132055406D01*
X140650500Y-131998586D01*
X140650500Y-125369808D01*
X140670185Y-125302769D01*
X140722989Y-125257014D01*
X140792147Y-125247070D01*
X140855703Y-125276095D01*
X140862181Y-125282127D01*
X143085325Y-127505272D01*
X143085328Y-127505275D01*
X143188228Y-127574030D01*
X143190085Y-127575270D01*
X143191873Y-127576465D01*
X143310256Y-127625501D01*
X143310260Y-127625501D01*
X143310261Y-127625502D01*
X143435928Y-127650500D01*
X143435931Y-127650500D01*
X146126929Y-127650500D01*
X146193968Y-127670185D01*
X146227245Y-127701613D01*
X146333030Y-127847213D01*
X146333034Y-127847219D01*
X146477786Y-127991971D01*
X146632749Y-128104556D01*
X146643390Y-128112287D01*
X146759607Y-128171503D01*
X146825776Y-128205218D01*
X146825778Y-128205218D01*
X146825781Y-128205220D01*
X146930137Y-128239127D01*
X147020465Y-128268477D01*
X147121557Y-128284488D01*
X147222648Y-128300500D01*
X147222649Y-128300500D01*
X147427351Y-128300500D01*
X147427352Y-128300500D01*
X147629534Y-128268477D01*
X147824219Y-128205220D01*
X148006610Y-128112287D01*
X148099590Y-128044732D01*
X148172213Y-127991971D01*
X148172215Y-127991968D01*
X148172219Y-127991966D01*
X148316966Y-127847219D01*
X148316968Y-127847215D01*
X148316971Y-127847213D01*
X148369732Y-127774590D01*
X148437287Y-127681610D01*
X148530220Y-127499219D01*
X148593477Y-127304534D01*
X148625500Y-127102352D01*
X148625500Y-126897648D01*
X148593477Y-126695466D01*
X148530220Y-126500781D01*
X148530218Y-126500778D01*
X148530218Y-126500776D01*
X148467299Y-126377292D01*
X148437287Y-126318390D01*
X148422753Y-126298385D01*
X148316971Y-126152786D01*
X148172213Y-126008028D01*
X148006614Y-125887715D01*
X148000006Y-125884348D01*
X147913917Y-125840483D01*
X147863123Y-125792511D01*
X147846328Y-125724690D01*
X147868865Y-125658555D01*
X147913917Y-125619516D01*
X148006610Y-125572287D01*
X148027770Y-125556913D01*
X148172213Y-125451971D01*
X148172215Y-125451968D01*
X148172219Y-125451966D01*
X148237366Y-125386819D01*
X148298689Y-125353334D01*
X148325047Y-125350500D01*
X149096349Y-125350500D01*
X149163388Y-125370185D01*
X149184030Y-125386819D01*
X150113181Y-126315969D01*
X150146666Y-126377292D01*
X150149500Y-126403650D01*
X150149500Y-134096349D01*
X150129815Y-134163388D01*
X150113181Y-134184030D01*
X147184030Y-137113181D01*
X147122707Y-137146666D01*
X147096349Y-137149500D01*
X140821116Y-137149500D01*
X140759116Y-137132887D01*
X140695751Y-137096303D01*
X140695750Y-137096302D01*
X140686163Y-137092331D01*
X140573829Y-137045800D01*
X140446662Y-137011725D01*
X140446661Y-137011724D01*
X140446658Y-137011724D01*
X140315833Y-136994500D01*
X140315826Y-136994500D01*
X139684174Y-136994500D01*
X139684166Y-136994500D01*
X139553341Y-137011724D01*
X139426170Y-137045800D01*
X139304249Y-137096302D01*
X139304248Y-137096303D01*
X139190250Y-137162120D01*
X139190232Y-137162132D01*
X139085555Y-137242455D01*
X139085545Y-137242464D01*
X138992464Y-137335545D01*
X138992455Y-137335555D01*
X138912132Y-137440232D01*
X138912120Y-137440250D01*
X138846303Y-137554248D01*
X138846302Y-137554249D01*
X138795800Y-137676170D01*
X138761724Y-137803341D01*
X138744500Y-137934166D01*
X138744500Y-138500002D01*
X138749644Y-138571939D01*
X138760603Y-138609262D01*
X138764363Y-138661841D01*
X138744500Y-138799998D01*
X138744500Y-139365833D01*
X138761724Y-139496658D01*
X138795800Y-139623829D01*
X138846302Y-139745750D01*
X138846303Y-139745751D01*
X138912120Y-139859749D01*
X138912132Y-139859767D01*
X138989524Y-139960624D01*
X138992459Y-139964449D01*
X139085551Y-140057541D01*
X139085555Y-140057544D01*
X139190232Y-140137867D01*
X139190236Y-140137869D01*
X139190243Y-140137875D01*
X139190250Y-140137879D01*
X139304248Y-140203696D01*
X139304249Y-140203697D01*
X139304252Y-140203698D01*
X139304257Y-140203701D01*
X139426171Y-140254200D01*
X139553338Y-140288275D01*
X139684174Y-140305500D01*
X139684181Y-140305500D01*
X140315819Y-140305500D01*
X140315826Y-140305500D01*
X140446662Y-140288275D01*
X140573829Y-140254200D01*
X140695743Y-140203701D01*
X140728646Y-140184704D01*
X140759116Y-140167113D01*
X140821116Y-140150500D01*
X148283768Y-140150500D01*
X148283769Y-140150499D01*
X148347278Y-140137867D01*
X148448074Y-140117818D01*
X148448078Y-140117816D01*
X148448082Y-140117816D01*
X148493415Y-140099037D01*
X148602863Y-140053704D01*
X148742162Y-139960627D01*
X151315970Y-137386819D01*
X151377293Y-137353334D01*
X151403651Y-137350500D01*
X153612604Y-137350500D01*
X153679643Y-137370185D01*
X153700285Y-137386819D01*
X153805437Y-137491971D01*
X153960400Y-137604556D01*
X153971041Y-137612287D01*
X154059863Y-137657544D01*
X154153427Y-137705218D01*
X154153429Y-137705218D01*
X154153432Y-137705220D01*
X154257788Y-137739127D01*
X154348116Y-137768477D01*
X154449208Y-137784488D01*
X154550299Y-137800500D01*
X154550300Y-137800500D01*
X154755002Y-137800500D01*
X154755003Y-137800500D01*
X154957185Y-137768477D01*
X155151870Y-137705220D01*
X155334261Y-137612287D01*
X155430552Y-137542328D01*
X155499864Y-137491971D01*
X155499866Y-137491968D01*
X155499870Y-137491966D01*
X155644617Y-137347219D01*
X155644619Y-137347215D01*
X155644622Y-137347213D01*
X155697383Y-137274590D01*
X155764938Y-137181610D01*
X155857871Y-136999219D01*
X155921128Y-136804534D01*
X155953151Y-136602352D01*
X155953151Y-136397648D01*
X155942575Y-136330875D01*
X155921128Y-136195465D01*
X155863362Y-136017680D01*
X155857871Y-136000781D01*
X155857869Y-136000778D01*
X155857869Y-136000776D01*
X155764938Y-135818390D01*
X155694683Y-135721691D01*
X155694682Y-135721688D01*
X155644622Y-135652787D01*
X155644618Y-135652782D01*
X155643971Y-135652135D01*
X156852151Y-135652135D01*
X156852151Y-137347870D01*
X156852152Y-137347876D01*
X156858559Y-137407483D01*
X156908853Y-137542328D01*
X156908857Y-137542335D01*
X156995103Y-137657544D01*
X156995106Y-137657547D01*
X157110315Y-137743793D01*
X157110322Y-137743797D01*
X157245168Y-137794091D01*
X157245167Y-137794091D01*
X157252095Y-137794835D01*
X157304778Y-137800500D01*
X159000523Y-137800499D01*
X159060134Y-137794091D01*
X159194982Y-137743796D01*
X159310197Y-137657546D01*
X159396447Y-137542331D01*
X159446742Y-137407483D01*
X159447548Y-137399986D01*
X163800001Y-137399986D01*
X163810494Y-137502697D01*
X163865641Y-137669119D01*
X163865643Y-137669124D01*
X163957684Y-137818345D01*
X164081654Y-137942315D01*
X164230875Y-138034356D01*
X164230880Y-138034358D01*
X164397302Y-138089505D01*
X164397309Y-138089506D01*
X164500019Y-138099999D01*
X164749999Y-138099999D01*
X165250000Y-138099999D01*
X165499972Y-138099999D01*
X165499986Y-138099998D01*
X165602697Y-138089505D01*
X165769119Y-138034358D01*
X165769124Y-138034356D01*
X165918345Y-137942315D01*
X166042315Y-137818345D01*
X166134356Y-137669124D01*
X166134358Y-137669119D01*
X166189505Y-137502697D01*
X166189506Y-137502690D01*
X166199999Y-137399986D01*
X166200000Y-137399973D01*
X166200000Y-137250000D01*
X165250000Y-137250000D01*
X165250000Y-138099999D01*
X164749999Y-138099999D01*
X164750000Y-138099998D01*
X164750000Y-137250000D01*
X163800001Y-137250000D01*
X163800001Y-137399986D01*
X159447548Y-137399986D01*
X159453151Y-137347873D01*
X159453150Y-136453649D01*
X159472834Y-136386611D01*
X159489464Y-136365974D01*
X159968620Y-135886819D01*
X160029943Y-135853334D01*
X160056301Y-135850500D01*
X163937770Y-135850500D01*
X163967210Y-135859144D01*
X163997197Y-135865668D01*
X164002212Y-135869422D01*
X164004809Y-135870185D01*
X164025451Y-135886819D01*
X164051304Y-135912672D01*
X164084789Y-135973995D01*
X164079805Y-136043687D01*
X164051305Y-136088034D01*
X163957682Y-136181657D01*
X163865643Y-136330875D01*
X163865641Y-136330880D01*
X163810494Y-136497302D01*
X163810493Y-136497309D01*
X163800000Y-136600013D01*
X163800000Y-136750000D01*
X166199999Y-136750000D01*
X166199999Y-136600028D01*
X166199998Y-136600013D01*
X166189505Y-136497302D01*
X166134358Y-136330880D01*
X166134356Y-136330875D01*
X166042315Y-136181654D01*
X165948695Y-136088034D01*
X165944356Y-136080089D01*
X165937107Y-136074662D01*
X165927871Y-136049899D01*
X165915210Y-136026711D01*
X165915855Y-136017680D01*
X165912692Y-136009197D01*
X165918308Y-135983378D01*
X165920194Y-135957019D01*
X165926013Y-135947963D01*
X165927545Y-135940924D01*
X165948690Y-135912677D01*
X165974552Y-135886815D01*
X166035874Y-135853333D01*
X166062230Y-135850500D01*
X167250500Y-135850500D01*
X167317539Y-135870185D01*
X167363294Y-135922989D01*
X167374500Y-135974500D01*
X167374500Y-136897870D01*
X167374501Y-136897876D01*
X167380908Y-136957483D01*
X167431202Y-137092328D01*
X167431206Y-137092335D01*
X167517452Y-137207544D01*
X167517455Y-137207547D01*
X167632664Y-137293793D01*
X167632671Y-137293797D01*
X167767517Y-137344091D01*
X167767516Y-137344091D01*
X167774444Y-137344835D01*
X167827127Y-137350500D01*
X169622872Y-137350499D01*
X169682483Y-137344091D01*
X169817331Y-137293796D01*
X169932546Y-137207546D01*
X170018796Y-137092331D01*
X170068002Y-136960401D01*
X170109872Y-136904468D01*
X170175337Y-136880050D01*
X170243610Y-136894901D01*
X170271865Y-136916053D01*
X170385535Y-137029723D01*
X170385540Y-137029727D01*
X170557442Y-137154620D01*
X170746782Y-137251095D01*
X170948871Y-137316757D01*
X171015000Y-137327231D01*
X171015000Y-136433012D01*
X171072007Y-136465925D01*
X171199174Y-136500000D01*
X171330826Y-136500000D01*
X171457993Y-136465925D01*
X171515000Y-136433012D01*
X171515000Y-137327230D01*
X171581126Y-137316757D01*
X171581129Y-137316757D01*
X171783217Y-137251095D01*
X171972557Y-137154620D01*
X172144459Y-137029727D01*
X172144464Y-137029723D01*
X172294723Y-136879464D01*
X172294727Y-136879459D01*
X172419620Y-136707557D01*
X172516095Y-136518217D01*
X172581757Y-136316129D01*
X172581757Y-136316126D01*
X172592231Y-136250000D01*
X171698012Y-136250000D01*
X171730925Y-136192993D01*
X171765000Y-136065826D01*
X171765000Y-135934174D01*
X171730925Y-135807007D01*
X171698012Y-135750000D01*
X172592231Y-135750000D01*
X172581757Y-135683873D01*
X172581757Y-135683870D01*
X172516095Y-135481782D01*
X172419620Y-135292442D01*
X172294727Y-135120540D01*
X172294723Y-135120535D01*
X172144464Y-134970276D01*
X172144459Y-134970272D01*
X171972557Y-134845379D01*
X171783215Y-134748903D01*
X171581124Y-134683241D01*
X171515000Y-134672768D01*
X171515000Y-135566988D01*
X171457993Y-135534075D01*
X171330826Y-135500000D01*
X171199174Y-135500000D01*
X171072007Y-135534075D01*
X171015000Y-135566988D01*
X171015000Y-134672768D01*
X171014999Y-134672768D01*
X170948875Y-134683241D01*
X170746784Y-134748903D01*
X170557442Y-134845379D01*
X170385541Y-134970271D01*
X170271865Y-135083947D01*
X170210542Y-135117431D01*
X170140850Y-135112447D01*
X170084917Y-135070575D01*
X170068002Y-135039598D01*
X170018797Y-134907671D01*
X170018793Y-134907664D01*
X169932547Y-134792455D01*
X169932544Y-134792452D01*
X169817335Y-134706206D01*
X169817328Y-134706202D01*
X169682482Y-134655908D01*
X169682483Y-134655908D01*
X169622883Y-134649501D01*
X169622881Y-134649500D01*
X169622873Y-134649500D01*
X169622865Y-134649500D01*
X168628651Y-134649500D01*
X168561612Y-134629815D01*
X168540970Y-134613181D01*
X168267165Y-134339375D01*
X168267161Y-134339372D01*
X168127866Y-134246297D01*
X168127863Y-134246296D01*
X168018416Y-134200962D01*
X168018414Y-134200961D01*
X167973086Y-134182185D01*
X167973074Y-134182182D01*
X167808771Y-134149500D01*
X167808767Y-134149500D01*
X166062230Y-134149500D01*
X165995191Y-134129815D01*
X165974549Y-134113181D01*
X165918657Y-134057289D01*
X165918656Y-134057288D01*
X165769334Y-133965186D01*
X165602797Y-133910001D01*
X165602795Y-133910000D01*
X165500016Y-133899500D01*
X165500009Y-133899500D01*
X165496662Y-133899500D01*
X165472471Y-133897117D01*
X165396613Y-133882028D01*
X165358768Y-133874500D01*
X165358767Y-133874500D01*
X165191233Y-133874500D01*
X165153386Y-133882028D01*
X165077520Y-133897118D01*
X165053330Y-133899500D01*
X164499998Y-133899500D01*
X164499980Y-133899501D01*
X164397203Y-133910000D01*
X164397200Y-133910001D01*
X164230668Y-133965185D01*
X164230663Y-133965187D01*
X164081342Y-134057289D01*
X164025451Y-134113181D01*
X163964128Y-134146666D01*
X163937770Y-134149500D01*
X159568879Y-134149500D01*
X159404576Y-134182182D01*
X159404568Y-134182184D01*
X159249786Y-134246297D01*
X159249780Y-134246301D01*
X159110489Y-134339373D01*
X159110485Y-134339376D01*
X158286680Y-135163181D01*
X158225357Y-135196666D01*
X158198999Y-135199500D01*
X157304780Y-135199500D01*
X157304774Y-135199501D01*
X157245167Y-135205908D01*
X157110322Y-135256202D01*
X157110315Y-135256206D01*
X156995106Y-135342452D01*
X156995103Y-135342455D01*
X156908857Y-135457664D01*
X156908853Y-135457671D01*
X156858559Y-135592517D01*
X156852152Y-135652116D01*
X156852151Y-135652135D01*
X155643971Y-135652135D01*
X155499864Y-135508028D01*
X155334264Y-135387715D01*
X155334263Y-135387714D01*
X155334261Y-135387713D01*
X155277304Y-135358691D01*
X155151874Y-135294781D01*
X154957185Y-135231522D01*
X154782646Y-135203878D01*
X154755003Y-135199500D01*
X154550299Y-135199500D01*
X154525980Y-135203351D01*
X154348116Y-135231522D01*
X154153427Y-135294781D01*
X153971037Y-135387715D01*
X153805437Y-135508028D01*
X153805433Y-135508032D01*
X153700285Y-135613181D01*
X153638962Y-135646666D01*
X153612604Y-135649500D01*
X151352650Y-135649500D01*
X151285611Y-135629815D01*
X151239856Y-135577011D01*
X151229912Y-135507853D01*
X151258937Y-135444297D01*
X151264969Y-135437819D01*
X151660623Y-135042165D01*
X151660626Y-135042162D01*
X151753703Y-134902863D01*
X151799436Y-134792454D01*
X151817816Y-134748082D01*
X151850500Y-134583767D01*
X151850500Y-130434108D01*
X167499500Y-130434108D01*
X167499500Y-132565891D01*
X167533608Y-132693187D01*
X167566554Y-132750250D01*
X167599500Y-132807314D01*
X167692686Y-132900500D01*
X167806814Y-132966392D01*
X167934108Y-133000500D01*
X167934110Y-133000500D01*
X172065890Y-133000500D01*
X172065892Y-133000500D01*
X172193186Y-132966392D01*
X172307314Y-132900500D01*
X172400500Y-132807314D01*
X172466392Y-132693186D01*
X172500500Y-132565892D01*
X172500500Y-130434108D01*
X172466392Y-130306814D01*
X172400500Y-130192686D01*
X172307314Y-130099500D01*
X172250250Y-130066554D01*
X172193187Y-130033608D01*
X172087437Y-130005273D01*
X172065892Y-129999500D01*
X168065892Y-129999500D01*
X167934108Y-129999500D01*
X167806812Y-130033608D01*
X167692686Y-130099500D01*
X167692683Y-130099502D01*
X167599502Y-130192683D01*
X167599500Y-130192686D01*
X167533608Y-130306812D01*
X167499500Y-130434108D01*
X151850500Y-130434108D01*
X151850500Y-130274500D01*
X151870185Y-130207461D01*
X151922989Y-130161706D01*
X151974500Y-130150500D01*
X156314071Y-130150500D01*
X156398615Y-130133682D01*
X156439744Y-130125501D01*
X156558127Y-130076465D01*
X156664669Y-130005277D01*
X158362809Y-128307135D01*
X158424130Y-128273652D01*
X158469886Y-128272345D01*
X158566719Y-128287681D01*
X158647648Y-128300500D01*
X158647649Y-128300500D01*
X158852351Y-128300500D01*
X158852352Y-128300500D01*
X159054534Y-128268477D01*
X159249219Y-128205220D01*
X159431610Y-128112287D01*
X159524590Y-128044732D01*
X159597213Y-127991971D01*
X159597215Y-127991968D01*
X159597219Y-127991966D01*
X159741966Y-127847219D01*
X159741968Y-127847215D01*
X159741971Y-127847213D01*
X159794732Y-127774590D01*
X159862287Y-127681610D01*
X159955220Y-127499219D01*
X160018477Y-127304534D01*
X160050500Y-127102352D01*
X160050500Y-126897648D01*
X160018477Y-126695466D01*
X159955220Y-126500781D01*
X159955218Y-126500778D01*
X159955218Y-126500776D01*
X159892299Y-126377292D01*
X159862287Y-126318390D01*
X159847753Y-126298385D01*
X159741971Y-126152786D01*
X159597213Y-126008028D01*
X159431613Y-125887715D01*
X159431612Y-125887714D01*
X159431610Y-125887713D01*
X159374653Y-125858691D01*
X159249223Y-125794781D01*
X159054534Y-125731522D01*
X158879995Y-125703878D01*
X158852352Y-125699500D01*
X158647648Y-125699500D01*
X158623329Y-125703351D01*
X158445465Y-125731522D01*
X158250776Y-125794781D01*
X158068386Y-125887715D01*
X157902786Y-126008028D01*
X157758028Y-126152786D01*
X157637715Y-126318386D01*
X157544781Y-126500776D01*
X157481522Y-126695465D01*
X157449500Y-126897648D01*
X157449500Y-127102351D01*
X157477654Y-127280111D01*
X157468699Y-127349405D01*
X157442862Y-127387190D01*
X156016873Y-128813181D01*
X155955550Y-128846666D01*
X155929192Y-128849500D01*
X151974500Y-128849500D01*
X151907461Y-128829815D01*
X151861706Y-128777011D01*
X151850500Y-128725500D01*
X151850500Y-125916232D01*
X151850499Y-125916228D01*
X151832287Y-125824669D01*
X151817816Y-125751918D01*
X151754784Y-125599746D01*
X151753704Y-125597139D01*
X151737098Y-125572287D01*
X151671473Y-125474071D01*
X151660627Y-125457839D01*
X151654754Y-125451966D01*
X151542162Y-125339374D01*
X151168060Y-124965272D01*
X150042165Y-123839375D01*
X150042161Y-123839372D01*
X149902866Y-123746297D01*
X149902863Y-123746296D01*
X149793416Y-123700962D01*
X149793414Y-123700961D01*
X149748086Y-123682185D01*
X149748074Y-123682182D01*
X149583771Y-123649500D01*
X149583767Y-123649500D01*
X148405047Y-123649500D01*
X148338008Y-123629815D01*
X148317366Y-123613181D01*
X148172213Y-123468028D01*
X148006614Y-123347715D01*
X148000006Y-123344348D01*
X147913917Y-123300483D01*
X147863123Y-123252511D01*
X147846328Y-123184690D01*
X147868865Y-123118555D01*
X147913917Y-123079516D01*
X148006610Y-123032287D01*
X148027770Y-123016913D01*
X148172213Y-122911971D01*
X148172215Y-122911968D01*
X148172219Y-122911966D01*
X148316966Y-122767219D01*
X148316968Y-122767215D01*
X148316971Y-122767213D01*
X148372505Y-122690776D01*
X148437287Y-122601610D01*
X148530220Y-122419219D01*
X148589693Y-122236181D01*
X148629131Y-122178506D01*
X148693490Y-122151308D01*
X148707624Y-122150500D01*
X151679192Y-122150500D01*
X151746231Y-122170185D01*
X151766873Y-122186819D01*
X153639913Y-124059859D01*
X153673398Y-124121182D01*
X153674705Y-124166937D01*
X153644500Y-124357647D01*
X153644500Y-124562351D01*
X153676522Y-124764534D01*
X153739781Y-124959223D01*
X153832715Y-125141613D01*
X153953028Y-125307213D01*
X154097786Y-125451971D01*
X154252749Y-125564556D01*
X154263390Y-125572287D01*
X154354840Y-125618883D01*
X154356080Y-125619515D01*
X154406876Y-125667490D01*
X154423671Y-125735311D01*
X154401134Y-125801446D01*
X154356080Y-125840485D01*
X154263386Y-125887715D01*
X154097786Y-126008028D01*
X153953028Y-126152786D01*
X153832715Y-126318386D01*
X153739781Y-126500776D01*
X153676522Y-126695465D01*
X153644500Y-126897648D01*
X153644500Y-127102351D01*
X153676522Y-127304534D01*
X153739781Y-127499223D01*
X153832715Y-127681613D01*
X153953028Y-127847213D01*
X154097786Y-127991971D01*
X154252749Y-128104556D01*
X154263390Y-128112287D01*
X154379607Y-128171503D01*
X154445776Y-128205218D01*
X154445778Y-128205218D01*
X154445781Y-128205220D01*
X154550137Y-128239127D01*
X154640465Y-128268477D01*
X154741557Y-128284488D01*
X154842648Y-128300500D01*
X154842649Y-128300500D01*
X155047351Y-128300500D01*
X155047352Y-128300500D01*
X155249534Y-128268477D01*
X155444219Y-128205220D01*
X155626610Y-128112287D01*
X155719590Y-128044732D01*
X155792213Y-127991971D01*
X155792215Y-127991968D01*
X155792219Y-127991966D01*
X155936966Y-127847219D01*
X155936968Y-127847215D01*
X155936971Y-127847213D01*
X155989732Y-127774590D01*
X156057287Y-127681610D01*
X156150220Y-127499219D01*
X156213477Y-127304534D01*
X156245500Y-127102352D01*
X156245500Y-126897648D01*
X156213477Y-126695466D01*
X156150220Y-126500781D01*
X156150218Y-126500778D01*
X156150218Y-126500776D01*
X156087299Y-126377292D01*
X156057287Y-126318390D01*
X156042753Y-126298385D01*
X155936971Y-126152786D01*
X155792213Y-126008028D01*
X155626614Y-125887715D01*
X155620006Y-125884348D01*
X155533917Y-125840483D01*
X155483123Y-125792511D01*
X155466328Y-125724690D01*
X155488865Y-125658555D01*
X155533917Y-125619516D01*
X155626610Y-125572287D01*
X155647770Y-125556913D01*
X155792213Y-125451971D01*
X155792215Y-125451968D01*
X155792219Y-125451966D01*
X155936966Y-125307219D01*
X156042753Y-125161613D01*
X156098082Y-125118949D01*
X156143071Y-125110500D01*
X167704071Y-125110500D01*
X167788615Y-125093682D01*
X167829744Y-125085501D01*
X167948127Y-125036465D01*
X167994805Y-125005276D01*
X168054669Y-124965277D01*
X168522808Y-124497136D01*
X168584131Y-124463652D01*
X168629887Y-124462345D01*
X168807648Y-124490500D01*
X168807649Y-124490500D01*
X169012351Y-124490500D01*
X169012352Y-124490500D01*
X169214534Y-124458477D01*
X169409219Y-124395220D01*
X169591610Y-124302287D01*
X169640354Y-124266873D01*
X169652615Y-124257965D01*
X169718421Y-124234485D01*
X169786475Y-124250311D01*
X169835170Y-124300416D01*
X169849500Y-124358283D01*
X169849500Y-125089191D01*
X169829815Y-125156230D01*
X169813181Y-125176872D01*
X169297190Y-125692862D01*
X169235867Y-125726347D01*
X169190111Y-125727654D01*
X169044611Y-125704609D01*
X169012352Y-125699500D01*
X168807648Y-125699500D01*
X168783329Y-125703351D01*
X168605465Y-125731522D01*
X168410776Y-125794781D01*
X168228386Y-125887715D01*
X168062786Y-126008028D01*
X167918028Y-126152786D01*
X167797715Y-126318386D01*
X167704781Y-126500776D01*
X167641522Y-126695465D01*
X167609500Y-126897648D01*
X167609500Y-127102351D01*
X167641522Y-127304534D01*
X167704781Y-127499223D01*
X167797715Y-127681613D01*
X167918028Y-127847213D01*
X168062786Y-127991971D01*
X168217749Y-128104556D01*
X168228390Y-128112287D01*
X168344607Y-128171503D01*
X168410776Y-128205218D01*
X168410778Y-128205218D01*
X168410781Y-128205220D01*
X168515137Y-128239127D01*
X168605465Y-128268477D01*
X168706557Y-128284488D01*
X168807648Y-128300500D01*
X168807649Y-128300500D01*
X169012351Y-128300500D01*
X169012352Y-128300500D01*
X169214534Y-128268477D01*
X169409219Y-128205220D01*
X169591610Y-128112287D01*
X169684590Y-128044732D01*
X169757213Y-127991971D01*
X169757215Y-127991968D01*
X169757219Y-127991966D01*
X169901966Y-127847219D01*
X169901968Y-127847215D01*
X169901971Y-127847213D01*
X169954732Y-127774590D01*
X170022287Y-127681610D01*
X170115220Y-127499219D01*
X170178477Y-127304534D01*
X170210500Y-127102352D01*
X170210500Y-126897648D01*
X170182345Y-126719887D01*
X170191300Y-126650594D01*
X170217137Y-126612808D01*
X171005272Y-125824674D01*
X171005272Y-125824673D01*
X171005277Y-125824669D01*
X171076466Y-125718126D01*
X171125501Y-125599743D01*
X171125502Y-125599738D01*
X171126026Y-125597112D01*
X171150499Y-125474073D01*
X171150500Y-125474071D01*
X171150500Y-113170928D01*
X171125502Y-113045261D01*
X171125501Y-113045260D01*
X171125501Y-113045256D01*
X171076465Y-112926873D01*
X171024767Y-112849501D01*
X171005277Y-112820331D01*
X170655779Y-112470833D01*
X170622294Y-112409510D01*
X170625531Y-112344829D01*
X170631013Y-112327957D01*
X170631012Y-112327957D01*
X170631015Y-112327951D01*
X170665500Y-112110222D01*
X170665500Y-111889778D01*
X170631015Y-111672049D01*
X170596955Y-111567221D01*
X170562896Y-111462396D01*
X170562895Y-111462393D01*
X170528237Y-111394375D01*
X170462815Y-111265978D01*
X170399538Y-111178884D01*
X170333247Y-111087641D01*
X170333243Y-111087636D01*
X170177363Y-110931756D01*
X170177358Y-110931752D01*
X169999025Y-110802187D01*
X169999024Y-110802186D01*
X169999022Y-110802185D01*
X169936096Y-110770122D01*
X169802606Y-110702104D01*
X169802603Y-110702103D01*
X169592952Y-110633985D01*
X169484086Y-110616742D01*
X169375222Y-110599500D01*
X169154778Y-110599500D01*
X169082201Y-110610995D01*
X168937047Y-110633985D01*
X168727396Y-110702103D01*
X168727393Y-110702104D01*
X168530974Y-110802187D01*
X168352641Y-110931752D01*
X168352636Y-110931756D01*
X168302075Y-110982317D01*
X168240752Y-111015801D01*
X168171060Y-111010816D01*
X168115127Y-110968945D01*
X168098213Y-110937968D01*
X168068354Y-110857913D01*
X168068350Y-110857906D01*
X167982190Y-110742812D01*
X167982187Y-110742809D01*
X167867093Y-110656649D01*
X167867086Y-110656645D01*
X167732379Y-110606403D01*
X167732372Y-110606401D01*
X167672844Y-110600000D01*
X166975000Y-110600000D01*
X166975000Y-111624722D01*
X166898694Y-111580667D01*
X166784244Y-111550000D01*
X166665756Y-111550000D01*
X166551306Y-111580667D01*
X166475000Y-111624722D01*
X166475000Y-110600000D01*
X165777155Y-110600000D01*
X165717627Y-110606401D01*
X165717620Y-110606403D01*
X165582913Y-110656645D01*
X165582906Y-110656649D01*
X165467812Y-110742809D01*
X165467809Y-110742812D01*
X165381649Y-110857906D01*
X165381645Y-110857913D01*
X165331403Y-110992620D01*
X165331401Y-110992627D01*
X165325000Y-111052155D01*
X165325000Y-111750000D01*
X166349722Y-111750000D01*
X166305667Y-111826306D01*
X166275000Y-111940756D01*
X166275000Y-112059244D01*
X166305667Y-112173694D01*
X166349722Y-112250000D01*
X165325000Y-112250000D01*
X165325000Y-112947844D01*
X165331401Y-113007372D01*
X165331403Y-113007379D01*
X165381645Y-113142086D01*
X165381649Y-113142093D01*
X165467809Y-113257187D01*
X165467812Y-113257190D01*
X165582906Y-113343350D01*
X165582913Y-113343354D01*
X165717620Y-113393596D01*
X165717627Y-113393598D01*
X165777155Y-113399999D01*
X165777172Y-113400000D01*
X166475000Y-113400000D01*
X166475000Y-112375277D01*
X166551306Y-112419333D01*
X166665756Y-112450000D01*
X166784244Y-112450000D01*
X166898694Y-112419333D01*
X166975000Y-112375277D01*
X166975000Y-113400000D01*
X167672828Y-113400000D01*
X167672844Y-113399999D01*
X167732372Y-113393598D01*
X167732379Y-113393596D01*
X167867086Y-113343354D01*
X167867093Y-113343350D01*
X167982187Y-113257190D01*
X167982190Y-113257187D01*
X168068350Y-113142093D01*
X168068354Y-113142086D01*
X168098213Y-113062031D01*
X168140084Y-113006097D01*
X168205548Y-112981680D01*
X168273821Y-112996531D01*
X168302076Y-113017683D01*
X168352636Y-113068243D01*
X168352641Y-113068247D01*
X168493971Y-113170928D01*
X168530978Y-113197815D01*
X168647501Y-113257187D01*
X168727393Y-113297895D01*
X168727396Y-113297896D01*
X168832221Y-113331955D01*
X168937049Y-113366015D01*
X169154778Y-113400500D01*
X169154779Y-113400500D01*
X169375221Y-113400500D01*
X169375222Y-113400500D01*
X169592951Y-113366015D01*
X169609829Y-113360531D01*
X169625043Y-113360095D01*
X169639306Y-113354776D01*
X169659257Y-113359116D01*
X169679670Y-113358532D01*
X169693759Y-113366621D01*
X169707579Y-113369628D01*
X169735833Y-113390779D01*
X169813181Y-113468127D01*
X169846666Y-113529450D01*
X169849500Y-113555808D01*
X169849500Y-118211716D01*
X169829815Y-118278755D01*
X169777011Y-118324510D01*
X169707853Y-118334454D01*
X169652616Y-118312035D01*
X169591612Y-118267714D01*
X169409223Y-118174781D01*
X169214534Y-118111522D01*
X169039475Y-118083796D01*
X169012352Y-118079500D01*
X168807648Y-118079500D01*
X168629886Y-118107654D01*
X168560593Y-118098699D01*
X168522808Y-118072862D01*
X166949794Y-116499847D01*
X166949793Y-116499846D01*
X166849775Y-116433017D01*
X166843247Y-116428655D01*
X166815633Y-116417217D01*
X166724864Y-116379619D01*
X166724858Y-116379617D01*
X166599191Y-116354620D01*
X166599189Y-116354620D01*
X158294380Y-116354620D01*
X158227341Y-116334935D01*
X158181586Y-116282131D01*
X158170380Y-116230620D01*
X158170380Y-106401439D01*
X158190065Y-106334400D01*
X158242869Y-106288645D01*
X158251048Y-106285257D01*
X158362206Y-106243798D01*
X158362206Y-106243797D01*
X158362211Y-106243796D01*
X158477426Y-106157546D01*
X158563676Y-106042331D01*
X158613971Y-105907483D01*
X158620380Y-105847873D01*
X158620380Y-105837000D01*
X158640065Y-105769961D01*
X158692869Y-105724206D01*
X158744380Y-105713000D01*
X159717948Y-105713000D01*
X159784987Y-105732685D01*
X159795655Y-105741281D01*
X159795987Y-105740862D01*
X159801647Y-105745338D01*
X159801649Y-105745339D01*
X159801650Y-105745340D01*
X159948484Y-105835908D01*
X160112247Y-105890174D01*
X160213323Y-105900500D01*
X160786676Y-105900499D01*
X160786684Y-105900498D01*
X160786687Y-105900498D01*
X160842030Y-105894844D01*
X160887753Y-105890174D01*
X161051516Y-105835908D01*
X161198350Y-105745340D01*
X161320340Y-105623350D01*
X161410908Y-105476516D01*
X161465174Y-105312753D01*
X161475500Y-105211677D01*
X161475499Y-104513324D01*
X161465174Y-104412247D01*
X161410908Y-104248484D01*
X161320340Y-104101650D01*
X161306017Y-104087327D01*
X161272532Y-104026004D01*
X161277516Y-103956312D01*
X161306021Y-103911960D01*
X161319947Y-103898035D01*
X161410448Y-103751311D01*
X161410453Y-103751300D01*
X161464680Y-103587652D01*
X161474999Y-103486654D01*
X161475000Y-103486641D01*
X161475000Y-103387500D01*
X159525001Y-103387500D01*
X159525001Y-103486654D01*
X159535319Y-103587652D01*
X159589546Y-103751300D01*
X159589548Y-103751305D01*
X159633711Y-103822903D01*
X159652151Y-103890295D01*
X159631229Y-103956959D01*
X159577587Y-104001729D01*
X159528172Y-104012000D01*
X158666418Y-104012000D01*
X158599379Y-103992315D01*
X158567152Y-103962311D01*
X158477427Y-103842455D01*
X158477424Y-103842452D01*
X158362215Y-103756206D01*
X158362209Y-103756203D01*
X158251046Y-103714741D01*
X158195113Y-103672869D01*
X158170696Y-103607405D01*
X158170380Y-103598559D01*
X158170380Y-101724499D01*
X158190065Y-101657460D01*
X158242869Y-101611705D01*
X158294380Y-101600499D01*
X158865371Y-101600499D01*
X158865372Y-101600499D01*
X158924983Y-101594091D01*
X159059831Y-101543796D01*
X159175046Y-101457546D01*
X159261296Y-101342331D01*
X159291631Y-101260996D01*
X159333500Y-101205066D01*
X159398964Y-101180648D01*
X159467237Y-101195499D01*
X159516643Y-101244903D01*
X159518296Y-101248035D01*
X159525214Y-101261613D01*
X159645528Y-101427213D01*
X159790286Y-101571971D01*
X159903734Y-101654394D01*
X159955890Y-101692287D01*
X160019110Y-101724499D01*
X160138276Y-101785218D01*
X160138278Y-101785218D01*
X160138281Y-101785220D01*
X160332966Y-101848477D01*
X160364856Y-101853527D01*
X160427987Y-101883455D01*
X160464919Y-101942765D01*
X160463923Y-102012628D01*
X160425314Y-102070861D01*
X160361351Y-102098977D01*
X160345457Y-102100000D01*
X160213361Y-102100000D01*
X160213344Y-102100001D01*
X160112347Y-102110319D01*
X159948699Y-102164546D01*
X159948688Y-102164551D01*
X159801965Y-102255052D01*
X159801961Y-102255055D01*
X159680055Y-102376961D01*
X159680052Y-102376965D01*
X159589551Y-102523688D01*
X159589546Y-102523699D01*
X159535319Y-102687347D01*
X159525000Y-102788345D01*
X159525000Y-102887500D01*
X161474999Y-102887500D01*
X161474999Y-102788360D01*
X161474998Y-102788345D01*
X161464680Y-102687347D01*
X161410453Y-102523699D01*
X161410448Y-102523688D01*
X161319947Y-102376965D01*
X161319944Y-102376961D01*
X161198038Y-102255055D01*
X161198034Y-102255052D01*
X161051311Y-102164551D01*
X161051300Y-102164546D01*
X160887652Y-102110319D01*
X160863389Y-102107840D01*
X160798698Y-102081443D01*
X160758547Y-102024262D01*
X160755685Y-101954451D01*
X160791019Y-101894174D01*
X160853333Y-101862570D01*
X160856576Y-101862012D01*
X160942034Y-101848477D01*
X161136719Y-101785220D01*
X161319110Y-101692287D01*
X161445445Y-101600500D01*
X161484713Y-101571971D01*
X161484715Y-101571968D01*
X161484719Y-101571966D01*
X161629466Y-101427219D01*
X161629468Y-101427215D01*
X161629471Y-101427213D01*
X161691137Y-101342335D01*
X161749787Y-101261610D01*
X161842720Y-101079219D01*
X161905977Y-100884534D01*
X161938000Y-100682352D01*
X161938000Y-100477682D01*
X162837500Y-100477682D01*
X162837500Y-100682317D01*
X162869509Y-100884417D01*
X162932744Y-101079031D01*
X163025641Y-101261350D01*
X163025647Y-101261359D01*
X163058023Y-101305921D01*
X163058024Y-101305922D01*
X163737500Y-100626446D01*
X163737500Y-100632661D01*
X163764759Y-100734394D01*
X163817420Y-100825606D01*
X163891894Y-100900080D01*
X163983106Y-100952741D01*
X164084839Y-100980000D01*
X164091053Y-100980000D01*
X163411576Y-101659474D01*
X163456150Y-101691859D01*
X163638468Y-101784755D01*
X163833082Y-101847990D01*
X164035183Y-101880000D01*
X164239817Y-101880000D01*
X164441917Y-101847990D01*
X164636531Y-101784755D01*
X164818849Y-101691859D01*
X164863421Y-101659474D01*
X164183947Y-100980000D01*
X164190161Y-100980000D01*
X164291894Y-100952741D01*
X164383106Y-100900080D01*
X164457580Y-100825606D01*
X164510241Y-100734394D01*
X164537500Y-100632661D01*
X164537500Y-100626447D01*
X165216974Y-101305921D01*
X165249359Y-101261349D01*
X165342255Y-101079031D01*
X165405490Y-100884417D01*
X165437500Y-100682317D01*
X165437500Y-100477682D01*
X165405490Y-100275582D01*
X165342255Y-100080968D01*
X165249359Y-99898650D01*
X165216974Y-99854077D01*
X165216974Y-99854076D01*
X164537500Y-100533551D01*
X164537500Y-100527339D01*
X164510241Y-100425606D01*
X164457580Y-100334394D01*
X164383106Y-100259920D01*
X164291894Y-100207259D01*
X164190161Y-100180000D01*
X164183946Y-100180000D01*
X164863422Y-99500524D01*
X164863421Y-99500523D01*
X164818859Y-99468147D01*
X164818850Y-99468141D01*
X164636531Y-99375244D01*
X164441917Y-99312009D01*
X164239817Y-99280000D01*
X164035183Y-99280000D01*
X163833082Y-99312009D01*
X163638468Y-99375244D01*
X163456144Y-99468143D01*
X163411577Y-99500523D01*
X163411577Y-99500524D01*
X164091054Y-100180000D01*
X164084839Y-100180000D01*
X163983106Y-100207259D01*
X163891894Y-100259920D01*
X163817420Y-100334394D01*
X163764759Y-100425606D01*
X163737500Y-100527339D01*
X163737500Y-100533553D01*
X163058024Y-99854077D01*
X163058023Y-99854077D01*
X163025643Y-99898644D01*
X162932744Y-100080968D01*
X162869509Y-100275582D01*
X162837500Y-100477682D01*
X161938000Y-100477682D01*
X161938000Y-100477648D01*
X161916587Y-100342452D01*
X161905977Y-100275465D01*
X161857400Y-100125961D01*
X161842720Y-100080781D01*
X161842718Y-100080778D01*
X161842718Y-100080776D01*
X161749919Y-99898650D01*
X161749787Y-99898390D01*
X161742056Y-99887749D01*
X161629471Y-99732786D01*
X161484713Y-99588028D01*
X161319113Y-99467715D01*
X161319112Y-99467714D01*
X161319110Y-99467713D01*
X161262153Y-99438691D01*
X161136723Y-99374781D01*
X160942034Y-99311522D01*
X160767495Y-99283878D01*
X160739852Y-99279500D01*
X160535148Y-99279500D01*
X160467754Y-99290174D01*
X160332964Y-99311523D01*
X160210967Y-99351162D01*
X160148458Y-99354848D01*
X160121573Y-99349500D01*
X160121569Y-99349500D01*
X159441999Y-99349500D01*
X159374960Y-99329815D01*
X159329205Y-99277011D01*
X159317999Y-99225500D01*
X159317999Y-98852129D01*
X159317998Y-98852123D01*
X159317997Y-98852116D01*
X159311591Y-98792517D01*
X159306624Y-98779201D01*
X159261297Y-98657671D01*
X159261293Y-98657664D01*
X159175047Y-98542455D01*
X159175044Y-98542452D01*
X159059835Y-98456206D01*
X159059828Y-98456202D01*
X158924982Y-98405908D01*
X158924983Y-98405908D01*
X158865383Y-98399501D01*
X158865381Y-98399500D01*
X158865373Y-98399500D01*
X158865364Y-98399500D01*
X156569629Y-98399500D01*
X156569623Y-98399501D01*
X156510016Y-98405908D01*
X156375171Y-98456202D01*
X156375164Y-98456206D01*
X156259955Y-98542452D01*
X156259952Y-98542455D01*
X156173706Y-98657664D01*
X156173702Y-98657671D01*
X156123408Y-98792517D01*
X156117001Y-98852116D01*
X156117001Y-98852123D01*
X156117000Y-98852135D01*
X156117000Y-101147870D01*
X156117001Y-101147876D01*
X156123408Y-101207483D01*
X156173702Y-101342328D01*
X156173706Y-101342335D01*
X156259952Y-101457544D01*
X156259955Y-101457547D01*
X156375164Y-101543793D01*
X156375166Y-101543794D01*
X156375169Y-101543796D01*
X156388709Y-101548846D01*
X156444644Y-101590714D01*
X156469064Y-101656177D01*
X156469380Y-101665029D01*
X156469380Y-103598560D01*
X156449695Y-103665599D01*
X156396891Y-103711354D01*
X156388713Y-103714742D01*
X156277551Y-103756202D01*
X156277544Y-103756206D01*
X156162335Y-103842452D01*
X156162332Y-103842455D01*
X156076086Y-103957664D01*
X156076082Y-103957671D01*
X156025788Y-104092517D01*
X156019381Y-104152116D01*
X156019202Y-104155452D01*
X156017621Y-104155367D01*
X155999695Y-104216419D01*
X155946891Y-104262174D01*
X155903606Y-104269824D01*
X155219880Y-104953551D01*
X155219880Y-104947339D01*
X155192621Y-104845606D01*
X155139960Y-104754394D01*
X155065486Y-104679920D01*
X154974274Y-104627259D01*
X154872541Y-104600000D01*
X154866326Y-104600000D01*
X155545802Y-103920524D01*
X155545801Y-103920523D01*
X155501239Y-103888147D01*
X155501230Y-103888141D01*
X155318911Y-103795244D01*
X155124297Y-103732009D01*
X154922197Y-103700000D01*
X154717563Y-103700000D01*
X154515462Y-103732009D01*
X154320848Y-103795244D01*
X154138524Y-103888143D01*
X154093957Y-103920523D01*
X154093957Y-103920524D01*
X154773434Y-104600000D01*
X154767219Y-104600000D01*
X154665486Y-104627259D01*
X154574274Y-104679920D01*
X154499800Y-104754394D01*
X154447139Y-104845606D01*
X154419880Y-104947339D01*
X154419880Y-104953553D01*
X153740404Y-104274077D01*
X153740403Y-104274077D01*
X153708023Y-104318644D01*
X153615124Y-104500968D01*
X153551889Y-104695582D01*
X153519880Y-104897682D01*
X153519880Y-105102317D01*
X153551889Y-105304417D01*
X153615124Y-105499031D01*
X153708021Y-105681350D01*
X153708027Y-105681359D01*
X153740403Y-105725921D01*
X153740404Y-105725922D01*
X154419880Y-105046446D01*
X154419880Y-105052661D01*
X154447139Y-105154394D01*
X154499800Y-105245606D01*
X154574274Y-105320080D01*
X154665486Y-105372741D01*
X154767219Y-105400000D01*
X154773433Y-105400000D01*
X154093956Y-106079474D01*
X154138530Y-106111859D01*
X154320848Y-106204755D01*
X154515462Y-106267990D01*
X154717563Y-106300000D01*
X154922197Y-106300000D01*
X155124297Y-106267990D01*
X155318911Y-106204755D01*
X155501229Y-106111859D01*
X155545801Y-106079474D01*
X154866327Y-105400000D01*
X154872541Y-105400000D01*
X154974274Y-105372741D01*
X155065486Y-105320080D01*
X155139960Y-105245606D01*
X155192621Y-105154394D01*
X155219880Y-105052661D01*
X155219880Y-105046447D01*
X155904363Y-105730931D01*
X155954027Y-105741364D01*
X156003785Y-105790415D01*
X156017880Y-105844634D01*
X156018979Y-105844576D01*
X156019026Y-105844571D01*
X156019026Y-105844573D01*
X156019204Y-105844564D01*
X156019381Y-105847876D01*
X156025788Y-105907483D01*
X156076082Y-106042328D01*
X156076086Y-106042335D01*
X156162332Y-106157544D01*
X156162335Y-106157547D01*
X156277544Y-106243793D01*
X156277553Y-106243798D01*
X156388712Y-106285257D01*
X156444646Y-106327127D01*
X156469064Y-106392592D01*
X156469380Y-106401439D01*
X156469380Y-116601469D01*
X156449695Y-116668508D01*
X156433061Y-116689150D01*
X155079030Y-118043181D01*
X155052102Y-118057884D01*
X155026284Y-118074477D01*
X155020083Y-118075368D01*
X155017707Y-118076666D01*
X154991349Y-118079500D01*
X154898651Y-118079500D01*
X154831612Y-118059815D01*
X154810970Y-118043181D01*
X153376168Y-116608379D01*
X153342683Y-116547056D01*
X153347667Y-116477364D01*
X153376168Y-116433017D01*
X153380531Y-116428654D01*
X153391966Y-116417219D01*
X153391968Y-116417215D01*
X153391971Y-116417213D01*
X153451748Y-116334935D01*
X153512287Y-116251610D01*
X153605220Y-116069219D01*
X153668477Y-115874534D01*
X153700500Y-115672352D01*
X153700500Y-115467648D01*
X153678353Y-115327819D01*
X153668477Y-115265465D01*
X153637458Y-115170000D01*
X153605220Y-115070781D01*
X153605218Y-115070778D01*
X153605218Y-115070776D01*
X153571503Y-115004607D01*
X153512287Y-114888390D01*
X153480092Y-114844077D01*
X153391971Y-114722786D01*
X153247213Y-114578028D01*
X153081613Y-114457715D01*
X153081612Y-114457714D01*
X153081610Y-114457713D01*
X153024653Y-114428691D01*
X152899223Y-114364781D01*
X152704534Y-114301522D01*
X152529995Y-114273878D01*
X152502352Y-114269500D01*
X152297648Y-114269500D01*
X152119886Y-114297654D01*
X152050593Y-114288699D01*
X152012808Y-114262862D01*
X150744674Y-112994727D01*
X150744673Y-112994726D01*
X150725148Y-112981680D01*
X150638127Y-112923535D01*
X150611160Y-112912365D01*
X150519744Y-112874499D01*
X150519738Y-112874497D01*
X150394071Y-112849500D01*
X150394069Y-112849500D01*
X143693931Y-112849500D01*
X143693929Y-112849500D01*
X143568261Y-112874497D01*
X143568255Y-112874499D01*
X143449874Y-112923534D01*
X143343326Y-112994726D01*
X140494726Y-115843326D01*
X140473952Y-115874417D01*
X140441122Y-115923553D01*
X140435133Y-115932516D01*
X140423533Y-115949875D01*
X140419903Y-115958640D01*
X140376059Y-116013041D01*
X140309763Y-116035102D01*
X140242065Y-116017819D01*
X140215868Y-115995768D01*
X140215411Y-115996226D01*
X140067213Y-115848028D01*
X139901613Y-115727715D01*
X139901612Y-115727714D01*
X139901610Y-115727713D01*
X139844653Y-115698691D01*
X139719223Y-115634781D01*
X139524534Y-115571522D01*
X139349995Y-115543878D01*
X139322352Y-115539500D01*
X139117648Y-115539500D01*
X139093329Y-115543351D01*
X138915465Y-115571522D01*
X138720776Y-115634781D01*
X138538386Y-115727715D01*
X138372786Y-115848028D01*
X138228028Y-115992786D01*
X138107715Y-116158386D01*
X138014781Y-116340776D01*
X137951522Y-116535465D01*
X137919500Y-116737648D01*
X137919500Y-116942351D01*
X137950403Y-117137464D01*
X137946771Y-117165566D01*
X137946266Y-117193911D01*
X137941939Y-117202954D01*
X137941448Y-117206757D01*
X137931034Y-117225750D01*
X137912695Y-117253198D01*
X137912692Y-117253202D01*
X137893539Y-117281864D01*
X137893533Y-117281875D01*
X137844499Y-117400255D01*
X137844497Y-117400261D01*
X137819500Y-117525928D01*
X137819500Y-121991928D01*
X137799815Y-122058967D01*
X137768385Y-122092246D01*
X137622787Y-122198028D01*
X137622782Y-122198032D01*
X137478028Y-122342786D01*
X137357715Y-122508386D01*
X137264781Y-122690776D01*
X137201522Y-122885465D01*
X137169500Y-123087648D01*
X83500500Y-123087648D01*
X83500500Y-111438872D01*
X91499500Y-111438872D01*
X91499500Y-111701127D01*
X91505935Y-111750000D01*
X91533730Y-111961116D01*
X91573683Y-112110222D01*
X91601602Y-112214418D01*
X91601605Y-112214428D01*
X91701953Y-112456690D01*
X91701958Y-112456700D01*
X91833075Y-112683803D01*
X91992718Y-112891851D01*
X91992726Y-112891860D01*
X92178140Y-113077274D01*
X92178148Y-113077281D01*
X92386196Y-113236924D01*
X92613299Y-113368041D01*
X92613309Y-113368046D01*
X92855571Y-113468394D01*
X92855581Y-113468398D01*
X93108884Y-113536270D01*
X93368880Y-113570500D01*
X93368887Y-113570500D01*
X93631113Y-113570500D01*
X93631120Y-113570500D01*
X93891116Y-113536270D01*
X94144419Y-113468398D01*
X94331808Y-113390779D01*
X94386690Y-113368046D01*
X94386691Y-113368045D01*
X94386697Y-113368043D01*
X94613803Y-113236924D01*
X94821851Y-113077282D01*
X94821855Y-113077277D01*
X94821860Y-113077274D01*
X95007274Y-112891860D01*
X95007277Y-112891855D01*
X95007282Y-112891851D01*
X95166924Y-112683803D01*
X95298043Y-112456697D01*
X95398398Y-112214419D01*
X95466270Y-111961116D01*
X95500500Y-111701120D01*
X95500500Y-111438880D01*
X95500499Y-111438872D01*
X121499500Y-111438872D01*
X121499500Y-111701127D01*
X121505935Y-111750000D01*
X121533730Y-111961116D01*
X121573683Y-112110222D01*
X121601602Y-112214418D01*
X121601605Y-112214428D01*
X121701953Y-112456690D01*
X121701958Y-112456700D01*
X121833075Y-112683803D01*
X121992718Y-112891851D01*
X121992726Y-112891860D01*
X122178140Y-113077274D01*
X122178148Y-113077281D01*
X122386196Y-113236924D01*
X122613299Y-113368041D01*
X122613309Y-113368046D01*
X122855571Y-113468394D01*
X122855581Y-113468398D01*
X123108884Y-113536270D01*
X123368880Y-113570500D01*
X123368887Y-113570500D01*
X123631113Y-113570500D01*
X123631120Y-113570500D01*
X123891116Y-113536270D01*
X124144419Y-113468398D01*
X124331808Y-113390779D01*
X124386690Y-113368046D01*
X124386691Y-113368045D01*
X124386697Y-113368043D01*
X124613803Y-113236924D01*
X124821851Y-113077282D01*
X124821855Y-113077277D01*
X124821860Y-113077274D01*
X125007274Y-112891860D01*
X125007277Y-112891855D01*
X125007282Y-112891851D01*
X125166924Y-112683803D01*
X125298043Y-112456697D01*
X125398398Y-112214419D01*
X125466270Y-111961116D01*
X125500500Y-111701120D01*
X125500500Y-111438880D01*
X125466270Y-111178884D01*
X125398398Y-110925581D01*
X125370366Y-110857906D01*
X125298046Y-110683309D01*
X125298041Y-110683299D01*
X125166924Y-110456196D01*
X125007281Y-110248148D01*
X125007274Y-110248140D01*
X124821860Y-110062726D01*
X124821851Y-110062718D01*
X124613803Y-109903075D01*
X124386700Y-109771958D01*
X124386690Y-109771953D01*
X124144428Y-109671605D01*
X124144421Y-109671603D01*
X124144419Y-109671602D01*
X123891116Y-109603730D01*
X123833339Y-109596123D01*
X123631127Y-109569500D01*
X123631120Y-109569500D01*
X123368880Y-109569500D01*
X123368872Y-109569500D01*
X123137772Y-109599926D01*
X123108884Y-109603730D01*
X122855581Y-109671602D01*
X122855571Y-109671605D01*
X122613309Y-109771953D01*
X122613299Y-109771958D01*
X122386196Y-109903075D01*
X122178148Y-110062718D01*
X121992718Y-110248148D01*
X121833075Y-110456196D01*
X121701958Y-110683299D01*
X121701953Y-110683309D01*
X121601605Y-110925571D01*
X121601602Y-110925581D01*
X121558179Y-111087641D01*
X121533730Y-111178885D01*
X121499500Y-111438872D01*
X95500499Y-111438872D01*
X95466270Y-111178884D01*
X95398398Y-110925581D01*
X95370366Y-110857906D01*
X95298046Y-110683309D01*
X95298041Y-110683299D01*
X95166924Y-110456196D01*
X95007281Y-110248148D01*
X95007274Y-110248140D01*
X94821860Y-110062726D01*
X94821851Y-110062718D01*
X94613803Y-109903075D01*
X94386700Y-109771958D01*
X94386690Y-109771953D01*
X94144428Y-109671605D01*
X94144421Y-109671603D01*
X94144419Y-109671602D01*
X93891116Y-109603730D01*
X93833339Y-109596123D01*
X93631127Y-109569500D01*
X93631120Y-109569500D01*
X93368880Y-109569500D01*
X93368872Y-109569500D01*
X93137772Y-109599926D01*
X93108884Y-109603730D01*
X92855581Y-109671602D01*
X92855571Y-109671605D01*
X92613309Y-109771953D01*
X92613299Y-109771958D01*
X92386196Y-109903075D01*
X92178148Y-110062718D01*
X91992718Y-110248148D01*
X91833075Y-110456196D01*
X91701958Y-110683299D01*
X91701953Y-110683309D01*
X91601605Y-110925571D01*
X91601602Y-110925581D01*
X91558179Y-111087641D01*
X91533730Y-111178885D01*
X91499500Y-111438872D01*
X83500500Y-111438872D01*
X83500500Y-85368905D01*
X108700000Y-85368905D01*
X108700000Y-85631094D01*
X108734220Y-85891009D01*
X108734222Y-85891020D01*
X108802075Y-86144255D01*
X108902404Y-86386471D01*
X108902409Y-86386482D01*
X109033488Y-86613516D01*
X109033494Y-86613524D01*
X109120080Y-86726365D01*
X110135387Y-85711058D01*
X110140889Y-85731591D01*
X110219881Y-85868408D01*
X110331592Y-85980119D01*
X110468409Y-86059111D01*
X110488940Y-86064612D01*
X109473633Y-87079917D01*
X109473633Y-87079918D01*
X109586475Y-87166505D01*
X109586483Y-87166511D01*
X109813517Y-87297590D01*
X109813528Y-87297595D01*
X110055744Y-87397924D01*
X110308979Y-87465777D01*
X110308990Y-87465779D01*
X110568905Y-87499999D01*
X110568920Y-87500000D01*
X110831080Y-87500000D01*
X110831094Y-87499999D01*
X111091009Y-87465779D01*
X111091020Y-87465777D01*
X111344255Y-87397924D01*
X111586471Y-87297595D01*
X111586482Y-87297590D01*
X111813516Y-87166511D01*
X111813534Y-87166499D01*
X111926365Y-87079919D01*
X111926365Y-87079917D01*
X110911059Y-86064612D01*
X110931591Y-86059111D01*
X111068408Y-85980119D01*
X111180119Y-85868408D01*
X111259111Y-85731591D01*
X111264612Y-85711060D01*
X112279917Y-86726365D01*
X112279919Y-86726365D01*
X112366499Y-86613534D01*
X112366511Y-86613516D01*
X112497590Y-86386482D01*
X112497595Y-86386471D01*
X112597924Y-86144255D01*
X112665777Y-85891020D01*
X112665779Y-85891009D01*
X112699999Y-85631094D01*
X112700000Y-85631080D01*
X112700000Y-85368919D01*
X112699999Y-85368905D01*
X112665779Y-85108990D01*
X112665777Y-85108979D01*
X112597924Y-84855744D01*
X112497595Y-84613528D01*
X112497590Y-84613517D01*
X112366511Y-84386483D01*
X112366505Y-84386475D01*
X112279918Y-84273633D01*
X112279917Y-84273633D01*
X111264612Y-85288939D01*
X111259111Y-85268409D01*
X111180119Y-85131592D01*
X111068408Y-85019881D01*
X110931591Y-84940889D01*
X110911057Y-84935387D01*
X111894310Y-83952135D01*
X121499500Y-83952135D01*
X121499500Y-87047870D01*
X121499501Y-87047876D01*
X121505908Y-87107483D01*
X121556202Y-87242328D01*
X121556206Y-87242335D01*
X121642452Y-87357544D01*
X121642455Y-87357547D01*
X121757664Y-87443793D01*
X121757671Y-87443797D01*
X121892517Y-87494091D01*
X121892516Y-87494091D01*
X121899444Y-87494835D01*
X121952127Y-87500500D01*
X125047872Y-87500499D01*
X125107483Y-87494091D01*
X125242331Y-87443796D01*
X125357546Y-87357546D01*
X125443796Y-87242331D01*
X125494091Y-87107483D01*
X125500500Y-87047873D01*
X125500500Y-86474500D01*
X125520185Y-86407461D01*
X125572989Y-86361706D01*
X125624500Y-86350500D01*
X128096349Y-86350500D01*
X128163388Y-86370185D01*
X128184030Y-86386819D01*
X135750681Y-93953470D01*
X135784166Y-94014793D01*
X135787000Y-94041151D01*
X135787000Y-99539953D01*
X135767315Y-99606992D01*
X135750681Y-99627634D01*
X135645532Y-99732782D01*
X135645528Y-99732786D01*
X135525215Y-99898386D01*
X135432281Y-100080776D01*
X135369022Y-100275465D01*
X135337000Y-100477648D01*
X135337000Y-100682351D01*
X135369022Y-100884534D01*
X135432281Y-101079223D01*
X135483590Y-101179920D01*
X135525085Y-101261359D01*
X135525215Y-101261613D01*
X135645528Y-101427213D01*
X135790286Y-101571971D01*
X135903734Y-101654394D01*
X135955890Y-101692287D01*
X136019110Y-101724499D01*
X136138276Y-101785218D01*
X136138278Y-101785218D01*
X136138281Y-101785220D01*
X136227069Y-101814069D01*
X136332965Y-101848477D01*
X136418402Y-101862009D01*
X136535148Y-101880500D01*
X136535149Y-101880500D01*
X136739851Y-101880500D01*
X136739852Y-101880500D01*
X136942034Y-101848477D01*
X136956339Y-101843828D01*
X137026176Y-101841830D01*
X137082340Y-101874076D01*
X137188784Y-101980520D01*
X137188786Y-101980521D01*
X137188790Y-101980524D01*
X137323210Y-102058130D01*
X137325716Y-102059577D01*
X137437519Y-102089534D01*
X137478442Y-102100500D01*
X137478443Y-102100500D01*
X139530622Y-102100500D01*
X139597661Y-102120185D01*
X139643416Y-102172989D01*
X139654622Y-102224500D01*
X139654622Y-102347876D01*
X139661029Y-102407483D01*
X139711323Y-102542328D01*
X139711327Y-102542335D01*
X139797573Y-102657544D01*
X139797576Y-102657547D01*
X139912785Y-102743793D01*
X139912792Y-102743797D01*
X140047638Y-102794091D01*
X140047637Y-102794091D01*
X140054565Y-102794835D01*
X140107248Y-102800500D01*
X141284312Y-102800499D01*
X141351351Y-102820184D01*
X141371993Y-102836818D01*
X142449845Y-103914669D01*
X142497487Y-103962311D01*
X142540453Y-104005277D01*
X142646987Y-104076461D01*
X142646993Y-104076464D01*
X142646994Y-104076465D01*
X142765377Y-104125501D01*
X142765381Y-104125501D01*
X142765382Y-104125502D01*
X142891049Y-104150500D01*
X142891052Y-104150500D01*
X150314071Y-104150500D01*
X150398615Y-104133682D01*
X150439744Y-104125501D01*
X150558127Y-104076465D01*
X150664669Y-104005277D01*
X150713634Y-103956312D01*
X150789845Y-103880102D01*
X152505272Y-102164674D01*
X152505273Y-102164673D01*
X152505277Y-102164669D01*
X152576465Y-102058127D01*
X152625501Y-101939743D01*
X152637385Y-101880000D01*
X152650500Y-101814071D01*
X152650500Y-98065807D01*
X152670185Y-97998768D01*
X152686814Y-97978131D01*
X154962819Y-95702125D01*
X155024142Y-95668641D01*
X155093834Y-95673625D01*
X155149767Y-95715497D01*
X155174184Y-95780961D01*
X155174500Y-95789807D01*
X155174500Y-95912351D01*
X155206522Y-96114534D01*
X155269781Y-96309223D01*
X155292369Y-96353553D01*
X155362585Y-96491359D01*
X155362715Y-96491613D01*
X155483028Y-96657213D01*
X155627786Y-96801971D01*
X155748226Y-96889474D01*
X155793390Y-96922287D01*
X155909607Y-96981503D01*
X155975776Y-97015218D01*
X155975778Y-97015218D01*
X155975781Y-97015220D01*
X156080137Y-97049127D01*
X156170465Y-97078477D01*
X156203865Y-97083767D01*
X156372648Y-97110500D01*
X156372649Y-97110500D01*
X156577351Y-97110500D01*
X156577352Y-97110500D01*
X156779534Y-97078477D01*
X156974219Y-97015220D01*
X157156610Y-96922287D01*
X157259933Y-96847219D01*
X157322213Y-96801971D01*
X157322215Y-96801968D01*
X157322219Y-96801966D01*
X157466966Y-96657219D01*
X157466968Y-96657215D01*
X157466971Y-96657213D01*
X157519732Y-96584590D01*
X157587287Y-96491610D01*
X157680220Y-96309219D01*
X157743477Y-96114534D01*
X157775500Y-95912352D01*
X157775500Y-95707648D01*
X157765806Y-95646446D01*
X157747345Y-95529886D01*
X157756300Y-95460593D01*
X157782134Y-95422810D01*
X161142777Y-92062169D01*
X161213965Y-91955627D01*
X161263001Y-91837244D01*
X161285932Y-91721966D01*
X161288000Y-91711571D01*
X161288000Y-91618070D01*
X161307685Y-91551031D01*
X161339113Y-91517753D01*
X161484719Y-91411966D01*
X161629466Y-91267219D01*
X161735253Y-91121613D01*
X161790582Y-91078949D01*
X161835571Y-91070500D01*
X162939429Y-91070500D01*
X163006468Y-91090185D01*
X163039745Y-91121613D01*
X163109783Y-91218011D01*
X163145534Y-91267219D01*
X163290286Y-91411971D01*
X163435883Y-91517751D01*
X163455890Y-91532287D01*
X163544074Y-91577219D01*
X163638276Y-91625218D01*
X163638278Y-91625218D01*
X163638281Y-91625220D01*
X163727331Y-91654154D01*
X163832965Y-91688477D01*
X163934057Y-91704488D01*
X164035148Y-91720500D01*
X164035149Y-91720500D01*
X164239851Y-91720500D01*
X164239852Y-91720500D01*
X164442034Y-91688477D01*
X164636719Y-91625220D01*
X164819110Y-91532287D01*
X164924220Y-91455921D01*
X164984713Y-91411971D01*
X164984715Y-91411968D01*
X164984719Y-91411966D01*
X165129466Y-91267219D01*
X165129468Y-91267215D01*
X165129471Y-91267213D01*
X165199578Y-91170717D01*
X165249787Y-91101610D01*
X165342720Y-90919219D01*
X165405977Y-90724534D01*
X165438000Y-90522352D01*
X165438000Y-90317648D01*
X165405977Y-90115466D01*
X165342720Y-89920781D01*
X165342718Y-89920778D01*
X165342718Y-89920776D01*
X165280188Y-89798056D01*
X165249787Y-89738390D01*
X165211192Y-89685268D01*
X165129471Y-89572786D01*
X164984713Y-89428028D01*
X164819113Y-89307715D01*
X164819112Y-89307714D01*
X164819110Y-89307713D01*
X164762153Y-89278691D01*
X164636723Y-89214781D01*
X164442034Y-89151522D01*
X164267495Y-89123878D01*
X164239852Y-89119500D01*
X164035148Y-89119500D01*
X164013675Y-89122901D01*
X163832965Y-89151522D01*
X163638276Y-89214781D01*
X163455886Y-89307715D01*
X163290286Y-89428028D01*
X163145534Y-89572780D01*
X163107441Y-89625212D01*
X163039746Y-89718386D01*
X162984418Y-89761051D01*
X162939429Y-89769500D01*
X161835571Y-89769500D01*
X161768532Y-89749815D01*
X161735254Y-89718386D01*
X161629466Y-89572781D01*
X161484719Y-89428034D01*
X161484713Y-89428028D01*
X161319113Y-89307715D01*
X161319112Y-89307714D01*
X161319110Y-89307713D01*
X161262153Y-89278691D01*
X161136723Y-89214781D01*
X160942034Y-89151522D01*
X160767495Y-89123878D01*
X160739852Y-89119500D01*
X160535148Y-89119500D01*
X160513675Y-89122901D01*
X160332965Y-89151522D01*
X160138276Y-89214781D01*
X159955886Y-89307715D01*
X159790286Y-89428028D01*
X159645528Y-89572786D01*
X159525215Y-89738386D01*
X159432281Y-89920776D01*
X159369022Y-90115465D01*
X159337000Y-90317648D01*
X159337000Y-90522351D01*
X159369022Y-90724534D01*
X159432281Y-90919223D01*
X159490976Y-91034417D01*
X159516012Y-91083553D01*
X159525215Y-91101613D01*
X159645528Y-91267213D01*
X159784003Y-91405688D01*
X159817488Y-91467011D01*
X159812504Y-91536703D01*
X159784003Y-91581050D01*
X157987181Y-93377872D01*
X157925858Y-93411357D01*
X157856166Y-93406373D01*
X157800233Y-93364501D01*
X157775816Y-93299037D01*
X157775500Y-93290191D01*
X157775500Y-93167648D01*
X157743477Y-92965465D01*
X157680218Y-92770776D01*
X157646503Y-92704607D01*
X157587287Y-92588390D01*
X157579556Y-92577749D01*
X157466971Y-92422786D01*
X157322213Y-92278028D01*
X157156614Y-92157715D01*
X157150006Y-92154348D01*
X157063917Y-92110483D01*
X157013123Y-92062511D01*
X156996328Y-91994690D01*
X157018865Y-91928555D01*
X157063917Y-91889516D01*
X157156610Y-91842287D01*
X157242646Y-91779779D01*
X157322213Y-91721971D01*
X157322215Y-91721968D01*
X157322219Y-91721966D01*
X157466966Y-91577219D01*
X157466968Y-91577215D01*
X157466971Y-91577213D01*
X157547036Y-91467011D01*
X157587287Y-91411610D01*
X157680220Y-91229219D01*
X157743477Y-91034534D01*
X157775500Y-90832352D01*
X157775500Y-90627648D01*
X157763792Y-90553728D01*
X157743477Y-90425465D01*
X157681473Y-90234637D01*
X157680220Y-90230781D01*
X157680218Y-90230778D01*
X157680218Y-90230776D01*
X157587419Y-90048650D01*
X157587287Y-90048390D01*
X157555092Y-90004077D01*
X157466971Y-89882786D01*
X157322213Y-89738028D01*
X157156614Y-89617715D01*
X157082580Y-89579993D01*
X157063917Y-89570483D01*
X157013123Y-89522511D01*
X156996328Y-89454690D01*
X157018865Y-89388555D01*
X157063917Y-89349516D01*
X157156610Y-89302287D01*
X157277053Y-89214781D01*
X157322213Y-89181971D01*
X157322215Y-89181968D01*
X157322219Y-89181966D01*
X157466966Y-89037219D01*
X157466968Y-89037215D01*
X157466971Y-89037213D01*
X157519732Y-88964590D01*
X157587287Y-88871610D01*
X157680220Y-88689219D01*
X157743477Y-88494534D01*
X157775500Y-88292352D01*
X157775500Y-88087648D01*
X157747345Y-87909886D01*
X157756300Y-87840593D01*
X157782134Y-87802810D01*
X158722776Y-86862169D01*
X158793965Y-86755627D01*
X158843001Y-86637244D01*
X158855700Y-86573402D01*
X158868000Y-86511569D01*
X158868000Y-85698070D01*
X158887685Y-85631031D01*
X158919113Y-85597753D01*
X159064719Y-85491966D01*
X159209466Y-85347219D01*
X159209468Y-85347215D01*
X159209471Y-85347213D01*
X159293862Y-85231057D01*
X159329787Y-85181610D01*
X159422720Y-84999219D01*
X159485977Y-84804534D01*
X159518000Y-84602352D01*
X159518000Y-84397648D01*
X159485977Y-84195466D01*
X159422720Y-84000781D01*
X159422718Y-84000778D01*
X159422718Y-84000776D01*
X159381600Y-83920079D01*
X159329787Y-83818390D01*
X159315253Y-83798385D01*
X159209471Y-83652786D01*
X159064713Y-83508028D01*
X158899113Y-83387715D01*
X158899112Y-83387714D01*
X158899110Y-83387713D01*
X158842153Y-83358691D01*
X158716723Y-83294781D01*
X158522034Y-83231522D01*
X158347495Y-83203878D01*
X158319852Y-83199500D01*
X158115148Y-83199500D01*
X158090829Y-83203351D01*
X157912965Y-83231522D01*
X157718276Y-83294781D01*
X157535886Y-83387715D01*
X157370286Y-83508028D01*
X157225528Y-83652786D01*
X157105215Y-83818386D01*
X157012281Y-84000776D01*
X156949022Y-84195465D01*
X156917000Y-84397648D01*
X156917000Y-84602351D01*
X156949022Y-84804534D01*
X157012281Y-84999223D01*
X157068211Y-85108990D01*
X157089593Y-85150955D01*
X157105215Y-85181613D01*
X157225528Y-85347213D01*
X157370284Y-85491969D01*
X157439363Y-85542157D01*
X157515885Y-85597753D01*
X157558551Y-85653081D01*
X157567000Y-85698070D01*
X157567000Y-86126691D01*
X157547315Y-86193730D01*
X157530681Y-86214372D01*
X156862190Y-86882862D01*
X156800867Y-86916347D01*
X156755111Y-86917654D01*
X156609611Y-86894609D01*
X156577352Y-86889500D01*
X156372648Y-86889500D01*
X156348329Y-86893351D01*
X156170465Y-86921522D01*
X155975776Y-86984781D01*
X155793386Y-87077715D01*
X155627786Y-87198028D01*
X155483028Y-87342786D01*
X155362715Y-87508386D01*
X155269781Y-87690776D01*
X155206522Y-87885465D01*
X155174500Y-88087648D01*
X155174500Y-88292351D01*
X155206522Y-88494534D01*
X155269781Y-88689223D01*
X155362715Y-88871613D01*
X155483028Y-89037213D01*
X155627786Y-89181971D01*
X155782749Y-89294556D01*
X155793390Y-89302287D01*
X155884840Y-89348883D01*
X155886080Y-89349515D01*
X155892167Y-89355264D01*
X155900123Y-89357879D01*
X155917192Y-89378899D01*
X155936876Y-89397490D01*
X155938888Y-89405618D01*
X155944167Y-89412118D01*
X155947162Y-89439026D01*
X155953671Y-89465311D01*
X155950969Y-89473237D01*
X155951896Y-89481559D01*
X155939869Y-89505812D01*
X155931134Y-89531446D01*
X155923769Y-89538278D01*
X155920856Y-89544155D01*
X155902273Y-89558224D01*
X155893458Y-89566404D01*
X155889838Y-89568570D01*
X155793390Y-89617713D01*
X155726484Y-89666322D01*
X155721739Y-89669162D01*
X155693052Y-89676598D01*
X155665144Y-89686556D01*
X155659607Y-89685268D01*
X155654105Y-89686695D01*
X155625950Y-89677441D01*
X155597090Y-89670730D01*
X155590656Y-89665841D01*
X155587728Y-89664879D01*
X155585051Y-89661582D01*
X155570385Y-89650439D01*
X149914674Y-83994727D01*
X149914673Y-83994726D01*
X149914669Y-83994723D01*
X149808127Y-83923535D01*
X149689744Y-83874499D01*
X149689738Y-83874497D01*
X149564071Y-83849500D01*
X149564069Y-83849500D01*
X149255571Y-83849500D01*
X149188532Y-83829815D01*
X149155254Y-83798386D01*
X149049466Y-83652781D01*
X148904719Y-83508034D01*
X148904713Y-83508028D01*
X148739113Y-83387715D01*
X148739112Y-83387714D01*
X148739110Y-83387713D01*
X148682153Y-83358691D01*
X148556723Y-83294781D01*
X148362034Y-83231522D01*
X148187495Y-83203878D01*
X148159852Y-83199500D01*
X147955148Y-83199500D01*
X147930829Y-83203351D01*
X147752965Y-83231522D01*
X147558276Y-83294781D01*
X147375886Y-83387715D01*
X147210286Y-83508028D01*
X147065534Y-83652780D01*
X147065530Y-83652786D01*
X146959746Y-83798386D01*
X146904418Y-83841051D01*
X146859429Y-83849500D01*
X145073429Y-83849500D01*
X144947761Y-83874497D01*
X144947755Y-83874499D01*
X144829374Y-83923534D01*
X144722826Y-83994726D01*
X141423628Y-87293924D01*
X141362305Y-87327409D01*
X141292613Y-87322425D01*
X141288509Y-87320810D01*
X141217493Y-87291394D01*
X140989514Y-87230307D01*
X140989513Y-87230306D01*
X140989510Y-87230306D01*
X140755520Y-87199501D01*
X140755517Y-87199500D01*
X140755511Y-87199500D01*
X140519489Y-87199500D01*
X140519483Y-87199500D01*
X140519479Y-87199501D01*
X140285489Y-87230306D01*
X140057506Y-87291394D01*
X139839454Y-87381714D01*
X139839443Y-87381719D01*
X139635045Y-87499730D01*
X139447802Y-87643406D01*
X139447795Y-87643412D01*
X139280912Y-87810295D01*
X139280906Y-87810302D01*
X139137230Y-87997545D01*
X139019219Y-88201943D01*
X139019214Y-88201954D01*
X138928894Y-88420006D01*
X138867806Y-88647989D01*
X138837001Y-88881979D01*
X138837000Y-88881995D01*
X138837000Y-89118004D01*
X138837001Y-89118020D01*
X138867805Y-89352003D01*
X138867806Y-89352009D01*
X138867806Y-89352010D01*
X138867809Y-89352021D01*
X138884257Y-89413408D01*
X138882594Y-89483258D01*
X138843430Y-89541120D01*
X138779202Y-89568623D01*
X138764482Y-89569500D01*
X137677547Y-89569500D01*
X137610508Y-89549815D01*
X137589866Y-89533181D01*
X137484713Y-89428028D01*
X137319113Y-89307715D01*
X137319112Y-89307714D01*
X137319110Y-89307713D01*
X137262153Y-89278691D01*
X137136723Y-89214781D01*
X136942034Y-89151522D01*
X136767495Y-89123878D01*
X136739852Y-89119500D01*
X136535148Y-89119500D01*
X136513675Y-89122901D01*
X136332965Y-89151522D01*
X136138276Y-89214781D01*
X135955886Y-89307715D01*
X135790286Y-89428028D01*
X135645528Y-89572786D01*
X135525215Y-89738386D01*
X135432281Y-89920776D01*
X135369022Y-90115465D01*
X135337000Y-90317648D01*
X135337000Y-90522351D01*
X135369022Y-90724534D01*
X135422009Y-90887607D01*
X135424004Y-90957449D01*
X135387924Y-91017282D01*
X135325223Y-91048110D01*
X135255809Y-91040146D01*
X135216397Y-91013607D01*
X129042165Y-84839375D01*
X129042161Y-84839372D01*
X128902869Y-84746299D01*
X128902856Y-84746292D01*
X128766336Y-84689745D01*
X128759592Y-84686951D01*
X128748082Y-84682184D01*
X128748078Y-84682183D01*
X128748074Y-84682182D01*
X128583771Y-84649500D01*
X128583767Y-84649500D01*
X125624499Y-84649500D01*
X125557460Y-84629815D01*
X125511705Y-84577011D01*
X125500499Y-84525500D01*
X125500499Y-83952129D01*
X125500498Y-83952123D01*
X125500497Y-83952116D01*
X125494091Y-83892517D01*
X125474895Y-83841051D01*
X125443797Y-83757671D01*
X125443793Y-83757664D01*
X125357547Y-83642455D01*
X125357544Y-83642452D01*
X125242335Y-83556206D01*
X125242328Y-83556202D01*
X125107482Y-83505908D01*
X125107483Y-83505908D01*
X125047883Y-83499501D01*
X125047881Y-83499500D01*
X125047873Y-83499500D01*
X125047864Y-83499500D01*
X121952129Y-83499500D01*
X121952123Y-83499501D01*
X121892516Y-83505908D01*
X121757671Y-83556202D01*
X121757664Y-83556206D01*
X121642455Y-83642452D01*
X121642452Y-83642455D01*
X121556206Y-83757664D01*
X121556202Y-83757671D01*
X121505908Y-83892517D01*
X121502574Y-83923534D01*
X121499501Y-83952123D01*
X121499500Y-83952135D01*
X111894310Y-83952135D01*
X111926365Y-83920080D01*
X111813524Y-83833494D01*
X111813516Y-83833488D01*
X111586482Y-83702409D01*
X111586471Y-83702404D01*
X111344255Y-83602075D01*
X111091020Y-83534222D01*
X111091009Y-83534220D01*
X110831094Y-83500000D01*
X110568905Y-83500000D01*
X110308990Y-83534220D01*
X110308979Y-83534222D01*
X110055744Y-83602075D01*
X109813528Y-83702404D01*
X109813517Y-83702409D01*
X109586471Y-83833496D01*
X109473633Y-83920079D01*
X109473633Y-83920080D01*
X110488940Y-84935387D01*
X110468409Y-84940889D01*
X110331592Y-85019881D01*
X110219881Y-85131592D01*
X110140889Y-85268409D01*
X110135387Y-85288940D01*
X109120080Y-84273633D01*
X109120079Y-84273633D01*
X109033496Y-84386471D01*
X108902409Y-84613517D01*
X108902404Y-84613528D01*
X108802075Y-84855744D01*
X108734222Y-85108979D01*
X108734220Y-85108990D01*
X108700000Y-85368905D01*
X83500500Y-85368905D01*
X83500500Y-82124500D01*
X83520185Y-82057461D01*
X83572989Y-82011706D01*
X83624500Y-82000500D01*
X173875500Y-82000500D01*
X173942539Y-82020185D01*
G37*
%TD.AperFunction*%
%TD*%
M02*
