M48
; DRILL file {KiCad 9.0.0} date 2025-03-06T18:25:08+0100
; FORMAT={-:-/ absolute / metric / decimal}
; #@! TF.CreationDate,2025-03-06T18:25:08+01:00
; #@! TF.GenerationSoftware,Kicad,Pcbnew,9.0.0
; #@! TF.FileFunction,Plated,1,2,PTH
FMAT,2
METRIC
; #@! TA.AperFunction,Plated,PTH,ViaDrill
T1C0.400
; #@! TA.AperFunction,Plated,PTH,ComponentDrill
T2C0.800
; #@! TA.AperFunction,Plated,PTH,ComponentDrill
T3C0.900
; #@! TA.AperFunction,Plated,PTH,ComponentDrill
T4C1.000
; #@! TA.AperFunction,Plated,PTH,ComponentDrill
T5C1.100
; #@! TA.AperFunction,Plated,PTH,ComponentDrill
T6C1.200
; #@! TA.AperFunction,Plated,PTH,ComponentDrill
T7C1.300
%
G90
G05
T1
X140.0Y-135.5
X151.0Y-123.5
X157.0Y-120.5
X159.0Y-103.5
X164.0Y-119.5
X164.0Y-123.0
X164.0Y-127.0
T2
X136.637Y-90.42
X136.637Y-100.58
X138.47Y-123.19
X139.22Y-116.84
X140.637Y-96.0
X140.955Y-101.5
X142.72Y-116.84
X143.455Y-101.5
X143.47Y-123.19
X145.637Y-96.0
X147.325Y-119.38
X147.325Y-121.92
X147.325Y-124.46
X147.325Y-127.0
X148.058Y-84.5
X148.855Y-88.19
X148.855Y-90.73
X148.855Y-93.27
X148.855Y-95.81
X149.9Y-115.57
X152.4Y-115.57
X154.653Y-136.5
X154.82Y-105.0
X154.945Y-119.38
X154.945Y-121.92
X154.945Y-124.46
X154.945Y-127.0
X156.475Y-88.19
X156.475Y-90.73
X156.475Y-93.27
X156.475Y-95.81
X157.32Y-105.0
X158.153Y-136.5
X158.218Y-84.5
X158.75Y-119.38
X158.75Y-123.19
X158.75Y-127.0
X160.637Y-90.42
X160.637Y-100.58
X164.137Y-90.42
X164.137Y-100.58
X168.91Y-119.38
X168.91Y-123.19
X168.91Y-127.0
T3
X166.725Y-112.0
X169.265Y-112.0
T4
X168.725Y-136.0
X171.265Y-136.0
T5
X147.558Y-100.0
X157.718Y-100.0
T6
X110.7Y-85.5
X123.5Y-85.5
T7
X140.637Y-89.0
X145.637Y-89.0
M30
