%TF.GenerationSoftware,KiCad,Pcbnew,9.0.0*%
%TF.CreationDate,2025-03-06T18:24:39+01:00*%
%TF.ProjectId,GettingToBlinky,47657474-696e-4675-946f-426c696e6b79,rev?*%
%TF.SameCoordinates,Original*%
%TF.FileFunction,Soldermask,Top*%
%TF.FilePolarity,Negative*%
%FSLAX46Y46*%
G04 Gerber Fmt 4.6, Leading zero omitted, Abs format (unit mm)*
G04 Created by KiCad (PCBNEW 9.0.0) date 2025-03-06 18:24:39*
%MOMM*%
%LPD*%
G01*
G04 APERTURE LIST*
G04 Aperture macros list*
%AMRoundRect*
0 Rectangle with rounded corners*
0 $1 Rounding radius*
0 $2 $3 $4 $5 $6 $7 $8 $9 X,Y pos of 4 corners*
0 Add a 4 corners polygon primitive as box body*
4,1,4,$2,$3,$4,$5,$6,$7,$8,$9,$2,$3,0*
0 Add four circle primitives for the rounded corners*
1,1,$1+$1,$2,$3*
1,1,$1+$1,$4,$5*
1,1,$1+$1,$6,$7*
1,1,$1+$1,$8,$9*
0 Add four rect primitives between the rounded corners*
20,1,$1+$1,$2,$3,$4,$5,0*
20,1,$1+$1,$4,$5,$6,$7,0*
20,1,$1+$1,$6,$7,$8,$9,0*
20,1,$1+$1,$8,$9,$2,$3,0*%
%AMFreePoly0*
4,1,23,0.500000,-0.750000,0.000000,-0.750000,0.000000,-0.745722,-0.065263,-0.745722,-0.191342,-0.711940,-0.304381,-0.646677,-0.396677,-0.554381,-0.461940,-0.441342,-0.495722,-0.315263,-0.495722,-0.250000,-0.500000,-0.250000,-0.500000,0.250000,-0.495722,0.250000,-0.495722,0.315263,-0.461940,0.441342,-0.396677,0.554381,-0.304381,0.646677,-0.191342,0.711940,-0.065263,0.745722,0.000000,0.745722,
0.000000,0.750000,0.500000,0.750000,0.500000,-0.750000,0.500000,-0.750000,$1*%
%AMFreePoly1*
4,1,23,0.000000,0.745722,0.065263,0.745722,0.191342,0.711940,0.304381,0.646677,0.396677,0.554381,0.461940,0.441342,0.495722,0.315263,0.495722,0.250000,0.500000,0.250000,0.500000,-0.250000,0.495722,-0.250000,0.495722,-0.315263,0.461940,-0.441342,0.396677,-0.554381,0.304381,-0.646677,0.191342,-0.711940,0.065263,-0.745722,0.000000,-0.745722,0.000000,-0.750000,-0.500000,-0.750000,
-0.500000,0.750000,0.000000,0.750000,0.000000,0.745722,0.000000,0.745722,$1*%
G04 Aperture macros list end*
%ADD10C,2.600000*%
%ADD11R,1.600000X1.600000*%
%ADD12C,1.600000*%
%ADD13FreePoly0,90.000000*%
%ADD14FreePoly1,90.000000*%
%ADD15O,1.600000X1.600000*%
%ADD16R,1.700000X1.700000*%
%ADD17O,1.700000X1.700000*%
%ADD18C,3.500000*%
%ADD19R,3.000000X3.000000*%
%ADD20C,3.000000*%
%ADD21RoundRect,0.250000X-0.550000X-0.550000X0.550000X-0.550000X0.550000X0.550000X-0.550000X0.550000X0*%
%ADD22RoundRect,0.250000X-0.450000X0.350000X-0.450000X-0.350000X0.450000X-0.350000X0.450000X0.350000X0*%
%ADD23R,2.200000X2.200000*%
%ADD24O,2.200000X2.200000*%
%ADD25R,1.800000X1.800000*%
%ADD26C,1.800000*%
%ADD27RoundRect,0.237500X0.237500X-0.300000X0.237500X0.300000X-0.237500X0.300000X-0.237500X-0.300000X0*%
G04 APERTURE END LIST*
%TO.C,JP2*%
G36*
X139250000Y-138800000D02*
G01*
X140750000Y-138800000D01*
X140750000Y-138500000D01*
X139250000Y-138500000D01*
X139250000Y-138800000D01*
G37*
%TO.C,JP1*%
G36*
X139250000Y-133800000D02*
G01*
X140750000Y-133800000D01*
X140750000Y-133500000D01*
X139250000Y-133500000D01*
X139250000Y-133800000D01*
G37*
%TD*%
D10*
%TO.C,L1*%
X140637500Y-89000000D03*
X145637500Y-89000000D03*
%TD*%
D11*
%TO.C,C7*%
X158152651Y-136500000D03*
D12*
X154652651Y-136500000D03*
%TD*%
D13*
%TO.C,JP2*%
X140000000Y-139300000D03*
D14*
X140000000Y-138000000D03*
%TD*%
D12*
%TO.C,Rsc1*%
X136637500Y-100580000D03*
D15*
X136637500Y-90420000D03*
%TD*%
D16*
%TO.C,J1*%
X168725000Y-136000000D03*
D17*
X171265000Y-136000000D03*
%TD*%
D11*
%TO.C,C2*%
X157319880Y-105000000D03*
D12*
X154819880Y-105000000D03*
%TD*%
D18*
%TO.C,BT1*%
X123500000Y-111570000D03*
X93500000Y-111570000D03*
D19*
X123500000Y-85500000D03*
D20*
X110700000Y-85500000D03*
%TD*%
D12*
%TO.C,C5*%
X138470000Y-123190000D03*
X143470000Y-123190000D03*
%TD*%
%TO.C,R5*%
X158750000Y-123190000D03*
D15*
X168910000Y-123190000D03*
%TD*%
D21*
%TO.C,U2*%
X147325000Y-119380000D03*
D12*
X147325000Y-121920000D03*
X147325000Y-124460000D03*
X147325000Y-127000000D03*
X154945000Y-127000000D03*
X154945000Y-124460000D03*
X154945000Y-121920000D03*
X154945000Y-119380000D03*
%TD*%
%TO.C,R1*%
X158217500Y-84500000D03*
D15*
X148057500Y-84500000D03*
%TD*%
D11*
%TO.C,C4*%
X142720000Y-116840000D03*
D12*
X139220000Y-116840000D03*
%TD*%
%TO.C,R2*%
X160637500Y-90420000D03*
D15*
X160637500Y-100580000D03*
%TD*%
D11*
%TO.C,C1*%
X140955121Y-101500000D03*
D12*
X143455121Y-101500000D03*
%TD*%
D13*
%TO.C,JP1*%
X140000000Y-134300000D03*
D14*
X140000000Y-133000000D03*
%TD*%
D21*
%TO.C,U1*%
X148855000Y-88190000D03*
D12*
X148855000Y-90730000D03*
X148855000Y-93270000D03*
X148855000Y-95810000D03*
X156475000Y-95810000D03*
X156475000Y-93270000D03*
X156475000Y-90730000D03*
X156475000Y-88190000D03*
%TD*%
%TO.C,R4*%
X158750000Y-119380000D03*
D15*
X168910000Y-119380000D03*
%TD*%
D22*
%TO.C,R7*%
X165000000Y-135000000D03*
X165000000Y-137000000D03*
%TD*%
D12*
%TO.C,C6*%
X152400000Y-115570000D03*
X149900000Y-115570000D03*
%TD*%
%TO.C,Ct1*%
X145637500Y-96000000D03*
X140637500Y-96000000D03*
%TD*%
%TO.C,R3*%
X164137500Y-100580000D03*
D15*
X164137500Y-90420000D03*
%TD*%
D23*
%TO.C,D1*%
X157717500Y-100000000D03*
D24*
X147557500Y-100000000D03*
%TD*%
D25*
%TO.C,D2*%
X166725000Y-112000000D03*
D26*
X169265000Y-112000000D03*
%TD*%
D12*
%TO.C,R6*%
X158750000Y-127000000D03*
D15*
X168910000Y-127000000D03*
%TD*%
D27*
%TO.C,C3*%
X160500000Y-104862500D03*
X160500000Y-103137500D03*
%TD*%
M02*
